<svg width="186" height="32" viewBox="0 0 186 32" fill="none" xmlns="http://www.w3.org/2000/svg">
<path d="M9.24761 25.2062C6.49573 25.2062 4.26649 24.3309 2.55989 22.5805C0.853298 20.8301 0 18.5108 0 15.6226V1.50974H4.63981V15.6882C4.63981 17.2198 5.05579 18.4232 5.88776 19.2985C6.71972 20.1737 7.83967 20.6113 9.24761 20.6113C10.6556 20.6113 11.7755 20.1737 12.6075 19.2985C13.4394 18.4232 13.8554 17.2198 13.8554 15.6882V1.50974H18.4952V15.6226C18.4952 18.4889 17.6313 20.8082 15.9033 22.5805C14.1754 24.3309 11.9568 25.2062 9.24761 25.2062Z" fill="#4CAEFF"/>
<path d="M26.0062 24.8123H20.5664L29.11 13.0297L21.0464 1.50974H26.4221L31.8939 9.35385L37.3977 1.50974H42.7735L34.6778 13.0297L43.2535 24.8123H37.8137L31.8939 16.7385L26.0062 24.8123Z" fill="#4CAEFF"/>
<path d="M52.2538 24.8123V1.50974H59.7415C63.0054 1.50974 65.7679 2.63658 68.0292 4.89026C70.2904 7.14393 71.421 9.90086 71.421 13.161C71.421 16.4212 70.2904 19.1781 68.0292 21.4318C65.7679 23.6855 63.0054 24.8123 59.7415 24.8123H52.2538ZM56.8936 20.4472H59.7415C61.8108 20.4472 63.496 19.747 64.7973 18.3467C66.0986 16.9463 66.7492 15.2178 66.7492 13.161C66.7492 11.1043 66.0986 9.37573 64.7973 7.97539C63.496 6.57504 61.8108 5.87487 59.7415 5.87487H56.8936V20.4472Z" fill="#4CAEFF"/>
<path d="M82.1028 25.1733C79.6496 25.1733 77.6337 24.3638 76.0551 22.7446C74.4978 21.1255 73.7192 19.0687 73.7192 16.5744C73.7192 14.1238 74.5085 12.0889 76.0871 10.4697C77.687 8.8506 79.7029 8.04103 82.1348 8.04103C84.5881 8.04103 86.6253 8.9053 88.2466 10.6338C89.8678 12.3405 90.6145 14.6817 90.4865 17.6574H78.007C78.0923 18.6858 78.5083 19.5501 79.2549 20.2503C80.0016 20.9285 81.0255 21.2677 82.3268 21.2677C83.1161 21.2677 83.8094 21.1145 84.4067 20.8082C85.0254 20.48 85.4627 20.0315 85.7187 19.4626H90.2945C89.8252 21.1474 88.8439 22.5258 87.3506 23.5979C85.8573 24.6482 84.1081 25.1733 82.1028 25.1733ZM82.0068 11.6841C81.0042 11.6841 80.1616 11.9576 79.4789 12.5046C78.8176 13.0297 78.3803 13.7627 78.167 14.7036H85.6867C85.452 13.6752 84.9827 12.9203 84.2787 12.439C83.5961 11.9357 82.8388 11.6841 82.0068 11.6841Z" fill="#4CAEFF"/>
<path d="M99.8556 25.1733C97.8077 25.1733 96.1117 24.6482 94.7678 23.5979C93.4239 22.5477 92.7092 21.213 92.6239 19.5938H97.1997C97.285 20.294 97.5837 20.8301 98.0957 21.2021C98.6076 21.5521 99.2369 21.7272 99.9836 21.7272C101.37 21.7272 102.063 21.2896 102.063 20.4144C102.063 19.9768 101.903 19.6485 101.584 19.4297C101.285 19.1891 100.773 18.9703 100.048 18.7733L97.0397 17.9856C95.6744 17.6137 94.6505 16.9901 93.9678 16.1149C93.3065 15.2178 92.9759 14.1456 92.9759 12.8985C92.9759 11.4762 93.5518 10.3166 94.7038 9.41949C95.8771 8.50051 97.445 8.04103 99.4076 8.04103C101.2 8.04103 102.693 8.51145 103.887 9.45231C105.082 10.3713 105.743 11.6294 105.871 13.2267H101.456C101.264 12.1108 100.56 11.5528 99.3436 11.5528C98.7676 11.5528 98.309 11.6622 97.9677 11.881C97.6264 12.0998 97.4557 12.4062 97.4557 12.8C97.4557 13.5221 98.0637 14.0253 99.2796 14.3097L102.095 15.0974C103.653 15.4913 104.783 16.1149 105.487 16.9682C106.191 17.7997 106.543 18.8718 106.543 20.1846C106.543 21.6944 105.914 22.9087 104.655 23.8277C103.418 24.7248 101.818 25.1733 99.8556 25.1733Z" fill="#4CAEFF"/>
<path d="M111.886 5.71077C111.14 5.71077 110.489 5.43726 109.934 4.89026C109.38 4.32137 109.102 3.64308 109.102 2.85538C109.102 2.06769 109.38 1.40034 109.934 0.853334C110.489 0.284445 111.14 0 111.886 0C112.676 0 113.337 0.284445 113.87 0.853334C114.425 1.40034 114.702 2.06769 114.702 2.85538C114.702 3.64308 114.425 4.32137 113.87 4.89026C113.337 5.43726 112.676 5.71077 111.886 5.71077ZM109.71 24.8123V8.40205H114.094V24.8123H109.71Z" fill="#4CAEFF"/>
<path d="M125.759 32C123.541 32 121.728 31.4202 120.32 30.2605C118.912 29.1009 118.122 27.6239 117.952 25.8297H122.24C122.794 27.4489 124 28.2585 125.856 28.2585C126.879 28.2585 127.733 27.9193 128.415 27.241C129.119 26.5627 129.471 25.6109 129.471 24.3856V22.4492C129.023 23.0838 128.383 23.6089 127.551 24.0246C126.719 24.4185 125.813 24.6154 124.832 24.6154C122.741 24.6154 120.96 23.8168 119.488 22.2195C118.016 20.6003 117.28 18.6421 117.28 16.3446C117.28 14.0253 118.016 12.067 119.488 10.4697C120.96 8.8506 122.741 8.04103 124.832 8.04103C125.834 8.04103 126.741 8.24889 127.551 8.66462C128.383 9.05846 129.023 9.58359 129.471 10.24V8.40205H133.855V23.7949C133.855 26.5737 133.077 28.6304 131.519 29.9651C129.983 31.3217 128.063 32 125.759 32ZM122.88 19.3641C123.669 20.1518 124.629 20.5456 125.759 20.5456C126.89 20.5456 127.85 20.1518 128.639 19.3641C129.429 18.5764 129.823 17.5699 129.823 16.3446C129.823 15.1193 129.429 14.1128 128.639 13.3251C127.85 12.5374 126.89 12.1436 125.759 12.1436C124.629 12.1436 123.669 12.5374 122.88 13.3251C122.09 14.1128 121.696 15.1193 121.696 16.3446C121.696 17.5699 122.09 18.5764 122.88 19.3641Z" fill="#4CAEFF"/>
<path d="M138.084 24.8123V8.40205H142.468V10.2728C143.449 8.78496 144.975 8.04103 147.044 8.04103C148.964 8.04103 150.468 8.69744 151.556 10.0103C152.665 11.3012 153.22 13.0297 153.22 15.1959V24.8123H148.836V15.9508C148.836 14.7474 148.59 13.8174 148.1 13.161C147.609 12.4827 146.916 12.1436 146.02 12.1436C144.953 12.1436 144.089 12.5374 143.428 13.3251C142.788 14.1128 142.468 15.2725 142.468 16.8041V24.8123H138.084Z" fill="#4CAEFF"/>
<path d="M164.599 25.1733C162.146 25.1733 160.13 24.3638 158.552 22.7446C156.994 21.1255 156.216 19.0687 156.216 16.5744C156.216 14.1238 157.005 12.0889 158.584 10.4697C160.184 8.8506 162.199 8.04103 164.631 8.04103C167.085 8.04103 169.122 8.9053 170.743 10.6338C172.364 12.3405 173.111 14.6817 172.983 17.6574H160.504C160.589 18.6858 161.005 19.5501 161.751 20.2503C162.498 20.9285 163.522 21.2677 164.823 21.2677C165.613 21.2677 166.306 21.1145 166.903 20.8082C167.522 20.48 167.959 20.0315 168.215 19.4626H172.791C172.322 21.1474 171.34 22.5258 169.847 23.5979C168.354 24.6482 166.605 25.1733 164.599 25.1733ZM164.503 11.6841C163.501 11.6841 162.658 11.9576 161.976 12.5046C161.314 13.0297 160.877 13.7627 160.664 14.7036H168.183C167.949 13.6752 167.479 12.9203 166.775 12.439C166.093 11.9357 165.335 11.6841 164.503 11.6841Z" fill="#4CAEFF"/>
<path d="M176.176 24.8123V8.40205H180.56V11.0277C180.838 10.2181 181.339 9.55077 182.064 9.02564C182.811 8.47863 183.632 8.20513 184.528 8.20513C185.083 8.20513 185.573 8.27077 186 8.40205V12.9641C185.296 12.7234 184.635 12.6031 184.016 12.6031C182.971 12.6031 182.128 12.9969 181.488 13.7846C180.87 14.5504 180.56 15.6116 180.56 16.9682V24.8123H176.176Z" fill="#4CAEFF"/>
</svg>
