<svg width="24" height="24" viewBox="0 0 24 24" fill="none" xmlns="http://www.w3.org/2000/svg">
<path d="M6.79163 5.52002C7.98408 5.52002 8.75078 6.78565 8.19857 7.84253L6.70348 10.704H6.87834C9.02562 10.704 10.7663 12.4447 10.7663 14.592C10.7663 16.7393 9.02562 18.48 6.87834 18.48H6.70348C4.45963 18.48 2.64062 16.661 2.64062 14.4172V11.1537C2.64062 10.8583 2.71207 10.5673 2.84885 10.3055L4.68122 6.79847C5.09181 6.01264 5.90501 5.52002 6.79163 5.52002ZM17.6259 5.52002C18.8184 5.52002 19.5851 6.78565 19.0329 7.84253L17.5378 10.704H17.7126C19.8599 10.704 21.6006 12.4447 21.6006 14.592C21.6006 16.7393 19.8599 18.48 17.7126 18.48H17.5378C15.2939 18.48 13.4749 16.661 13.4749 14.4172V11.1537C13.4749 10.8583 13.5464 10.5673 13.6831 10.3055L15.5155 6.79847C15.9261 6.01264 16.7393 5.52002 17.6259 5.52002Z" fill="#B3DDFF"/>
</svg>
