<svg width="54" height="54" viewBox="0 0 54 54" fill="none" xmlns="http://www.w3.org/2000/svg">
<path d="M15.2783 12C17.907 12 19.6168 14.7664 18.4412 17.1177L15 24C19.9706 24 24 28.0294 24 33C24 37.9706 19.9706 42 15 42C10.0294 42 6 37.9706 6 33V24.7082C6 24.2425 6.10844 23.7831 6.31672 23.3666L10.5339 14.9322C11.4324 13.1351 13.2691 12 15.2783 12ZM39.2783 12C41.907 12 43.6168 14.7664 42.4412 17.1177L39 24C43.9706 24 48 28.0294 48 33C48 37.9706 43.9706 42 39 42C34.0294 42 30 37.9706 30 33V24.7082C30 24.2425 30.1084 23.7831 30.3167 23.3666L34.5339 14.9322C35.4324 13.1351 37.2691 12 39.2783 12Z" fill="#46AAFF"/>
</svg>
