<svg width="145" height="158" viewBox="0 0 145 158" fill="none" xmlns="http://www.w3.org/2000/svg">
<circle cx="6" cy="5.5" r="5.5" fill="#E7EBEF"/>
<circle cx="25" cy="5.5" r="5.5" fill="#E7EBEF"/>
<circle cx="44" cy="5.5" r="5.5" fill="#E7EBEF"/>
<circle cx="63" cy="5.5" r="5.5" fill="#E7EBEF"/>
<circle cx="82" cy="5.5" r="5.5" fill="#E7EBEF"/>
<circle cx="101" cy="5.5" r="5.5" fill="#E7EBEF"/>
<circle cx="120" cy="5.5" r="5.5" fill="#E7EBEF"/>
<circle cx="139" cy="5.5" r="5.5" fill="#E7EBEF"/>
<circle cx="6" cy="26.5" r="5.5" fill="#E7EBEF"/>
<circle cx="25" cy="26.5" r="5.5" fill="#E7EBEF"/>
<circle cx="44" cy="26.5" r="5.5" fill="#E7EBEF"/>
<circle cx="63" cy="26.5" r="5.5" fill="#E7EBEF"/>
<circle cx="82" cy="26.5" r="5.5" fill="#E7EBEF"/>
<circle cx="101" cy="26.5" r="5.5" fill="#E7EBEF"/>
<circle cx="120" cy="26.5" r="5.5" fill="#E7EBEF"/>
<circle cx="139" cy="26.5" r="5.5" fill="#E7EBEF"/>
<circle cx="6" cy="47.5" r="5.5" fill="#E7EBEF"/>
<circle cx="25" cy="47.5" r="5.5" fill="#E7EBEF"/>
<circle cx="44" cy="47.5" r="5.5" fill="#E7EBEF"/>
<circle cx="63" cy="47.5" r="5.5" fill="#E7EBEF"/>
<circle cx="82" cy="47.5" r="5.5" fill="#E7EBEF"/>
<circle cx="101" cy="47.5" r="5.5" fill="#E7EBEF"/>
<circle cx="120" cy="47.5" r="5.5" fill="#E7EBEF"/>
<circle cx="139" cy="47.5" r="5.5" fill="#E7EBEF"/>
<circle cx="6" cy="68.5" r="5.5" fill="#E7EBEF"/>
<circle cx="25" cy="68.5" r="5.5" fill="#E7EBEF"/>
<circle cx="44" cy="68.5" r="5.5" fill="#E7EBEF"/>
<circle cx="63" cy="68.5" r="5.5" fill="#E7EBEF"/>
<circle cx="82" cy="68.5" r="5.5" fill="#E7EBEF"/>
<circle cx="101" cy="68.5" r="5.5" fill="#E7EBEF"/>
<circle cx="120" cy="68.5" r="5.5" fill="#E7EBEF"/>
<circle cx="139" cy="68.5" r="5.5" fill="#E7EBEF"/>
<circle cx="6" cy="89.5" r="5.5" fill="#E7EBEF"/>
<circle cx="25" cy="89.5" r="5.5" fill="#E7EBEF"/>
<circle cx="44" cy="89.5" r="5.5" fill="#E7EBEF"/>
<circle cx="63" cy="89.5" r="5.5" fill="#E7EBEF"/>
<circle cx="82" cy="89.5" r="5.5" fill="#E7EBEF"/>
<circle cx="101" cy="89.5" r="5.5" fill="#E7EBEF"/>
<circle cx="120" cy="89.5" r="5.5" fill="#E7EBEF"/>
<circle cx="139" cy="89.5" r="5.5" fill="#E7EBEF"/>
<circle cx="6" cy="110.5" r="5.5" fill="#E7EBEF"/>
<circle cx="25" cy="110.5" r="5.5" fill="#E7EBEF"/>
<circle cx="44" cy="110.5" r="5.5" fill="#E7EBEF"/>
<circle cx="63" cy="110.5" r="5.5" fill="#E7EBEF"/>
<circle cx="82" cy="110.5" r="5.5" fill="#E7EBEF"/>
<circle cx="101" cy="110.5" r="5.5" fill="#E7EBEF"/>
<circle cx="120" cy="110.5" r="5.5" fill="#E7EBEF"/>
<circle cx="139" cy="110.5" r="5.5" fill="#E7EBEF"/>
<circle cx="6" cy="131.5" r="5.5" fill="#4CAEFF"/>
<circle cx="25" cy="131.5" r="5.5" fill="#4CAEFF"/>
<circle cx="44" cy="131.5" r="5.5" fill="#4CAEFF"/>
<circle cx="63" cy="131.5" r="5.5" fill="#4CAEFF"/>
<circle cx="82" cy="131.5" r="5.5" fill="#4CAEFF"/>
<circle cx="101" cy="131.5" r="5.5" fill="#4CAEFF"/>
<circle cx="120" cy="131.5" r="5.5" fill="#E7EBEF"/>
<circle cx="139" cy="131.5" r="5.5" fill="#E7EBEF"/>
<circle cx="6" cy="152.5" r="5.5" fill="#4CAEFF"/>
<circle cx="25" cy="152.5" r="5.5" fill="#4CAEFF"/>
<circle cx="44" cy="152.5" r="5.5" fill="#4CAEFF"/>
<circle cx="63" cy="152.5" r="5.5" fill="#4CAEFF"/>
<circle cx="82" cy="152.5" r="5.5" fill="#4CAEFF"/>
<circle cx="101" cy="152.5" r="5.5" fill="#4CAEFF"/>
<circle cx="120" cy="152.5" r="5.5" fill="#4CAEFF"/>
<circle cx="139" cy="152.5" r="5.5" fill="#4CAEFF"/>
</svg>
