<svg width="144" height="158" viewBox="0 0 144 158" fill="none" xmlns="http://www.w3.org/2000/svg">
<circle cx="5.5" cy="5.5" r="5.5" fill="#E7EAEF"/>
<circle cx="24.5" cy="5.5" r="5.5" fill="#E7EAEF"/>
<circle cx="43.5" cy="5.5" r="5.5" fill="#E7EAEF"/>
<circle cx="62.5" cy="5.5" r="5.5" fill="#E7EAEF"/>
<circle cx="81.5" cy="5.5" r="5.5" fill="#E7EAEF"/>
<circle cx="100.5" cy="5.5" r="5.5" fill="#E7EAEF"/>
<circle cx="119.5" cy="5.5" r="5.5" fill="#E7EAEF"/>
<circle cx="138.5" cy="5.5" r="5.5" fill="#E7EAEF"/>
<circle cx="5.5" cy="26.5" r="5.5" fill="#E7EAEF"/>
<circle cx="24.5" cy="26.5" r="5.5" fill="#E7EAEF"/>
<circle cx="43.5" cy="26.5" r="5.5" fill="#E7EAEF"/>
<circle cx="62.5" cy="26.5" r="5.5" fill="#E7EAEF"/>
<circle cx="81.5" cy="26.5" r="5.5" fill="#E7EAEF"/>
<circle cx="100.5" cy="26.5" r="5.5" fill="#E7EAEF"/>
<circle cx="119.5" cy="26.5" r="5.5" fill="#E7EAEF"/>
<circle cx="138.5" cy="26.5" r="5.5" fill="#E7EAEF"/>
<circle cx="5.5" cy="47.5" r="5.5" fill="#E7EAEF"/>
<circle cx="24.5" cy="47.5" r="5.5" fill="#E7EAEF"/>
<circle cx="43.5" cy="47.5" r="5.5" fill="#E7EAEF"/>
<circle cx="62.5" cy="47.5" r="5.5" fill="#E7EAEF"/>
<circle cx="81.5" cy="47.5" r="5.5" fill="#E7EAEF"/>
<circle cx="100.5" cy="47.5" r="5.5" fill="#E7EAEF"/>
<circle cx="119.5" cy="47.5" r="5.5" fill="#E7EAEF"/>
<circle cx="138.5" cy="47.5" r="5.5" fill="#E7EAEF"/>
<circle cx="5.5" cy="68.5" r="5.5" fill="#E7EAEF"/>
<circle cx="24.5" cy="68.5" r="5.5" fill="#E7EAEF"/>
<circle cx="43.5" cy="68.5" r="5.5" fill="#E7EAEF"/>
<circle cx="62.5" cy="68.5" r="5.5" fill="#E7EAEF"/>
<circle cx="81.5" cy="68.5" r="5.5" fill="#E7EAEF"/>
<circle cx="100.5" cy="68.5" r="5.5" fill="#E7EAEF"/>
<circle cx="119.5" cy="68.5" r="5.5" fill="#E7EAEF"/>
<circle cx="138.5" cy="68.5" r="5.5" fill="#E7EAEF"/>
<circle cx="5.5" cy="89.5" r="5.5" fill="#E7EAEF"/>
<circle cx="24.5" cy="89.5" r="5.5" fill="#E7EAEF"/>
<circle cx="43.5" cy="89.5" r="5.5" fill="#E7EAEF"/>
<circle cx="62.5" cy="89.5" r="5.5" fill="#E7EAEF"/>
<circle cx="81.5" cy="89.5" r="5.5" fill="#E7EAEF"/>
<circle cx="100.5" cy="89.5" r="5.5" fill="#E7EAEF"/>
<circle cx="119.5" cy="89.5" r="5.5" fill="#E7EAEF"/>
<circle cx="138.5" cy="89.5" r="5.5" fill="#E7EAEF"/>
<circle cx="5.5" cy="110.5" r="5.5" fill="#E7EAEF"/>
<circle cx="24.5" cy="110.5" r="5.5" fill="#E7EAEF"/>
<circle cx="43.5" cy="110.5" r="5.5" fill="#E7EAEF"/>
<circle cx="62.5" cy="110.5" r="5.5" fill="#E7EAEF"/>
<circle cx="81.5" cy="110.5" r="5.5" fill="#E7EAEF"/>
<circle cx="100.5" cy="110.5" r="5.5" fill="#E7EAEF"/>
<circle cx="119.5" cy="110.5" r="5.5" fill="#E7EAEF"/>
<circle cx="138.5" cy="110.5" r="5.5" fill="#E7EAEF"/>
<circle cx="5.5" cy="131.5" r="5.5" fill="#4CAEFF"/>
<circle cx="24.5" cy="131.5" r="5.5" fill="#4CAEFF"/>
<circle cx="43.5" cy="131.5" r="5.5" fill="#4CAEFF"/>
<circle cx="62.5" cy="131.5" r="5.5" fill="#E7EAEF"/>
<circle cx="81.5" cy="131.5" r="5.5" fill="#E7EAEF"/>
<circle cx="100.5" cy="131.5" r="5.5" fill="#E7EAEF"/>
<circle cx="119.5" cy="131.5" r="5.5" fill="#E7EAEF"/>
<circle cx="138.5" cy="131.5" r="5.5" fill="#E7EAEF"/>
<circle cx="5.5" cy="152.5" r="5.5" fill="#4CAEFF"/>
<circle cx="24.5" cy="152.5" r="5.5" fill="#4CAEFF"/>
<circle cx="43.5" cy="152.5" r="5.5" fill="#4CAEFF"/>
<circle cx="62.5" cy="152.5" r="5.5" fill="#4CAEFF"/>
<circle cx="81.5" cy="152.5" r="5.5" fill="#4CAEFF"/>
<circle cx="100.5" cy="152.5" r="5.5" fill="#4CAEFF"/>
<circle cx="119.5" cy="152.5" r="5.5" fill="#4CAEFF"/>
<circle cx="138.5" cy="152.5" r="5.5" fill="#4CAEFF"/>
</svg>
