<svg width="24" height="24" viewBox="0 0 24 24" fill="none" xmlns="http://www.w3.org/2000/svg">
<path d="M5.58323 18C6.85578 18 7.91065 17.6313 8.63065 16.9106C9.3339 16.2067 9.73576 15.1676 9.73576 13.7765V7.2905C9.73576 6.56983 9.16646 6 8.44647 6C7.72647 6 7.15717 6.56983 7.15717 7.2905V13.6592C7.15717 15.0168 6.55439 15.6034 5.54974 15.6034C4.9637 15.6034 4.51161 15.4022 3.99254 15.0168C3.74138 14.8324 3.54045 14.7486 3.22232 14.7486C2.53581 14.7486 2 15.3017 2 15.9888C2 16.3911 2.21767 16.7765 2.48558 16.9777C3.22232 17.5475 4.2437 18 5.58323 18Z" fill="#4CAEFF"/>
<path d="M11.2001 16.5419C11.2001 17.2626 11.7694 17.8324 12.4894 17.8324H15.7712C19.4549 17.8324 22 15.2682 22 11.9665V11.933C22 8.63129 19.4549 6.10056 15.7712 6.10056H12.4894C11.7694 6.10056 11.2001 6.67039 11.2001 7.39106V16.5419ZM13.7787 15.5028V8.43017H15.7712C17.881 8.43017 19.3042 9.88827 19.3042 11.9665V12C19.3042 14.0782 17.881 15.5028 15.7712 15.5028H13.7787Z" fill="#4CAEFF"/>
</svg>
