<svg width="40" height="40" viewBox="0 0 40 40" fill="none" xmlns="http://www.w3.org/2000/svg">
<path d="M28.38 0H11.62C4.34 0 0 4.34 0 11.62V28.36C0 35.66 4.34 40 11.62 40H28.36C35.64 40 39.98 35.66 39.98 28.38V11.62C40 4.34 35.66 0 28.38 0ZM30.52 15.92L25.9 21.88C25.32 22.62 24.5 23.1 23.56 23.2C22.62 23.32 21.7 23.06 20.96 22.48L17.3 19.6C17.16 19.48 17 19.48 16.92 19.5C16.84 19.5 16.7 19.54 16.58 19.7L11.82 25.88C11.52 26.26 11.08 26.46 10.64 26.46C10.32 26.46 10 26.36 9.72 26.14C9.06 25.64 8.94 24.7 9.44 24.04L14.2 17.86C14.78 17.12 15.6 16.64 16.54 16.52C17.46 16.4 18.4 16.66 19.14 17.24L22.8 20.12C22.94 20.24 23.08 20.24 23.18 20.22C23.26 20.22 23.4 20.18 23.52 20.02L28.14 14.06C28.64 13.4 29.6 13.28 30.24 13.8C30.9 14.34 31.02 15.28 30.52 15.92Z" fill="#4CAEFF"/>
</svg>
