<svg width="48" height="48" viewBox="0 0 48 48" fill="none" xmlns="http://www.w3.org/2000/svg">
<path d="M32 8.5C32 10.98 29.98 13 27.5 13H20.5C19.26 13 18.14 12.5 17.32 11.68C16.5 10.86 16 9.74 16 8.5C16 6.02 18.02 4 20.5 4H27.5C28.74 4 29.86 4.5 30.68 5.32C31.5 6.14 32 7.26 32 8.5Z" fill="#4CAEFF"/>
<path d="M37.66 10.0594C37.2 9.67944 36.68 9.37944 36.12 9.15944C35.54 8.93944 34.96 9.39944 34.84 9.99944C34.16 13.4194 31.14 15.9994 27.5 15.9994H20.5C18.5 15.9994 16.62 15.2194 15.2 13.7994C14.16 12.7594 13.44 11.4394 13.16 10.0194C13.04 9.41944 12.44 8.93944 11.86 9.17944C9.54 10.1194 8 12.2394 8 16.4994V35.9994C8 41.9994 11.58 43.9994 16 43.9994H32C36.42 43.9994 40 41.9994 40 35.9994V16.4994C40 13.2394 39.1 11.2394 37.66 10.0594ZM16 24.4994H24C24.82 24.4994 25.5 25.1794 25.5 25.9994C25.5 26.8194 24.82 27.4994 24 27.4994H16C15.18 27.4994 14.5 26.8194 14.5 25.9994C14.5 25.1794 15.18 24.4994 16 24.4994ZM32 35.4994H16C15.18 35.4994 14.5 34.8194 14.5 33.9994C14.5 33.1794 15.18 32.4994 16 32.4994H32C32.82 32.4994 33.5 33.1794 33.5 33.9994C33.5 34.8194 32.82 35.4994 32 35.4994Z" fill="#4CAEFF"/>
</svg>
