<svg width="48" height="48" viewBox="0 0 48 48" fill="none" xmlns="http://www.w3.org/2000/svg">
<rect x="6" y="8" width="36" height="32" rx="8" fill="#4CAEFF"/>
<path d="M22.8904 27.4413L20.732 29.5997C20.277 30.0547 19.5537 30.0547 19.087 29.6113C18.9587 29.483 18.8304 29.3663 18.702 29.238C17.5004 28.0247 16.4154 26.753 15.447 25.423C14.4904 24.093 13.7204 22.763 13.1604 21.4447C12.612 20.1147 12.332 18.843 12.332 17.6297C12.332 16.8363 12.472 16.078 12.752 15.378C13.032 14.6663 13.4754 14.013 14.0937 13.4297C14.8404 12.6947 15.657 12.333 16.5204 12.333C16.847 12.333 17.1737 12.403 17.4654 12.543C17.7687 12.683 18.037 12.893 18.247 13.1963L20.9537 17.0113C21.1637 17.303 21.3154 17.5713 21.4204 17.828C21.5254 18.073 21.5837 18.318 21.5837 18.5397C21.5837 18.8197 21.502 19.0997 21.3387 19.368C21.187 19.6363 20.9654 19.9163 20.6854 20.1963L19.7987 21.118C19.6704 21.2463 19.612 21.398 19.612 21.5847C19.612 21.678 19.6237 21.7597 19.647 21.853C19.682 21.9463 19.717 22.0163 19.7404 22.0863C19.9504 22.4713 20.312 22.973 20.8254 23.5797C21.3504 24.1863 21.9104 24.8047 22.517 25.423C22.6337 25.5397 22.762 25.6563 22.8787 25.773C23.3454 26.228 23.357 26.9747 22.8904 27.4413Z" fill="white"/>
<path d="M35.6348 31.3849C35.6348 31.7115 35.5765 32.0499 35.4598 32.3766C35.4248 32.4699 35.3898 32.5632 35.3431 32.6565C35.1448 33.0766 34.8881 33.4732 34.5498 33.8466C33.9781 34.4766 33.3481 34.9316 32.6365 35.2232C32.6248 35.2232 32.6131 35.2349 32.6015 35.2349C31.9131 35.5149 31.1665 35.6665 30.3615 35.6665C29.1715 35.6665 27.8998 35.3866 26.5581 34.8149C25.2165 34.2432 23.8748 33.4732 22.5448 32.5049C22.0898 32.1666 21.6348 31.8282 21.2031 31.4665L25.0181 27.6515C25.3448 27.8965 25.6365 28.0832 25.8815 28.2115C25.9398 28.2349 26.0098 28.2699 26.0915 28.3049C26.1848 28.3399 26.2781 28.3515 26.3831 28.3515C26.5815 28.3515 26.7331 28.2816 26.8615 28.1532L27.7481 27.2782C28.0398 26.9866 28.3198 26.7649 28.5881 26.6249C28.8565 26.4615 29.1248 26.3799 29.4165 26.3799C29.6381 26.3799 29.8715 26.4265 30.1281 26.5315C30.3848 26.6365 30.6531 26.7882 30.9448 26.9866L34.8065 29.7282C35.1098 29.9382 35.3198 30.1832 35.4481 30.4749C35.5648 30.7665 35.6348 31.0582 35.6348 31.3849Z" fill="white"/>
</svg>
