<svg width="36" height="36" viewBox="0 0 36 36" fill="none" xmlns="http://www.w3.org/2000/svg">
<path fill-rule="evenodd" clip-rule="evenodd" d="M7.99786 0.701483C8.93262 0.16622 10.0387 0.197565 10.9409 0.63766C15.3584 2.79267 20.6485 2.79492 25.0679 0.643701C25.9802 0.199617 27.1 0.173746 28.0391 0.725309L34.9718 4.79694C35.6012 5.17689 35.9976 5.87307 36 6.60979L36 6.61275C36.0032 18.521 29.4599 29.7614 19.1485 35.6931C18.4449 36.0975 17.5556 36.0977 16.852 35.6932C6.5078 29.7428 -0.0414493 18.4513 0.000197457 6.50545C0.00257866 5.76873 0.399006 5.07261 1.02838 4.69267L1.04814 4.68074L7.99786 0.701483ZM15.3752 11.6246C15.3752 10.8092 15.3752 10.4015 15.5085 10.0799C15.6861 9.65114 16.0267 9.31046 16.4555 9.13284C16.7771 8.99963 17.1848 8.99963 18.0002 8.99963C18.8156 8.99963 19.2233 8.99963 19.5449 9.13284C19.9737 9.31046 20.3144 9.65114 20.492 10.0799C20.6252 10.4015 20.6252 10.8092 20.6252 11.6246V13.2906C20.6252 13.3302 20.6252 13.35 20.6375 13.3623C20.6498 13.3746 20.6696 13.3746 20.7092 13.3746H22.3752C23.1906 13.3746 23.5983 13.3746 23.9199 13.5078C24.3487 13.6855 24.6894 14.0261 24.867 14.4549C25.0002 14.7765 25.0002 15.1842 25.0002 15.9996C25.0002 16.815 25.0002 17.2227 24.867 17.5443C24.6894 17.9731 24.3487 18.3138 23.9199 18.4914C23.5983 18.6246 23.1906 18.6246 22.3752 18.6246H20.7092C20.6696 18.6246 20.6498 18.6246 20.6375 18.6369C20.6252 18.6492 20.6252 18.669 20.6252 18.7086V20.3746C20.6252 21.19 20.6252 21.5977 20.492 21.9193C20.3144 22.3481 19.9737 22.6888 19.5449 22.8664C19.2233 22.9996 18.8156 22.9996 18.0002 22.9996C17.1848 22.9996 16.7771 22.9996 16.4555 22.8664C16.0267 22.6888 15.6861 22.3481 15.5085 21.9193C15.3752 21.5977 15.3752 21.19 15.3752 20.3746V18.7086C15.3752 18.669 15.3752 18.6492 15.3629 18.6369C15.3506 18.6246 15.3308 18.6246 15.2912 18.6246H13.6252C12.8098 18.6246 12.4021 18.6246 12.0805 18.4914C11.6517 18.3138 11.3111 17.9731 11.1335 17.5443C11.0002 17.2227 11.0002 16.815 11.0002 15.9996C11.0002 15.1842 11.0002 14.7765 11.1335 14.4549C11.3111 14.0261 11.6517 13.6855 12.0805 13.5078C12.4021 13.3746 12.8098 13.3746 13.6252 13.3746H15.2912C15.3308 13.3746 15.3506 13.3746 15.3629 13.3623C15.3752 13.35 15.3752 13.3302 15.3752 13.2906V11.6246Z" fill="#4CAEFF"/>
</svg>
