<svg width="48" height="48" viewBox="0 0 48 48" fill="none" xmlns="http://www.w3.org/2000/svg">
<path d="M24.0002 9.30078C14.4402 9.30078 6.66016 17.0808 6.66016 26.6408C6.66016 36.2008 14.4402 44.0008 24.0002 44.0008C33.5602 44.0008 41.3402 36.2208 41.3402 26.6608C41.3402 17.1008 33.5602 9.30078 24.0002 9.30078ZM25.5002 26.0008C25.5002 26.8208 24.8202 27.5008 24.0002 27.5008C23.1802 27.5008 22.5002 26.8208 22.5002 26.0008V16.0008C22.5002 15.1808 23.1802 14.5008 24.0002 14.5008C24.8202 14.5008 25.5002 15.1808 25.5002 16.0008V26.0008Z" fill="#4CAEFF"/>
<path d="M29.7803 6.9H18.2203C17.4203 6.9 16.7803 6.26 16.7803 5.46C16.7803 4.66 17.4203 4 18.2203 4H29.7803C30.5803 4 31.2203 4.64 31.2203 5.44C31.2203 6.24 30.5803 6.9 29.7803 6.9Z" fill="#4CAEFF"/>
</svg>
