<svg width="60" height="60" viewBox="0 0 60 60" fill="none" xmlns="http://www.w3.org/2000/svg">
<path d="M16.2701 7.9822C16.2701 10.2649 16.072 13.5398 16.072 15.0784C16.072 16.617 14 18.4673 14 25.6842C14 32.9011 16.5739 34.3827 18.4616 34.319C20.3494 34.2554 20.5781 35.7001 22.6126 36.0856C24.176 36.3839 24.4798 35.633 25.4834 35.633C26.4871 35.633 27.0093 37.0911 28.7025 37.0911C30.3956 37.0911 31.7782 35.7973 31.7782 35.7973C31.7782 35.7973 31.7782 45.1729 31.7782 48.5048C31.7782 51.8367 31.4948 55.9999 35.1713 55.9999C38.8477 55.9999 38.4074 51.5585 38.4074 49.1986C38.4074 46.8388 38.4689 32.5425 38.4689 32.5425C38.4689 32.5425 40.0698 38.3716 44.6885 38.3716C49.3071 38.3716 48.4195 35.214 46.1017 32.6832C42.019 28.2184 44.313 17.6829 34.7958 14.0862C34.7958 14.0862 33.7683 13.7778 34.9699 7.13078C34.9699 7.13078 34.4544 4 26.3949 4C17.7277 4.00335 16.2701 7.9822 16.2701 7.9822Z" fill="url(#paint0_linear_54_23793)"/>
<path d="M46.9075 37.9763C46.3853 38.2243 45.665 38.3718 44.6852 38.3718C40.5753 38.3718 38.8582 33.7628 38.5305 32.7471L38.3564 28.1716V24.0117C39.6946 31.8522 44.0572 37.4701 46.9075 37.9763Z" fill="url(#paint1_radial_54_23793)"/>
<path d="M44.6851 38.3749C40.0666 38.3749 38.4655 32.5457 38.4655 32.5457L38.2471 23.8506C38.2471 23.8506 39.4794 27.9401 39.6296 31.1144C39.8174 35.1201 42.7052 38.2978 45.7843 38.3045C45.4566 38.3481 45.0948 38.3749 44.6851 38.3749Z" fill="url(#paint2_radial_54_23793)"/>
<path d="M31.7778 48.5078C31.7778 45.176 31.7778 35.8003 31.7778 35.8003C31.7778 35.8003 30.8049 36.7088 29.4941 37.0037C30.1427 36.7892 31.3887 35.3076 31.9178 34.5031C32.4845 33.6382 32.8497 35.3679 32.8497 37.6506C32.8497 39.9334 33.0375 48.7425 33.0375 52.299C33.0375 54.4275 33.8806 55.9996 35.1744 55.9996C31.4945 55.9996 31.7778 51.8364 31.7778 48.5078Z" fill="url(#paint3_linear_54_23793)"/>
<path d="M22.8623 36.1296C23.801 36.1262 24.1151 34.9697 25.4635 34.9697C26.8153 34.9697 27.638 37.0983 28.703 37.0983C27.0099 37.0983 26.491 35.6401 25.484 35.6401C24.535 35.6368 24.2106 36.3038 22.8623 36.1296Z" fill="url(#paint4_linear_54_23793)"/>
<path d="M17.1234 10.5258C17.4546 16.0297 21.6943 12.1045 17.1713 18.0209C14.5871 21.3997 15.2392 27.735 15.5225 30.2323C15.8058 32.7295 17.9735 33.239 19.4789 33.6078C20.7862 33.9296 21.2812 35.5888 22.3361 36.0213C20.5507 35.562 20.2537 34.2581 18.4582 34.3184C16.5739 34.3821 14 32.9005 14 25.6836C14 18.4667 16.072 16.6164 16.072 15.0778C16.072 13.5393 16.2701 10.2643 16.2701 7.98153C16.2701 7.98153 16.7718 6.61394 18.9361 5.48096C18.5401 6.78825 17.004 8.53464 17.1234 10.5258Z" fill="url(#paint5_radial_54_23793)"/>
<path d="M34.7918 14.0899C39.762 15.967 41.5098 19.738 42.6294 23.5492C40.3833 17.5659 34.4607 15.6151 33.6141 14.3681C32.8324 13.215 32.2486 9.70205 34.3104 6.0752C34.8873 6.65844 34.9658 7.13777 34.9658 7.13777C33.7643 13.7815 34.7918 14.0899 34.7918 14.0899Z" fill="url(#paint6_radial_54_23793)"/>
<path d="M25.8521 4.00928C26.5246 8.11214 23.4557 11.9201 23.4557 18.1984C23.4557 25.0901 18.8815 28.707 21.4075 35.6591C20.3698 35.0926 19.8885 34.2747 18.4582 34.3216C16.5773 34.382 14 32.9004 14 25.6835C14 18.4665 16.072 16.6163 16.072 15.0777C16.072 13.5391 16.2701 10.2642 16.2701 7.98145C16.2701 7.98145 17.6697 4.17017 25.8521 4.00928Z" fill="url(#paint7_radial_54_23793)"/>
<path d="M21.869 9.49704C23.8489 9.49704 24.9788 8.8501 26.5798 8.8501C28.1807 8.8501 33.3626 9.80208 33.3626 13.1977C33.3626 16.5933 30.5361 23.485 27.4263 24.3566C24.3165 25.2247 18.7898 21.0548 18.3188 18.276C17.8477 15.4971 18.7592 9.49704 21.869 9.49704Z" fill="url(#paint8_radial_54_23793)"/>
<path d="M38.2158 23.6196C38.2158 23.6196 38.4684 32.4824 38.4684 32.5461L38.6562 33.1126C38.7859 33.1126 38.8303 32.7271 38.8303 32.5997C38.8303 32.3383 39.0352 26.1538 38.2158 23.6196Z" fill="#975500"/>
<path d="M35.5198 53.2414C34.4173 53.2414 33.4717 50.6872 34.1817 45.6592C34.8918 40.6311 32.4544 34.4399 35.1682 34.4399C37.882 34.4399 36.5439 44.4222 36.5439 45.9709C36.5439 47.5162 37.725 53.2414 35.5198 53.2414Z" fill="url(#paint9_radial_54_23793)"/>
<defs>
<linearGradient id="paint0_linear_54_23793" x1="19.8392" y1="9.4372" x2="40.676" y2="51.4153" gradientUnits="userSpaceOnUse">
<stop offset="0.00132565" stop-color="#FFCB4B"/>
<stop offset="1" stop-color="#FFD748"/>
</linearGradient>
<radialGradient id="paint1_radial_54_23793" cx="0" cy="0" r="1" gradientUnits="userSpaceOnUse" gradientTransform="translate(46.2379 44.9119) scale(37.6621 36.9825)">
<stop stop-color="#FFBC47" stop-opacity="0"/>
<stop offset="1" stop-color="#FF8900"/>
</radialGradient>
<radialGradient id="paint2_radial_54_23793" cx="0" cy="0" r="1" gradientUnits="userSpaceOnUse" gradientTransform="translate(40.2292 45.6089) rotate(-93.0517) scale(22.4191 4.80957)">
<stop stop-color="#FFBC47" stop-opacity="0"/>
<stop offset="1" stop-color="#FF8900"/>
</radialGradient>
<linearGradient id="paint3_linear_54_23793" x1="28.0103" y1="46.5649" x2="38.7901" y2="43.7566" gradientUnits="userSpaceOnUse">
<stop stop-color="#FFBC47" stop-opacity="0"/>
<stop offset="1" stop-color="#E68E43"/>
</linearGradient>
<linearGradient id="paint4_linear_54_23793" x1="25.7838" y1="38.0865" x2="25.7838" y2="31.4245" gradientUnits="userSpaceOnUse">
<stop stop-color="#FFBC47" stop-opacity="0"/>
<stop offset="1" stop-color="#E68E43"/>
</linearGradient>
<radialGradient id="paint5_radial_54_23793" cx="0" cy="0" r="1" gradientUnits="userSpaceOnUse" gradientTransform="translate(18.447 17.6877) scale(22.54 22.1332)">
<stop stop-color="#FFBC47" stop-opacity="0"/>
<stop offset="1" stop-color="#FF8900"/>
</radialGradient>
<radialGradient id="paint6_radial_54_23793" cx="0" cy="0" r="1" gradientUnits="userSpaceOnUse" gradientTransform="translate(35.1868 14.6614) scale(23.4203 22.9977)">
<stop stop-color="#FFBC47" stop-opacity="0"/>
<stop offset="1" stop-color="#FF8900"/>
</radialGradient>
<radialGradient id="paint7_radial_54_23793" cx="0" cy="0" r="1" gradientUnits="userSpaceOnUse" gradientTransform="translate(24.8686 12.2489) scale(19.5421 78.903)">
<stop stop-color="#FFBC47" stop-opacity="0"/>
<stop offset="1" stop-color="#FF8900"/>
</radialGradient>
<radialGradient id="paint8_radial_54_23793" cx="0" cy="0" r="1" gradientUnits="userSpaceOnUse" gradientTransform="translate(25.8258 12.5627) rotate(180) scale(8.06528 4.01981)">
<stop stop-color="#FBE07A"/>
<stop offset="0.2654" stop-color="#FCDF73" stop-opacity="0.7346"/>
<stop offset="0.6548" stop-color="#FDDB5F" stop-opacity="0.3452"/>
<stop offset="1" stop-color="#FFD748" stop-opacity="0"/>
</radialGradient>
<radialGradient id="paint9_radial_54_23793" cx="0" cy="0" r="1" gradientUnits="userSpaceOnUse" gradientTransform="translate(35.3667 43.8405) rotate(-88.3826) scale(9.71235 1.15389)">
<stop stop-color="#FBE07A"/>
<stop offset="0.2654" stop-color="#FCDF73" stop-opacity="0.7346"/>
<stop offset="0.6548" stop-color="#FDDB5F" stop-opacity="0.3452"/>
<stop offset="1" stop-color="#FFD748" stop-opacity="0"/>
</radialGradient>
</defs>
</svg>
