<svg width="60" height="60" viewBox="0 0 60 60" fill="none" xmlns="http://www.w3.org/2000/svg">
    <path d="M30 47.3217C41.0457 47.3217 50 38.7431 50 28.1609C50 17.5786 41.0457 9 30 9C18.9543 9 10 17.5786 10 28.1609C10 38.7431 18.9543 47.3217 30 47.3217Z" fill="url(#paint0_radial_212_302)"/>
    <g style="mix-blend-mode:soft-light">
        <path d="M30 47.3217C41.0457 47.3217 50 38.7431 50 28.1609C50 17.5786 41.0457 9 30 9C18.9543 9 10 17.5786 10 28.1609C10 38.7431 18.9543 47.3217 30 47.3217Z" fill="url(#paint1_radial_212_302)"/>
    </g>
    <g style="mix-blend-mode:soft-light">
        <path d="M30 47.3217C41.0457 47.3217 50 38.7431 50 28.1609C50 17.5786 41.0457 9 30 9C18.9543 9 10 17.5786 10 28.1609C10 38.7431 18.9543 47.3217 30 47.3217Z" fill="url(#paint2_radial_212_302)"/>
    </g>
    <g style="mix-blend-mode:overlay">
        <path d="M30 47.3217C41.0457 47.3217 50 38.7431 50 28.1609C50 17.5786 41.0457 9 30 9C18.9543 9 10 17.5786 10 28.1609C10 38.7431 18.9543 47.3217 30 47.3217Z" fill="url(#paint3_radial_212_302)" fill-opacity="0.7"/>
    </g>
    <mask id="mask0_212_302" style="mask-type:alpha" maskUnits="userSpaceOnUse" x="10" y="9" width="40" height="39">
        <path d="M30 47.3217C41.0457 47.3217 50 38.7431 50 28.1609C50 17.5786 41.0457 9 30 9C18.9543 9 10 17.5786 10 28.1609C10 38.7431 18.9543 47.3217 30 47.3217Z" fill="white"/>
    </mask>
    <g mask="url(#mask0_212_302)">
        <g filter="url(#filter0_f_212_302)">
            <path d="M9.88602 27.6147C9.90773 27.3425 10.0013 27.3152 10.0285 27.5916C10.0588 27.8988 9.99992 28.5162 10.0141 28.8887C10.0517 29.8749 10.2095 30.7324 10.3721 31.4299C10.8963 33.6775 11.6223 35.1259 12.2994 36.353C14.5251 40.3866 16.9631 42.4292 19.3415 43.9686C22.8278 46.2251 26.3425 46.9428 29.86 47.0951C29.9487 47.0989 29.9635 47.6526 29.8762 47.7247C29.7188 47.8546 29.5238 47.7256 29.3628 47.7202C28.9001 47.7047 28.4374 47.6743 27.9747 47.6282C26.6029 47.4916 25.2311 47.2135 23.8621 46.766C20.1398 45.5493 16.1264 43.466 12.6213 37.5982C12.4008 37.2291 12.1821 36.8404 11.9664 36.4228C11.794 36.0888 11.6232 35.7387 11.4554 35.3643C10.9036 34.1327 9.61756 30.98 9.88602 27.6147ZM29.8624 47.7306C29.7778 47.7331 29.7564 47.217 29.837 47.1098C29.959 46.9478 30.1418 47.0812 30.2703 47.0735C30.8043 47.0415 31.3381 46.9941 31.8717 46.9299C33.335 46.7539 34.7972 46.4533 36.2561 45.9904C39.8746 44.8424 43.7649 43.0922 47.1761 37.7149C47.3932 37.3727 47.6084 37.0096 47.8207 36.6193C48.466 35.4333 50.0832 32.285 49.8962 28.3712C49.8804 28.0413 49.9853 27.8437 50.0322 28.1267C50.092 28.4871 50.0677 29.2384 50.0513 29.6381C49.9986 30.9184 49.7933 32.0012 49.5769 32.8756C48.8911 35.6467 47.9283 37.2535 47.0466 38.5951C44.1807 42.9557 41.0681 44.7136 38.0419 45.9768C35.3276 47.1098 32.5927 47.6499 29.8624 47.7306Z" fill="#401C02"/>
        </g>
        <g filter="url(#filter1_f_212_302)">
            <path d="M9.88602 27.6147C9.90773 27.3425 10.0013 27.3152 10.0285 27.5916C10.0588 27.8988 9.99992 28.5162 10.0141 28.8887C10.0517 29.8749 10.2095 30.7324 10.3721 31.4299C10.8963 33.6775 11.6223 35.1259 12.2994 36.353C14.5251 40.3866 16.9631 42.4292 19.3415 43.9686C22.8278 46.2251 26.3425 46.9428 29.86 47.0951C29.9487 47.0989 29.9635 47.6526 29.8762 47.7247C29.7188 47.8546 29.5238 47.7256 29.3628 47.7202C28.9001 47.7047 28.4374 47.6743 27.9747 47.6282C26.6029 47.4916 25.2311 47.2135 23.8621 46.766C20.1398 45.5493 16.1264 43.466 12.6213 37.5982C12.4008 37.2291 12.1821 36.8404 11.9664 36.4228C11.794 36.0888 11.6232 35.7387 11.4554 35.3643C10.9036 34.1327 9.61756 30.98 9.88602 27.6147ZM29.8624 47.7306C29.7778 47.7331 29.7564 47.217 29.837 47.1098C29.959 46.9478 30.1418 47.0812 30.2703 47.0735C30.8043 47.0415 31.3381 46.9941 31.8717 46.9299C33.335 46.7539 34.7972 46.4533 36.2561 45.9904C39.8746 44.8424 43.7649 43.0922 47.1761 37.7149C47.3932 37.3727 47.6084 37.0096 47.8207 36.6193C48.466 35.4333 50.0832 32.285 49.8962 28.3712C49.8804 28.0413 49.9853 27.8437 50.0322 28.1267C50.092 28.4871 50.0677 29.2384 50.0513 29.6381C49.9986 30.9184 49.7933 32.0012 49.5769 32.8756C48.8911 35.6467 47.9283 37.2535 47.0466 38.5951C44.1807 42.9557 41.0681 44.7136 38.0419 45.9768C35.3276 47.1098 32.5927 47.6499 29.8624 47.7306Z" fill="#401C02"/>
        </g>
    </g>
    <mask id="mask1_212_302" style="mask-type:alpha" maskUnits="userSpaceOnUse" x="10" y="9" width="40" height="39">
        <path d="M30 47.3217C41.0457 47.3217 50 38.7431 50 28.1609C50 17.5786 41.0457 9 30 9C18.9543 9 10 17.5786 10 28.1609C10 38.7431 18.9543 47.3217 30 47.3217Z" fill="url(#paint4_radial_212_302)"/>
    </mask>
    <g mask="url(#mask1_212_302)">
        <g filter="url(#filter2_f_212_302)">
            <path d="M30.5611 42.7719C30.5942 42.7242 30.6357 42.6845 30.6772 42.6448C30.8845 42.4541 31.1581 42.327 31.4484 42.3111C31.5479 42.3032 31.6474 42.3111 31.7469 42.327L33.6376 42.6448C33.1815 42.5653 32.8332 42.2555 32.6923 41.8662C32.6259 41.6835 32.6093 41.4928 32.6508 41.2942C32.7337 40.8572 33.0571 40.5236 33.4635 40.3885C33.6542 40.3249 33.8532 40.309 34.0688 40.3408L40.5951 41.4451C40.7443 41.469 40.819 41.2862 40.7029 41.2068L39.4839 40.3885C38.8453 39.9595 38.7044 39.0697 39.1853 38.4103C39.6663 37.7509 40.5868 37.5602 41.2253 37.9892L44.136 39.9357C46.1925 40.9843 47.4198 43.2247 46.9969 45.5446L46.7979 46.6171C46.2921 49.3421 43.6716 51.225 40.8356 50.9787C40.7609 50.9787 40.6946 50.9708 40.6199 50.9628L33.4386 49.7473C32.7752 49.6361 32.2942 49.0164 32.402 48.3887C32.4684 48.0153 32.7171 47.7214 33.0405 47.5546C33.2727 47.4354 33.5381 47.3877 33.8118 47.4354L32.5347 47.205C32.1864 47.1494 31.9045 46.9508 31.722 46.6886C31.5645 46.4503 31.4898 46.1563 31.5396 45.8544C31.5976 45.5525 31.7718 45.2983 32.0123 45.1235C32.2693 44.9328 32.6093 44.8454 32.9493 44.901L31.324 44.623C30.6606 44.5118 30.2128 43.9 30.3372 43.2645C30.362 43.0817 30.445 42.9149 30.5611 42.7719Z" fill="#A43C00"/>
            <mask id="mask2_212_302" style="mask-type:alpha" maskUnits="userSpaceOnUse" x="30" y="37" width="18" height="15">
                <path d="M30.5611 42.7719C30.5942 42.7242 30.6357 42.6845 30.6772 42.6448C30.8845 42.4541 31.1581 42.327 31.4484 42.3111C31.5479 42.3032 31.6474 42.3111 31.7469 42.327L33.6376 42.6448C33.1815 42.5653 32.8332 42.2555 32.6923 41.8662C32.6259 41.6835 32.6093 41.4928 32.6508 41.2942C32.7337 40.8572 33.0571 40.5236 33.4635 40.3885C33.6542 40.3249 33.8532 40.309 34.0688 40.3408L40.5951 41.4451C40.7443 41.469 40.819 41.2862 40.7029 41.2068L39.4839 40.3885C38.8453 39.9595 38.7044 39.0697 39.1853 38.4103C39.6663 37.7509 40.5868 37.5602 41.2253 37.9892L44.136 39.9357C46.1925 40.9843 47.4198 43.2247 46.9969 45.5446L46.7979 46.6171C46.2921 49.3421 43.6716 51.225 40.8356 50.9787C40.7609 50.9787 40.6946 50.9708 40.6199 50.9628L33.4386 49.7473C32.7752 49.6361 32.2942 49.0164 32.402 48.3887C32.4684 48.0153 32.7171 47.7214 33.0405 47.5546C33.2727 47.4354 33.5381 47.3877 33.8118 47.4354L32.5347 47.205C32.1864 47.1494 31.9045 46.9508 31.722 46.6886C31.5645 46.4503 31.4898 46.1563 31.5396 45.8544C31.5976 45.5525 31.7718 45.2983 32.0123 45.1235C32.2693 44.9328 32.6093 44.8454 32.9493 44.901L31.324 44.623C30.6606 44.5118 30.2128 43.9 30.3372 43.2645C30.362 43.0817 30.445 42.9149 30.5611 42.7719Z" fill="url(#paint5_radial_212_302)"/>
            </mask>
            <g mask="url(#mask2_212_302)">
                <g style="mix-blend-mode:color-burn" filter="url(#filter3_f_212_302)">
                    <path d="M44.6543 40.3073C43.908 39.8386 43.1699 39.3699 42.4319 38.8932L41.329 38.1702C41.2378 38.1067 41.1548 38.059 41.0553 38.0113C40.9558 37.9716 40.8563 37.9398 40.7568 37.9239C40.5495 37.8922 40.3339 37.908 40.1349 37.9637C39.7285 38.0749 39.3885 38.3688 39.2061 38.7343C39.0237 39.0997 39.0071 39.5367 39.1812 39.9101C39.2641 40.0928 39.3968 40.2597 39.571 40.3788C39.7451 40.5059 39.9192 40.641 40.0934 40.7761C40.4417 41.0462 40.7817 41.3163 41.1217 41.5944C40.7485 41.356 40.3836 41.1177 40.0188 40.8635C39.8363 40.7363 39.6622 40.6172 39.4797 40.4901C39.289 40.355 39.1397 40.1723 39.0402 39.9737C38.8412 39.5605 38.8578 39.0759 39.0651 38.6707C39.2641 38.2656 39.6456 37.9478 40.1017 37.8207C40.3256 37.7571 40.5661 37.7412 40.7983 37.7809C40.9144 37.8048 41.0305 37.8365 41.13 37.8842C41.2378 37.9319 41.3373 37.9954 41.4285 38.059L42.5148 38.7978C43.2197 39.2984 43.9411 39.7989 44.6543 40.3073Z" fill="#A43C00"/>
                    <path d="M41.3637 41.6424C40.6008 41.5312 39.8379 41.412 39.0833 41.2929L36.8028 40.9274C36.0399 40.8082 35.2853 40.6811 34.5224 40.554L34.2404 40.5063C34.1409 40.4905 34.058 40.4746 33.9668 40.4746C33.7843 40.4746 33.6019 40.5063 33.4443 40.5858C33.2868 40.6652 33.1375 40.7685 33.0297 40.9115C32.9219 41.0466 32.8473 41.2134 32.8141 41.3803C32.7809 41.5471 32.7975 41.7219 32.8473 41.8887C32.897 42.0555 32.9965 42.2065 33.1209 42.3336C33.2453 42.4607 33.4029 42.5561 33.5687 42.6117C33.6517 42.6434 33.7429 42.6514 33.8424 42.6752L34.1243 42.7229C34.879 42.858 35.6419 42.9771 36.3965 43.1201L38.6687 43.5253C39.4233 43.6683 40.1862 43.8034 40.9408 43.9464C40.1779 43.8351 39.415 43.716 38.6604 43.5968L36.3799 43.2314C35.617 43.1122 34.8624 42.9851 34.0995 42.858L33.8175 42.8103C33.7263 42.7944 33.6185 42.7785 33.5273 42.7467C33.3365 42.6832 33.1541 42.5799 33.0131 42.4369C32.8722 42.2939 32.7561 42.127 32.698 41.9364C32.64 41.7457 32.6234 41.5471 32.6566 41.3485C32.6897 41.1578 32.7809 40.9671 32.9053 40.8162C33.0297 40.6573 33.1956 40.5381 33.378 40.4507C33.5604 40.3633 33.7678 40.3236 33.9751 40.3316C34.0746 40.3316 34.1824 40.3554 34.2736 40.3633L34.5556 40.411C35.3102 40.5461 36.0731 40.6652 36.8277 40.8082L39.0999 41.2134C39.8462 41.3644 40.6091 41.4994 41.3637 41.6424Z" fill="#A43C00"/>
                    <path d="M38.6177 45.932C38.2694 45.8843 37.9211 45.8287 37.5811 45.781C37.2328 45.7254 36.8845 45.6777 36.5446 45.6221L34.4714 45.2964L33.4348 45.1216L33.1778 45.0819L33.0451 45.0581C33.0036 45.0501 32.9622 45.0501 32.9207 45.0422C32.7549 45.0263 32.589 45.0501 32.4397 45.1057C32.1329 45.217 31.8758 45.4553 31.768 45.7492C31.71 45.9002 31.6851 46.0511 31.7017 46.21C31.71 46.3689 31.7597 46.5199 31.8427 46.6549C32.0002 46.933 32.2822 47.1396 32.6056 47.2031L33.6422 47.3779L34.6787 47.5527L35.7153 47.7354L37.7801 48.1088C38.4684 48.2359 39.1567 48.363 39.845 48.4901C39.1484 48.3869 38.4601 48.2836 37.7636 48.1724L35.6904 47.8466L34.6539 47.6798L33.6007 47.5368L32.5641 47.362C32.1993 47.2905 31.8675 47.0601 31.6851 46.7503C31.5027 46.4404 31.4695 46.0511 31.6022 45.7095C31.7349 45.3758 32.0251 45.0978 32.3734 44.9786C32.5475 44.9151 32.7383 44.8912 32.9207 44.9071C32.9705 44.9071 33.0119 44.9151 33.0617 44.923L33.1944 44.9468L33.4514 44.9945L34.488 45.1772L36.5528 45.5506C36.9011 45.6142 37.2411 45.6777 37.5894 45.7413C37.9294 45.7969 38.2777 45.8684 38.6177 45.932Z" fill="#A43C00"/>
                    <path d="M39.041 43.6276C38.2781 43.5164 37.5152 43.3972 36.7605 43.2781L34.4801 42.9126C33.7172 42.7935 32.9625 42.6663 32.1996 42.5392L31.9177 42.4916C31.8182 42.4757 31.7352 42.4598 31.644 42.4598C31.4616 42.4598 31.2792 42.4916 31.1216 42.571C30.964 42.6505 30.8148 42.7537 30.707 42.8967C30.5992 43.0318 30.5245 43.1986 30.4914 43.3655C30.4582 43.5403 30.4748 43.715 30.5245 43.8819C30.5743 44.0487 30.6738 44.1997 30.7982 44.3268C30.9226 44.4539 31.0801 44.5492 31.246 44.6048C31.3289 44.6366 31.4201 44.6446 31.5196 44.6684L31.8016 44.7161C32.5562 44.8511 33.3191 44.9703 34.0737 45.1133L36.3459 45.5185C37.1005 45.6615 37.8634 45.7965 38.6181 45.9395C37.8552 45.8283 37.0922 45.7091 36.3376 45.59L34.0572 45.2245C33.2942 45.1053 32.5396 44.9782 31.7767 44.8511L31.4948 44.8035C31.4035 44.7876 31.2957 44.7717 31.2045 44.7399C31.0138 44.6763 30.8314 44.5731 30.6904 44.4301C30.5494 44.287 30.4333 44.1202 30.3753 43.9295C30.3172 43.7389 30.3006 43.5403 30.3338 43.3416C30.367 43.151 30.4582 42.9603 30.5826 42.8093C30.707 42.6505 30.8728 42.5313 31.0553 42.4439C31.2377 42.3565 31.445 42.3168 31.6523 42.3247C31.7518 42.3247 31.8596 42.3486 31.9508 42.3565L32.2328 42.4042C32.9874 42.5392 33.7503 42.6584 34.505 42.8014L36.7771 43.2066C37.5317 43.3496 38.2864 43.4846 39.041 43.6276Z" fill="#A43C00"/>
                </g>
            </g>
            <path d="M29.4199 42.7709C29.3867 42.7232 29.3453 42.6835 29.3038 42.6438C29.0965 42.4531 28.8228 42.326 28.5326 42.3101C28.4331 42.3022 28.3336 42.3101 28.2341 42.326L26.3433 42.6438C26.7994 42.5643 27.1477 42.2545 27.2887 41.8652C27.355 41.6825 27.3716 41.4918 27.3302 41.2932C27.2472 40.8563 26.9238 40.5226 26.5175 40.3875C26.3268 40.324 26.1277 40.3081 25.9121 40.3399L19.3859 41.4442C19.2366 41.468 19.162 41.2853 19.2781 41.2058L20.4971 40.3875C21.1356 39.9585 21.2766 39.0687 20.7956 38.4093C20.3147 37.7499 19.3942 37.5592 18.7557 37.9882L15.845 39.9347C13.7884 40.9834 12.5611 43.2238 12.984 45.5436L13.1831 46.6161C13.6889 49.3411 16.3093 51.224 19.1454 50.9777C19.22 50.9777 19.2864 50.9698 19.361 50.9618L26.5424 49.7463C27.2058 49.6351 27.6867 49.0154 27.5789 48.3878C27.5126 48.0144 27.2638 47.7204 26.9404 47.5536C26.7082 47.4344 26.4429 47.3867 26.1692 47.4344L27.4463 47.204C27.7945 47.1484 28.0765 46.9498 28.2589 46.6876C28.4165 46.4493 28.4911 46.1553 28.4414 45.8534C28.3833 45.5515 28.2092 45.2973 27.9687 45.1225C27.7116 44.9319 27.3716 44.8445 27.0316 44.9001L28.657 44.622C29.3204 44.5108 29.7682 43.899 29.6438 43.2635C29.6189 43.0807 29.536 42.9139 29.4199 42.7709Z" fill="#A43C00"/>
            <mask id="mask3_212_302" style="mask-type:alpha" maskUnits="userSpaceOnUse" x="12" y="37" width="18" height="14">
                <path d="M29.4199 42.7709C29.3867 42.7232 29.3453 42.6835 29.3038 42.6438C29.0965 42.4531 28.8228 42.326 28.5326 42.3101C28.4331 42.3022 28.3336 42.3101 28.2341 42.326L26.3433 42.6438C26.7994 42.5643 27.1477 42.2545 27.2887 41.8652C27.355 41.6825 27.3716 41.4918 27.3302 41.2932C27.2472 40.8563 26.9238 40.5226 26.5175 40.3875C26.3268 40.324 26.1277 40.3081 25.9121 40.3399L19.3859 41.4442C19.2366 41.468 19.162 41.2853 19.2781 41.2058L20.4971 40.3875C21.1356 39.9585 21.2766 39.0687 20.7956 38.4093C20.3147 37.7499 19.3942 37.5592 18.7557 37.9882L15.845 39.9347C13.7884 40.9834 12.5611 43.2238 12.984 45.5436L13.1831 46.6161C13.6889 49.3411 16.3093 51.224 19.1454 50.9777C19.22 50.9777 19.2864 50.9698 19.361 50.9618L26.5424 49.7463C27.2058 49.6351 27.6867 49.0154 27.5789 48.3878C27.5126 48.0144 27.2638 47.7204 26.9404 47.5536C26.7082 47.4344 26.4429 47.3867 26.1692 47.4344L27.4463 47.204C27.7945 47.1484 28.0765 46.9498 28.2589 46.6876C28.4165 46.4493 28.4911 46.1553 28.4414 45.8534C28.3833 45.5515 28.2092 45.2973 27.9687 45.1225C27.7116 44.9319 27.3716 44.8445 27.0316 44.9001L28.657 44.622C29.3204 44.5108 29.7682 43.899 29.6438 43.2635C29.6189 43.0807 29.536 42.9139 29.4199 42.7709Z" fill="url(#paint6_radial_212_302)"/>
            </mask>
            <g mask="url(#mask3_212_302)">
                <g style="mix-blend-mode:color-burn" filter="url(#filter4_f_212_302)">
                    <path d="M15.3262 40.3064C16.0725 39.8376 16.8105 39.3689 17.5486 38.8922L18.6515 38.1692C18.7427 38.1057 18.8256 38.058 18.9251 38.0104C19.0247 37.9706 19.1242 37.9389 19.2237 37.923C19.431 37.8912 19.6466 37.9071 19.8456 37.9627C20.252 38.0739 20.5919 38.3679 20.7744 38.7333C20.9568 39.0988 20.9734 39.5357 20.7993 39.9091C20.7163 40.0918 20.5837 40.2587 20.4095 40.3779C20.2354 40.505 20.0612 40.64 19.8871 40.7751C19.5388 41.0452 19.1988 41.3153 18.8588 41.5934C19.232 41.355 19.5968 41.1167 19.9617 40.8625C20.1441 40.7354 20.3183 40.6162 20.5007 40.4891C20.6915 40.354 20.8407 40.1713 20.9402 39.9727C21.1393 39.5596 21.1227 39.0749 20.9154 38.6698C20.7163 38.2646 20.3349 37.9468 19.8788 37.8197C19.6549 37.7561 19.4144 37.7402 19.1822 37.78C19.0661 37.8038 18.95 37.8356 18.8505 37.8832C18.7427 37.9309 18.6432 37.9945 18.552 38.058L17.4657 38.7969C16.7608 39.2974 16.0393 39.7979 15.3262 40.3064Z" fill="#A43C00"/>
                    <path d="M18.6172 41.641C19.3801 41.5297 20.143 41.4106 20.8977 41.2914L23.1781 40.9259C23.941 40.8068 24.6957 40.6797 25.4586 40.5525L25.7405 40.5049C25.84 40.489 25.923 40.4731 26.0142 40.4731C26.1966 40.4731 26.3791 40.5049 26.5366 40.5843C26.6942 40.6638 26.8434 40.767 26.9512 40.9101C27.059 41.0451 27.1337 41.2119 27.1668 41.3788C27.2 41.5456 27.1834 41.7204 27.1337 41.8872C27.0839 42.0541 26.9844 42.205 26.86 42.3321C26.7356 42.4593 26.5781 42.5546 26.4122 42.6102C26.3293 42.642 26.2381 42.6499 26.1386 42.6738L25.8566 42.7214C25.102 42.8565 24.3391 42.9757 23.5845 43.1187L21.3123 43.5238C20.5577 43.6668 19.7948 43.8019 19.0401 43.9449C19.803 43.8337 20.566 43.7145 21.3206 43.5953L23.601 43.2299C24.364 43.1107 25.1186 42.9836 25.8815 42.8565L26.1634 42.8088C26.2547 42.7929 26.3625 42.777 26.4537 42.7453C26.6444 42.6817 26.8268 42.5784 26.9678 42.4354C27.1088 42.2924 27.2249 42.1256 27.2829 41.9349C27.341 41.7442 27.3576 41.5456 27.3244 41.347C27.2912 41.1563 27.2 40.9657 27.0756 40.8147C26.9512 40.6558 26.7854 40.5367 26.6029 40.4493C26.4205 40.3619 26.2132 40.3222 26.0059 40.3301C25.9064 40.3301 25.7986 40.3539 25.7074 40.3619L25.4254 40.4095C24.6708 40.5446 23.9079 40.6638 23.1532 40.8068L20.8811 41.2119C20.1348 41.3629 19.3718 41.498 18.6172 41.641Z" fill="#A43C00"/>
                    <path d="M21.3623 45.931C21.7106 45.8833 22.0589 45.8277 22.3989 45.78C22.7471 45.7244 23.0954 45.6768 23.4354 45.6212L25.5086 45.2954L26.5451 45.1206L26.8022 45.0809L26.9349 45.0571C26.9763 45.0491 27.0178 45.0491 27.0593 45.0412C27.2251 45.0253 27.391 45.0491 27.5402 45.1047C27.8471 45.216 28.1041 45.4543 28.2119 45.7483C28.27 45.8992 28.2949 46.0502 28.2783 46.2091C28.27 46.3679 28.2202 46.5189 28.1373 46.654C27.9797 46.932 27.6978 47.1386 27.3744 47.2021L26.3378 47.3769L25.3013 47.5517L24.2647 47.7344L22.1998 48.1078C21.5116 48.2349 20.8233 48.3621 20.135 48.4892C20.8316 48.3859 21.5198 48.2826 22.2164 48.1714L24.2896 47.8456L25.3261 47.6788L26.3793 47.5358L27.4159 47.361C27.7807 47.2895 28.1124 47.0591 28.2949 46.7493C28.4773 46.4394 28.5105 46.0502 28.3778 45.7085C28.2451 45.3749 27.9549 45.0968 27.6066 44.9776C27.4324 44.9141 27.2417 44.8902 27.0593 44.9061C27.0095 44.9061 26.9681 44.9141 26.9183 44.922L26.7856 44.9459L26.5286 44.9935L25.492 45.1763L23.4271 45.5496C23.0788 45.6132 22.7389 45.6768 22.3906 45.7403C22.0506 45.7959 21.7023 45.8674 21.3623 45.931Z" fill="#A43C00"/>
                    <path d="M20.939 43.6272C21.7019 43.5159 22.4648 43.3968 23.2194 43.2776L25.4999 42.9121C26.2628 42.793 27.0174 42.6659 27.7804 42.5387L28.0623 42.4911C28.1618 42.4752 28.2447 42.4593 28.336 42.4593C28.5184 42.4593 28.7008 42.4911 28.8584 42.5705C29.0159 42.65 29.1652 42.7532 29.273 42.8962C29.3808 43.0313 29.4555 43.1981 29.4886 43.365C29.5218 43.5398 29.5052 43.7145 29.4555 43.8814C29.4057 44.0482 29.3062 44.1992 29.1818 44.3263C29.0574 44.4534 28.8998 44.5487 28.734 44.6043C28.6511 44.6361 28.5599 44.6441 28.4603 44.6679L28.1784 44.7156C27.4238 44.8506 26.6609 44.9698 25.9062 45.1128L23.6341 45.518C22.8794 45.661 22.1165 45.796 21.3619 45.939C22.1248 45.8278 22.8877 45.7087 23.6424 45.5895L25.9228 45.224C26.6857 45.1049 27.4404 44.9777 28.2033 44.8506L28.4852 44.803C28.5764 44.7871 28.6842 44.7712 28.7755 44.7394C28.9662 44.6758 29.1486 44.5726 29.2896 44.4296C29.4306 44.2866 29.5467 44.1197 29.6047 43.9291C29.6628 43.7384 29.6794 43.5398 29.6462 43.3411C29.613 43.1505 29.5218 42.9598 29.3974 42.8089C29.273 42.65 29.1072 42.5308 28.9247 42.4434C28.7423 42.356 28.535 42.3163 28.3277 42.3242C28.2282 42.3242 28.1203 42.3481 28.0291 42.356L27.7472 42.4037C26.9926 42.5387 26.2296 42.6579 25.475 42.8009L23.2029 43.2061C22.4482 43.3491 21.6936 43.4842 20.939 43.6272Z" fill="#A43C00"/>
                </g>
            </g>
        </g>
    </g>
    <path d="M30.5611 42.7719C30.5942 42.7242 30.6357 42.6845 30.6772 42.6448C30.8845 42.4541 31.1581 42.327 31.4484 42.3111C31.5479 42.3032 31.6474 42.3111 31.7469 42.327L33.6376 42.6448C33.1815 42.5653 32.8332 42.2555 32.6923 41.8662C32.6259 41.6835 32.6093 41.4928 32.6508 41.2942C32.7337 40.8572 33.0571 40.5236 33.4635 40.3885C33.6542 40.3249 33.8532 40.309 34.0688 40.3408L40.5951 41.4451C40.7443 41.469 40.819 41.2862 40.7029 41.2068L39.4839 40.3885C38.8453 39.9595 38.7044 39.0697 39.1853 38.4103C39.6663 37.7509 40.5868 37.5602 41.2253 37.9892L44.136 39.9357C46.1925 40.9843 47.4198 43.2247 46.9969 45.5446L46.7979 46.6171C46.2921 49.3421 43.6716 51.225 40.8356 50.9787C40.7609 50.9787 40.6946 50.9708 40.6199 50.9628L33.4386 49.7473C32.7752 49.6361 32.2942 49.0164 32.402 48.3887C32.4684 48.0153 32.7171 47.7214 33.0405 47.5546C33.2727 47.4354 33.5381 47.3877 33.8118 47.4354L32.5347 47.205C32.1864 47.1494 31.9045 46.9508 31.722 46.6886C31.5645 46.4503 31.4898 46.1563 31.5396 45.8544C31.5976 45.5525 31.7718 45.2983 32.0123 45.1235C32.2693 44.9328 32.6093 44.8454 32.9493 44.901L31.324 44.623C30.6606 44.5118 30.2128 43.9 30.3372 43.2645C30.362 43.0817 30.445 42.9149 30.5611 42.7719Z" fill="url(#paint7_radial_212_302)"/>
    <g style="mix-blend-mode:color-burn">
        <mask id="mask4_212_302" style="mask-type:alpha" maskUnits="userSpaceOnUse" x="30" y="37" width="18" height="15">
            <path d="M30.5611 42.7719C30.5942 42.7242 30.6357 42.6845 30.6772 42.6448C30.8845 42.4541 31.1581 42.327 31.4484 42.3111C31.5479 42.3032 31.6474 42.3111 31.7469 42.327L33.6376 42.6448C33.1815 42.5653 32.8332 42.2555 32.6923 41.8662C32.6259 41.6835 32.6093 41.4928 32.6508 41.2942C32.7337 40.8572 33.0571 40.5236 33.4635 40.3885C33.6542 40.3249 33.8532 40.309 34.0688 40.3408L40.5951 41.4451C40.7443 41.469 40.819 41.2862 40.7029 41.2068L39.4839 40.3885C38.8453 39.9595 38.7044 39.0697 39.1853 38.4103C39.6663 37.7509 40.5868 37.5602 41.2253 37.9892L44.136 39.9357C46.1925 40.9843 47.4198 43.2247 46.9969 45.5446L46.7979 46.6171C46.2921 49.3421 43.6716 51.225 40.8356 50.9787C40.7609 50.9787 40.6946 50.9708 40.6199 50.9628L33.4386 49.7473C32.7752 49.6361 32.2942 49.0164 32.402 48.3887C32.4684 48.0153 32.7171 47.7214 33.0405 47.5546C33.2727 47.4354 33.5381 47.3877 33.8118 47.4354L32.5347 47.205C32.1864 47.1494 31.9045 46.9508 31.722 46.6886C31.5645 46.4503 31.4898 46.1563 31.5396 45.8544C31.5976 45.5525 31.7718 45.2983 32.0123 45.1235C32.2693 44.9328 32.6093 44.8454 32.9493 44.901L31.324 44.623C30.6606 44.5118 30.2128 43.9 30.3372 43.2645C30.362 43.0817 30.445 42.9149 30.5611 42.7719Z" fill="url(#paint8_radial_212_302)"/>
        </mask>
        <g mask="url(#mask4_212_302)">
            <g style="mix-blend-mode:color-burn" filter="url(#filter5_f_212_302)">
                <path d="M44.6543 40.3073C43.908 39.8386 43.1699 39.3699 42.4319 38.8932L41.329 38.1702C41.2378 38.1067 41.1548 38.059 41.0553 38.0113C40.9558 37.9716 40.8563 37.9398 40.7568 37.9239C40.5495 37.8922 40.3339 37.908 40.1349 37.9637C39.7285 38.0749 39.3885 38.3688 39.2061 38.7343C39.0237 39.0997 39.0071 39.5367 39.1812 39.9101C39.2641 40.0928 39.3968 40.2597 39.571 40.3788C39.7451 40.5059 39.9192 40.641 40.0934 40.7761C40.4417 41.0462 40.7817 41.3163 41.1217 41.5944C40.7485 41.356 40.3836 41.1177 40.0188 40.8635C39.8363 40.7363 39.6622 40.6172 39.4797 40.4901C39.289 40.355 39.1397 40.1723 39.0402 39.9737C38.8412 39.5605 38.8578 39.0759 39.0651 38.6707C39.2641 38.2656 39.6456 37.9478 40.1017 37.8207C40.3256 37.7571 40.5661 37.7412 40.7983 37.7809C40.9144 37.8048 41.0305 37.8365 41.13 37.8842C41.2378 37.9319 41.3373 37.9954 41.4285 38.059L42.5148 38.7978C43.2197 39.2984 43.9411 39.7989 44.6543 40.3073Z" fill="#633617"/>
                <path d="M41.3637 41.6424C40.6008 41.5312 39.8379 41.412 39.0833 41.2929L36.8028 40.9274C36.0399 40.8082 35.2853 40.6811 34.5224 40.554L34.2404 40.5063C34.1409 40.4905 34.058 40.4746 33.9668 40.4746C33.7843 40.4746 33.6019 40.5063 33.4443 40.5858C33.2868 40.6652 33.1375 40.7685 33.0297 40.9115C32.9219 41.0466 32.8473 41.2134 32.8141 41.3803C32.7809 41.5471 32.7975 41.7219 32.8473 41.8887C32.897 42.0555 32.9965 42.2065 33.1209 42.3336C33.2453 42.4607 33.4029 42.5561 33.5687 42.6117C33.6517 42.6434 33.7429 42.6514 33.8424 42.6752L34.1243 42.7229C34.879 42.858 35.6419 42.9771 36.3965 43.1201L38.6687 43.5253C39.4233 43.6683 40.1862 43.8034 40.9408 43.9464C40.1779 43.8351 39.415 43.716 38.6604 43.5968L36.3799 43.2314C35.617 43.1122 34.8624 42.9851 34.0995 42.858L33.8175 42.8103C33.7263 42.7944 33.6185 42.7785 33.5273 42.7467C33.3365 42.6832 33.1541 42.5799 33.0131 42.4369C32.8722 42.2939 32.7561 42.127 32.698 41.9364C32.64 41.7457 32.6234 41.5471 32.6566 41.3485C32.6897 41.1578 32.7809 40.9671 32.9053 40.8162C33.0297 40.6573 33.1956 40.5381 33.378 40.4507C33.5604 40.3633 33.7678 40.3236 33.9751 40.3316C34.0746 40.3316 34.1824 40.3554 34.2736 40.3633L34.5556 40.411C35.3102 40.5461 36.0731 40.6652 36.8277 40.8082L39.0999 41.2134C39.8462 41.3644 40.6091 41.4994 41.3637 41.6424Z" fill="#42210B"/>
                <path d="M38.6177 45.932C38.2694 45.8843 37.9211 45.8287 37.5811 45.781C37.2328 45.7254 36.8845 45.6777 36.5446 45.6221L34.4714 45.2964L33.4348 45.1216L33.1778 45.0819L33.0451 45.0581C33.0036 45.0501 32.9622 45.0501 32.9207 45.0422C32.7549 45.0263 32.589 45.0501 32.4397 45.1057C32.1329 45.217 31.8758 45.4553 31.768 45.7492C31.71 45.9002 31.6851 46.0511 31.7017 46.21C31.71 46.3689 31.7597 46.5199 31.8427 46.6549C32.0002 46.933 32.2822 47.1396 32.6056 47.2031L33.6422 47.3779L34.6787 47.5527L35.7153 47.7354L37.7801 48.1088C38.4684 48.2359 39.1567 48.363 39.845 48.4901C39.1484 48.3869 38.4601 48.2836 37.7636 48.1724L35.6904 47.8466L34.6539 47.6798L33.6007 47.5368L32.5641 47.362C32.1993 47.2905 31.8675 47.0601 31.6851 46.7503C31.5027 46.4404 31.4695 46.0511 31.6022 45.7095C31.7349 45.3758 32.0251 45.0978 32.3734 44.9786C32.5475 44.9151 32.7383 44.8912 32.9207 44.9071C32.9705 44.9071 33.0119 44.9151 33.0617 44.923L33.1944 44.9468L33.4514 44.9945L34.488 45.1772L36.5528 45.5506C36.9011 45.6142 37.2411 45.6777 37.5894 45.7413C37.9294 45.7969 38.2777 45.8684 38.6177 45.932Z" fill="#42210B"/>
                <path d="M37.8719 48.1881C37.2416 48.1087 36.6197 48.0213 35.9894 47.918L35.0524 47.775L34.1153 47.624L33.8831 47.5843C33.8085 47.5684 33.7339 47.5684 33.6592 47.5684C33.51 47.5684 33.3607 47.6002 33.228 47.6638C32.9544 47.775 32.7305 47.9974 32.6227 48.2596C32.5149 48.5218 32.5149 48.8237 32.631 49.0859C32.7471 49.348 32.971 49.5625 33.2446 49.6738C33.3109 49.6976 33.3856 49.7214 33.4602 49.7373C33.5348 49.7532 33.6178 49.7611 33.6924 49.777L34.1568 49.8565L35.0938 50.0154C35.7158 50.1187 36.3377 50.2378 36.9597 50.3491C38.2036 50.5715 39.4474 50.794 40.6913 51.0323C39.4392 50.8496 38.187 50.6509 36.9348 50.4523C36.3129 50.3491 35.6826 50.2537 35.0607 50.1504L34.1236 49.9995L33.6592 49.92C33.5763 49.9042 33.5017 49.8962 33.427 49.8803C33.3441 49.8644 33.2612 49.8406 33.1866 49.8088C32.8714 49.6817 32.6227 49.4434 32.49 49.1415C32.3573 48.8475 32.349 48.498 32.4817 48.1961C32.6061 47.8942 32.8631 47.6479 33.17 47.5208C33.3275 47.4572 33.4934 47.4175 33.6592 47.4175C33.7422 47.4175 33.8251 47.4254 33.908 47.4334L34.1402 47.4731L35.0773 47.6399L36.006 47.8147C36.628 47.9339 37.2499 48.0531 37.8719 48.1881Z" fill="#42210B"/>
                <path d="M39.041 43.6276C38.2781 43.5164 37.5152 43.3972 36.7605 43.2781L34.4801 42.9126C33.7172 42.7935 32.9625 42.6663 32.1996 42.5392L31.9177 42.4916C31.8182 42.4757 31.7352 42.4598 31.644 42.4598C31.4616 42.4598 31.2792 42.4916 31.1216 42.571C30.964 42.6505 30.8148 42.7537 30.707 42.8967C30.5992 43.0318 30.5245 43.1986 30.4914 43.3655C30.4582 43.5403 30.4748 43.715 30.5245 43.8819C30.5743 44.0487 30.6738 44.1997 30.7982 44.3268C30.9226 44.4539 31.0801 44.5492 31.246 44.6048C31.3289 44.6366 31.4201 44.6446 31.5196 44.6684L31.8016 44.7161C32.5562 44.8511 33.3191 44.9703 34.0737 45.1133L36.3459 45.5185C37.1005 45.6615 37.8634 45.7965 38.6181 45.9395C37.8552 45.8283 37.0922 45.7091 36.3376 45.59L34.0572 45.2245C33.2942 45.1053 32.5396 44.9782 31.7767 44.8511L31.4948 44.8035C31.4035 44.7876 31.2957 44.7717 31.2045 44.7399C31.0138 44.6763 30.8314 44.5731 30.6904 44.4301C30.5494 44.287 30.4333 44.1202 30.3753 43.9295C30.3172 43.7389 30.3006 43.5403 30.3338 43.3416C30.367 43.151 30.4582 42.9603 30.5826 42.8093C30.707 42.6505 30.8728 42.5313 31.0553 42.4439C31.2377 42.3565 31.445 42.3168 31.6523 42.3247C31.7518 42.3247 31.8596 42.3486 31.9508 42.3565L32.2328 42.4042C32.9874 42.5392 33.7503 42.6584 34.505 42.8014L36.7771 43.2066C37.5317 43.3496 38.2864 43.4846 39.041 43.6276Z" fill="#42210B"/>
            </g>
        </g>
    </g>
    <path d="M29.4199 42.7709C29.3867 42.7232 29.3453 42.6835 29.3038 42.6438C29.0965 42.4531 28.8228 42.326 28.5326 42.3101C28.4331 42.3022 28.3336 42.3101 28.2341 42.326L26.3433 42.6438C26.7994 42.5643 27.1477 42.2545 27.2887 41.8652C27.355 41.6825 27.3716 41.4918 27.3302 41.2932C27.2472 40.8563 26.9238 40.5226 26.5175 40.3875C26.3268 40.324 26.1277 40.3081 25.9121 40.3399L19.3859 41.4442C19.2366 41.468 19.162 41.2853 19.2781 41.2058L20.4971 40.3875C21.1356 39.9585 21.2766 39.0687 20.7956 38.4093C20.3147 37.7499 19.3942 37.5592 18.7557 37.9882L15.845 39.9347C13.7884 40.9834 12.5611 43.2238 12.984 45.5436L13.1831 46.6161C13.6889 49.3411 16.3093 51.224 19.1454 50.9777C19.22 50.9777 19.2864 50.9698 19.361 50.9618L26.5424 49.7463C27.2058 49.6351 27.6867 49.0154 27.5789 48.3878C27.5126 48.0144 27.2638 47.7204 26.9404 47.5536C26.7082 47.4344 26.4429 47.3867 26.1692 47.4344L27.4463 47.204C27.7945 47.1484 28.0765 46.9498 28.2589 46.6876C28.4165 46.4493 28.4911 46.1553 28.4414 45.8534C28.3833 45.5515 28.2092 45.2973 27.9687 45.1225C27.7116 44.9319 27.3716 44.8445 27.0316 44.9001L28.657 44.622C29.3204 44.5108 29.7682 43.899 29.6438 43.2635C29.6189 43.0807 29.536 42.9139 29.4199 42.7709Z" fill="url(#paint9_radial_212_302)"/>
    <g style="mix-blend-mode:color-burn">
        <mask id="mask5_212_302" style="mask-type:alpha" maskUnits="userSpaceOnUse" x="12" y="37" width="18" height="14">
            <path d="M29.4199 42.7709C29.3867 42.7232 29.3453 42.6835 29.3038 42.6438C29.0965 42.4531 28.8228 42.326 28.5326 42.3101C28.4331 42.3022 28.3336 42.3101 28.2341 42.326L26.3433 42.6438C26.7994 42.5643 27.1477 42.2545 27.2887 41.8652C27.355 41.6825 27.3716 41.4918 27.3302 41.2932C27.2472 40.8563 26.9238 40.5226 26.5175 40.3875C26.3268 40.324 26.1277 40.3081 25.9121 40.3399L19.3859 41.4442C19.2366 41.468 19.162 41.2853 19.2781 41.2058L20.4971 40.3875C21.1356 39.9585 21.2766 39.0687 20.7956 38.4093C20.3147 37.7499 19.3942 37.5592 18.7557 37.9882L15.845 39.9347C13.7884 40.9834 12.5611 43.2238 12.984 45.5436L13.1831 46.6161C13.6889 49.3411 16.3093 51.224 19.1454 50.9777C19.22 50.9777 19.2864 50.9698 19.361 50.9618L26.5424 49.7463C27.2058 49.6351 27.6867 49.0154 27.5789 48.3878C27.5126 48.0144 27.2638 47.7204 26.9404 47.5536C26.7082 47.4344 26.4429 47.3867 26.1692 47.4344L27.4463 47.204C27.7945 47.1484 28.0765 46.9498 28.2589 46.6876C28.4165 46.4493 28.4911 46.1553 28.4414 45.8534C28.3833 45.5515 28.2092 45.2973 27.9687 45.1225C27.7116 44.9319 27.3716 44.8445 27.0316 44.9001L28.657 44.622C29.3204 44.5108 29.7682 43.899 29.6438 43.2635C29.6189 43.0807 29.536 42.9139 29.4199 42.7709Z" fill="url(#paint10_radial_212_302)"/>
        </mask>
        <g mask="url(#mask5_212_302)">
            <g style="mix-blend-mode:color-burn" filter="url(#filter6_f_212_302)">
                <path d="M15.3262 40.3064C16.0725 39.8376 16.8105 39.3689 17.5486 38.8922L18.6515 38.1692C18.7427 38.1057 18.8256 38.058 18.9251 38.0104C19.0247 37.9706 19.1242 37.9389 19.2237 37.923C19.431 37.8912 19.6466 37.9071 19.8456 37.9627C20.252 38.0739 20.5919 38.3679 20.7744 38.7333C20.9568 39.0988 20.9734 39.5357 20.7993 39.9091C20.7163 40.0918 20.5837 40.2587 20.4095 40.3779C20.2354 40.505 20.0612 40.64 19.8871 40.7751C19.5388 41.0452 19.1988 41.3153 18.8588 41.5934C19.232 41.355 19.5968 41.1167 19.9617 40.8625C20.1441 40.7354 20.3183 40.6162 20.5007 40.4891C20.6915 40.354 20.8407 40.1713 20.9402 39.9727C21.1393 39.5596 21.1227 39.0749 20.9154 38.6698C20.7163 38.2646 20.3349 37.9468 19.8788 37.8197C19.6549 37.7561 19.4144 37.7402 19.1822 37.78C19.0661 37.8038 18.95 37.8356 18.8505 37.8832C18.7427 37.9309 18.6432 37.9945 18.552 38.058L17.4657 38.7969C16.7608 39.2974 16.0393 39.7979 15.3262 40.3064Z" fill="#633617"/>
                <path d="M18.6172 41.641C19.3801 41.5297 20.143 41.4106 20.8977 41.2914L23.1781 40.9259C23.941 40.8068 24.6957 40.6797 25.4586 40.5525L25.7405 40.5049C25.84 40.489 25.923 40.4731 26.0142 40.4731C26.1966 40.4731 26.3791 40.5049 26.5366 40.5843C26.6942 40.6638 26.8434 40.767 26.9512 40.9101C27.059 41.0451 27.1337 41.2119 27.1668 41.3788C27.2 41.5456 27.1834 41.7204 27.1337 41.8872C27.0839 42.0541 26.9844 42.205 26.86 42.3321C26.7356 42.4593 26.5781 42.5546 26.4122 42.6102C26.3293 42.642 26.2381 42.6499 26.1386 42.6738L25.8566 42.7214C25.102 42.8565 24.3391 42.9757 23.5845 43.1187L21.3123 43.5238C20.5577 43.6668 19.7948 43.8019 19.0401 43.9449C19.803 43.8337 20.566 43.7145 21.3206 43.5953L23.601 43.2299C24.364 43.1107 25.1186 42.9836 25.8815 42.8565L26.1634 42.8088C26.2547 42.7929 26.3625 42.777 26.4537 42.7453C26.6444 42.6817 26.8268 42.5784 26.9678 42.4354C27.1088 42.2924 27.2249 42.1256 27.2829 41.9349C27.341 41.7442 27.3576 41.5456 27.3244 41.347C27.2912 41.1563 27.2 40.9657 27.0756 40.8147C26.9512 40.6558 26.7854 40.5367 26.6029 40.4493C26.4205 40.3619 26.2132 40.3222 26.0059 40.3301C25.9064 40.3301 25.7986 40.3539 25.7074 40.3619L25.4254 40.4095C24.6708 40.5446 23.9079 40.6638 23.1532 40.8068L20.8811 41.2119C20.1348 41.3629 19.3718 41.498 18.6172 41.641Z" fill="#42210B"/>
                <path d="M21.3623 45.931C21.7106 45.8833 22.0589 45.8277 22.3989 45.78C22.7471 45.7244 23.0954 45.6768 23.4354 45.6212L25.5086 45.2954L26.5451 45.1206L26.8022 45.0809L26.9349 45.0571C26.9763 45.0491 27.0178 45.0491 27.0593 45.0412C27.2251 45.0253 27.391 45.0491 27.5402 45.1047C27.8471 45.216 28.1041 45.4543 28.2119 45.7483C28.27 45.8992 28.2949 46.0502 28.2783 46.2091C28.27 46.3679 28.2202 46.5189 28.1373 46.654C27.9797 46.932 27.6978 47.1386 27.3744 47.2021L26.3378 47.3769L25.3013 47.5517L24.2647 47.7344L22.1998 48.1078C21.5116 48.2349 20.8233 48.3621 20.135 48.4892C20.8316 48.3859 21.5198 48.2826 22.2164 48.1714L24.2896 47.8456L25.3261 47.6788L26.3793 47.5358L27.4159 47.361C27.7807 47.2895 28.1124 47.0591 28.2949 46.7493C28.4773 46.4394 28.5105 46.0502 28.3778 45.7085C28.2451 45.3749 27.9549 45.0968 27.6066 44.9776C27.4324 44.9141 27.2417 44.8902 27.0593 44.9061C27.0095 44.9061 26.9681 44.9141 26.9183 44.922L26.7856 44.9459L26.5286 44.9935L25.492 45.1763L23.4271 45.5496C23.0788 45.6132 22.7389 45.6768 22.3906 45.7403C22.0506 45.7959 21.7023 45.8674 21.3623 45.931Z" fill="#42210B"/>
                <path d="M22.1081 48.1876C22.7384 48.1082 23.3603 48.0208 23.9905 47.9175L24.9276 47.7745L25.8647 47.6236L26.0968 47.5838C26.1715 47.5679 26.2461 47.5679 26.3207 47.5679C26.47 47.5679 26.6193 47.5997 26.752 47.6633C27.0256 47.7745 27.2495 47.997 27.3573 48.2591C27.4651 48.5213 27.4651 48.8232 27.349 49.0854C27.2329 49.3475 27.009 49.562 26.7354 49.6733C26.669 49.6971 26.5944 49.7209 26.5198 49.7368C26.4451 49.7527 26.3622 49.7607 26.2876 49.7765L25.8232 49.856L24.8861 50.0149C24.2642 50.1182 23.6422 50.2373 23.0203 50.3486C21.7764 50.571 20.5325 50.7935 19.2887 51.0318C20.5408 50.8491 21.793 50.6505 23.0452 50.4518C23.6671 50.3486 24.2974 50.2532 24.9193 50.1499L25.8564 49.999L26.3207 49.9196C26.4037 49.9037 26.4783 49.8957 26.5529 49.8798C26.6359 49.8639 26.7188 49.8401 26.7934 49.8083C27.1085 49.6812 27.3573 49.4429 27.49 49.141C27.6227 48.847 27.631 48.4975 27.4983 48.1956C27.3739 47.8937 27.1168 47.6474 26.81 47.5203C26.6524 47.4567 26.4866 47.417 26.3207 47.417C26.2378 47.417 26.1549 47.4249 26.072 47.4329L25.8398 47.4726L24.9027 47.6394L23.9739 47.8142C23.352 47.9334 22.7301 48.0526 22.1081 48.1876Z" fill="#42210B"/>
                <path d="M20.939 43.6272C21.7019 43.5159 22.4648 43.3968 23.2194 43.2776L25.4999 42.9121C26.2628 42.793 27.0174 42.6659 27.7804 42.5387L28.0623 42.4911C28.1618 42.4752 28.2447 42.4593 28.336 42.4593C28.5184 42.4593 28.7008 42.4911 28.8584 42.5705C29.0159 42.65 29.1652 42.7532 29.273 42.8962C29.3808 43.0313 29.4555 43.1981 29.4886 43.365C29.5218 43.5398 29.5052 43.7145 29.4555 43.8814C29.4057 44.0482 29.3062 44.1992 29.1818 44.3263C29.0574 44.4534 28.8998 44.5487 28.734 44.6043C28.6511 44.6361 28.5599 44.6441 28.4603 44.6679L28.1784 44.7156C27.4238 44.8506 26.6609 44.9698 25.9062 45.1128L23.6341 45.518C22.8794 45.661 22.1165 45.796 21.3619 45.939C22.1248 45.8278 22.8877 45.7087 23.6424 45.5895L25.9228 45.224C26.6857 45.1049 27.4404 44.9777 28.2033 44.8506L28.4852 44.803C28.5764 44.7871 28.6842 44.7712 28.7755 44.7394C28.9662 44.6758 29.1486 44.5726 29.2896 44.4296C29.4306 44.2866 29.5467 44.1197 29.6047 43.9291C29.6628 43.7384 29.6794 43.5398 29.6462 43.3411C29.613 43.1505 29.5218 42.9598 29.3974 42.8089C29.273 42.65 29.1072 42.5308 28.9247 42.4434C28.7423 42.356 28.535 42.3163 28.3277 42.3242C28.2282 42.3242 28.1203 42.3481 28.0291 42.356L27.7472 42.4037C26.9926 42.5387 26.2296 42.6579 25.475 42.8009L23.2029 43.2061C22.4482 43.3491 21.6936 43.4842 20.939 43.6272Z" fill="#42210B"/>
            </g>
        </g>
    </g>
    <path d="M38.9372 31.3825C35.131 37.7708 24.8706 37.7748 21.0742 31.3762C20.9142 31.1069 21.2102 30.7986 21.4474 30.9853C23.8572 32.8871 26.882 33.9276 30.0041 33.9288C33.1263 33.9299 36.1519 32.8917 38.5632 30.9917C38.8004 30.8042 39.0973 31.1132 38.9372 31.3825Z" fill="url(#paint11_radial_212_302)"/>
    <path fill-rule="evenodd" clip-rule="evenodd" d="M21.1884 31.0771C21.1327 31.1353 21.1085 31.2331 21.1645 31.3273L21.1645 31.3273C24.9211 37.6588 35.0808 37.6551 38.8474 31.3335C38.9032 31.2395 38.879 31.1415 38.823 31.0832C38.7952 31.0541 38.7625 31.0381 38.732 31.0346C38.7034 31.0312 38.6683 31.0377 38.6294 31.0685L38.6293 31.0686C36.1993 32.9832 33.1505 34.0294 30.0043 34.0283C26.8581 34.0271 23.8101 32.9786 21.3817 31.0622C21.3428 31.0316 21.3078 31.0252 21.2793 31.0285C21.2488 31.0321 21.2162 31.0481 21.1884 31.0771ZM21.2542 30.8314C21.3428 30.821 21.4337 30.8461 21.5134 30.9088L21.5135 30.9089C23.9048 32.796 26.9062 33.8285 30.0044 33.8296C33.1024 33.8308 36.1047 32.8006 38.4975 30.9153C38.5771 30.8523 38.6681 30.8271 38.7569 30.8374C38.8437 30.8475 38.9197 30.8904 38.9757 30.9488C39.0875 31.0654 39.1316 31.2566 39.0275 31.4319L39.0275 31.432C35.1815 37.8869 24.8205 37.8912 20.9843 31.4255L21.0744 31.3764L20.9843 31.4255C20.9843 31.4255 20.9843 31.4255 20.9843 31.4255C20.8803 31.2503 20.9241 31.0594 21.0357 30.9428C21.0916 30.8844 21.1675 30.8415 21.2542 30.8314Z" fill="url(#paint12_linear_212_302)"/>
    <path d="M27.1301 24.7517C27.132 25.3162 27.0179 25.8756 26.7942 26.3978C26.7626 26.4629 26.7117 26.5176 26.6478 26.5552C26.584 26.5927 26.51 26.6115 26.4352 26.6092C26.3509 26.6129 26.2677 26.5891 26.1995 26.5416C26.1312 26.4941 26.0818 26.4257 26.0595 26.3478C25.8041 25.1672 24.8107 24.2877 23.624 24.2877C22.4373 24.2877 21.4422 25.1672 21.1868 26.3478C21.1646 26.4258 21.1153 26.4943 21.047 26.5418C20.9787 26.5893 20.8955 26.6131 20.8112 26.6092V26.6092C20.7363 26.6115 20.6623 26.5927 20.5985 26.5552C20.5346 26.5176 20.4837 26.4629 20.4521 26.3978C20.2285 25.8758 20.1144 25.3167 20.1162 24.7525C20.1162 22.6265 21.686 20.9033 23.624 20.9033C25.562 20.9033 27.1301 22.6257 27.1301 24.7517Z" fill="url(#paint13_radial_212_302)"/>
    <path fill-rule="evenodd" clip-rule="evenodd" d="M23.6239 20.9826C21.742 20.9826 20.1991 22.6598 20.1991 24.7524L20.1991 24.7526C20.1973 25.3058 20.309 25.8539 20.5279 26.3657C20.5528 26.416 20.5923 26.4582 20.6418 26.4873C20.6918 26.5168 20.7497 26.5315 20.8083 26.5296L20.8111 26.609L20.8151 26.5297C20.8806 26.5327 20.9451 26.5143 20.9982 26.4774C21.0506 26.4409 21.0886 26.3886 21.1061 26.3289C21.369 25.1191 22.3924 24.2081 23.6239 24.2081C24.8555 24.2081 25.8771 25.1192 26.1401 26.3289C26.1577 26.3885 26.1957 26.4407 26.2481 26.4772C26.3012 26.5141 26.3657 26.5326 26.4312 26.5297L26.4345 26.5295L26.4378 26.5296C26.4964 26.5315 26.5544 26.5168 26.6043 26.4873C26.6538 26.4582 26.6934 26.416 26.7182 26.3657C26.9372 25.8536 27.049 25.3052 27.0471 24.7518L27.0471 24.7516C27.0471 22.6589 25.5058 20.9826 23.6239 20.9826ZM20.8104 26.6885C20.7205 26.6907 20.6317 26.6679 20.555 26.6227C20.4773 26.577 20.4154 26.5104 20.3768 26.4313L20.376 26.4296L20.3753 26.4278C20.1476 25.8962 20.0314 25.3269 20.0332 24.7522C20.0333 22.5929 21.63 20.8237 23.6239 20.8237C25.6179 20.8237 27.2129 22.5922 27.2129 24.7515C27.2129 24.7515 27.2129 24.7515 27.2129 24.7516H27.13L27.2129 24.7513C27.2129 24.7514 27.2129 24.7514 27.2129 24.7515C27.2149 25.3264 27.0987 25.896 26.8709 26.4278L26.8701 26.4296L26.8693 26.4313C26.8308 26.5104 26.7688 26.577 26.6912 26.6227C26.6144 26.6679 26.5256 26.6907 26.4357 26.6885C26.4368 26.6885 26.4379 26.6884 26.439 26.6884L26.4351 26.609L26.4324 26.6884C26.4335 26.6885 26.4346 26.6885 26.4357 26.6885C26.3337 26.6924 26.2333 26.6632 26.1507 26.6057C26.0671 26.5476 26.0068 26.464 25.9795 26.3687L25.9788 26.3662L25.9782 26.3638C25.7294 25.2136 24.7648 24.367 23.6239 24.367C22.483 24.367 21.5167 25.2137 21.2679 26.3638L21.2674 26.3662L21.2667 26.3685C21.2396 26.464 21.1792 26.5478 21.0956 26.6059C21.013 26.6635 20.9125 26.6925 20.8104 26.6885Z" fill="url(#paint14_linear_212_302)"/>
    <path d="M39.932 24.7517C39.934 25.3162 39.8199 25.8756 39.5962 26.3978C39.5644 26.463 39.5133 26.5177 39.4494 26.5553C39.3854 26.5928 39.3113 26.6116 39.2363 26.6092V26.6092C39.152 26.6129 39.0689 26.5891 39.0006 26.5416C38.9323 26.4941 38.883 26.4257 38.8606 26.3478C38.6052 25.1672 37.6118 24.2877 36.4243 24.2877C35.2368 24.2877 34.2433 25.1672 33.9879 26.3478C33.9657 26.4258 33.9164 26.4943 33.8481 26.5418C33.7798 26.5893 33.6966 26.6131 33.6123 26.6092V26.6092C33.5374 26.6115 33.4634 26.5927 33.3996 26.5552C33.3358 26.5176 33.2848 26.4629 33.2532 26.3978C33.0293 25.8759 32.9149 25.3168 32.9165 24.7525C32.9165 22.6265 34.4871 20.9033 36.4243 20.9033C38.3614 20.9033 39.932 22.6257 39.932 24.7517Z" fill="url(#paint15_radial_212_302)"/>
    <path d="M39.932 24.7517C39.934 25.3162 39.8199 25.8756 39.5962 26.3978C39.5644 26.463 39.5133 26.5177 39.4494 26.5553C39.3854 26.5928 39.3113 26.6116 39.2363 26.6092V26.6092C39.152 26.6129 39.0689 26.5891 39.0006 26.5416C38.9323 26.4941 38.883 26.4257 38.8606 26.3478C38.6052 25.1672 37.6118 24.2877 36.4243 24.2877C35.2368 24.2877 34.2433 25.1672 33.9879 26.3478C33.9657 26.4258 33.9164 26.4943 33.8481 26.5418C33.7798 26.5893 33.6966 26.6131 33.6123 26.6092V26.6092C33.5374 26.6115 33.4634 26.5927 33.3996 26.5552C33.3358 26.5176 33.2848 26.4629 33.2532 26.3978C33.0293 25.8759 32.9149 25.3168 32.9165 24.7525C32.9165 22.6265 34.4871 20.9033 36.4243 20.9033C38.3614 20.9033 39.932 22.6257 39.932 24.7517Z" fill="url(#paint16_radial_212_302)"/>
    <path fill-rule="evenodd" clip-rule="evenodd" d="M36.4237 20.9826C34.5426 20.9826 32.9989 22.6598 32.9989 24.7524L32.9989 24.7526C32.9973 25.3058 33.1093 25.8539 33.3286 26.3657C33.3534 26.4159 33.393 26.4582 33.4424 26.4873C33.4924 26.5168 33.5503 26.5315 33.609 26.5296L33.6117 26.609L33.6157 26.5297C33.6812 26.5327 33.7458 26.5143 33.7988 26.4774C33.8512 26.4409 33.8892 26.3886 33.9067 26.3289C34.1696 25.1192 35.1913 24.2081 36.4237 24.2081C37.6561 24.2081 38.6778 25.1191 38.9407 26.3289C38.9583 26.3885 38.9964 26.4407 39.0487 26.4772C39.1018 26.5141 39.1664 26.5326 39.2318 26.5297L39.2357 26.609L39.2385 26.5296C39.2973 26.5315 39.3553 26.5168 39.4054 26.4874C39.455 26.4583 39.4947 26.416 39.5197 26.3657C39.7387 25.8536 39.8504 25.3052 39.8485 24.7518L39.8485 24.7516C39.8485 22.659 38.3049 20.9826 36.4237 20.9826ZM39.2363 26.6885C39.1343 26.6924 39.0339 26.6632 38.9513 26.6057C38.8678 26.5476 38.8074 26.464 38.7801 26.3687L38.7794 26.3662L38.7789 26.3638C38.53 25.2137 37.5654 24.367 36.4237 24.367C35.282 24.367 34.3174 25.2137 34.0685 26.3638L34.068 26.3662L34.0674 26.3685C34.0402 26.464 33.9798 26.5478 33.8963 26.6059C33.8136 26.6635 33.7131 26.6925 33.6111 26.6885C33.5211 26.6907 33.4323 26.6679 33.3556 26.6227C33.2779 26.577 33.216 26.5104 33.1775 26.4313L33.1767 26.4296L33.1759 26.4279C32.9479 25.8963 32.8314 25.3269 32.833 24.7522C32.8331 22.5929 34.4306 20.8237 36.4237 20.8237C38.4168 20.8237 40.0143 22.5921 40.0144 24.7515C40.0144 24.7515 40.0144 24.7515 40.0144 24.7516H39.9315L40.0144 24.7513C40.0144 24.7514 40.0144 24.7514 40.0144 24.7515C40.0163 25.3264 39.9001 25.896 39.6723 26.4278L39.6716 26.4296L39.6707 26.4313C39.632 26.5106 39.5699 26.5772 39.4921 26.6229C39.4152 26.668 39.3263 26.6908 39.2363 26.6885Z" fill="url(#paint17_linear_212_302)"/>
    <defs>
        <filter id="filter0_f_212_302" x="-15.1504" y="2.39697" width="90.2207" height="70.3857" filterUnits="userSpaceOnUse" color-interpolation-filters="sRGB">
            <feFlood flood-opacity="0" result="BackgroundImageFix"/>
            <feBlend mode="normal" in="SourceGraphic" in2="BackgroundImageFix" result="shape"/>
            <feGaussianBlur stdDeviation="12.5" result="effect1_foregroundBlur_212_302"/>
        </filter>
        <filter id="filter1_f_212_302" x="-30.1504" y="-12.603" width="120.221" height="100.386" filterUnits="userSpaceOnUse" color-interpolation-filters="sRGB">
            <feFlood flood-opacity="0" result="BackgroundImageFix"/>
            <feBlend mode="normal" in="SourceGraphic" in2="BackgroundImageFix" result="shape"/>
            <feGaussianBlur stdDeviation="20" result="effect1_foregroundBlur_212_302"/>
        </filter>
        <filter id="filter2_f_212_302" x="-42.0991" y="-17.2412" width="144.179" height="123.242" filterUnits="userSpaceOnUse" color-interpolation-filters="sRGB">
            <feFlood flood-opacity="0" result="BackgroundImageFix"/>
            <feBlend mode="normal" in="SourceGraphic" in2="BackgroundImageFix" result="shape"/>
            <feGaussianBlur stdDeviation="27.5" result="effect1_foregroundBlur_212_302"/>
        </filter>
        <filter id="filter3_f_212_302" x="22.3169" y="29.7593" width="30.3374" height="29.2729" filterUnits="userSpaceOnUse" color-interpolation-filters="sRGB">
            <feFlood flood-opacity="0" result="BackgroundImageFix"/>
            <feBlend mode="normal" in="SourceGraphic" in2="BackgroundImageFix" result="shape"/>
            <feGaussianBlur stdDeviation="4" result="effect1_foregroundBlur_212_302"/>
        </filter>
        <filter id="filter4_f_212_302" x="7.32617" y="29.7583" width="30.3369" height="29.2734" filterUnits="userSpaceOnUse" color-interpolation-filters="sRGB">
            <feFlood flood-opacity="0" result="BackgroundImageFix"/>
            <feBlend mode="normal" in="SourceGraphic" in2="BackgroundImageFix" result="shape"/>
            <feGaussianBlur stdDeviation="4" result="effect1_foregroundBlur_212_302"/>
        </filter>
        <filter id="filter5_f_212_302" x="22.3169" y="29.7593" width="30.3374" height="29.2729" filterUnits="userSpaceOnUse" color-interpolation-filters="sRGB">
            <feFlood flood-opacity="0" result="BackgroundImageFix"/>
            <feBlend mode="normal" in="SourceGraphic" in2="BackgroundImageFix" result="shape"/>
            <feGaussianBlur stdDeviation="4" result="effect1_foregroundBlur_212_302"/>
        </filter>
        <filter id="filter6_f_212_302" x="7.32617" y="29.7583" width="30.3369" height="29.2734" filterUnits="userSpaceOnUse" color-interpolation-filters="sRGB">
            <feFlood flood-opacity="0" result="BackgroundImageFix"/>
            <feBlend mode="normal" in="SourceGraphic" in2="BackgroundImageFix" result="shape"/>
            <feGaussianBlur stdDeviation="4" result="effect1_foregroundBlur_212_302"/>
        </filter>
        <radialGradient id="paint0_radial_212_302" cx="0" cy="0" r="1" gradientUnits="userSpaceOnUse" gradientTransform="translate(29.9851 9) rotate(90) scale(38.2931 39.9701)">
            <stop stop-color="#FFDE43"/>
            <stop offset="1" stop-color="#FFBC00"/>
        </radialGradient>
        <radialGradient id="paint1_radial_212_302" cx="0" cy="0" r="1" gradientUnits="userSpaceOnUse" gradientTransform="translate(29.9851 14.1243) rotate(90) scale(33.1689 34.6214)">
            <stop stop-color="white" stop-opacity="0.5"/>
            <stop offset="0.782278"/>
        </radialGradient>
        <radialGradient id="paint2_radial_212_302" cx="0" cy="0" r="1" gradientUnits="userSpaceOnUse" gradientTransform="translate(29.9851 14.1243) rotate(90) scale(33.1689 34.6214)">
            <stop stop-color="white" stop-opacity="0.5"/>
            <stop offset="0.782278"/>
        </radialGradient>
        <radialGradient id="paint3_radial_212_302" cx="0" cy="0" r="1" gradientUnits="userSpaceOnUse" gradientTransform="translate(29.9851 4.82907) rotate(90) scale(42.4641 59.9415)">
            <stop offset="0.0922635" stop-color="white"/>
            <stop offset="0.670207" stop-color="white" stop-opacity="0"/>
        </radialGradient>
        <radialGradient id="paint4_radial_212_302" cx="0" cy="0" r="1" gradientUnits="userSpaceOnUse" gradientTransform="translate(29.9851 9) rotate(90) scale(38.2931 39.9701)">
            <stop stop-color="#FFDE43"/>
            <stop offset="1" stop-color="#FFBC00"/>
        </radialGradient>
        <radialGradient id="paint5_radial_212_302" cx="0" cy="0" r="1" gradientUnits="userSpaceOnUse" gradientTransform="translate(38.7303 44.0503) rotate(-170.414) scale(7.62668 7.32483)">
            <stop offset="0.0139674" stop-color="#FFDE43"/>
            <stop offset="0.3975" stop-color="#FFDC41"/>
            <stop offset="0.6038" stop-color="#FFD43B"/>
            <stop offset="0.7679" stop-color="#FFC631"/>
            <stop offset="0.9089" stop-color="#FFB323"/>
            <stop offset="1" stop-color="#FFA216"/>
        </radialGradient>
        <radialGradient id="paint6_radial_212_302" cx="0" cy="0" r="1" gradientUnits="userSpaceOnUse" gradientTransform="translate(21.2506 44.0494) rotate(-9.58585) scale(7.62668 7.32483)">
            <stop offset="0.0139674" stop-color="#FFDE43"/>
            <stop offset="0.3975" stop-color="#FFDC41"/>
            <stop offset="0.6038" stop-color="#FFD43B"/>
            <stop offset="0.7679" stop-color="#FFC631"/>
            <stop offset="0.9089" stop-color="#FFB323"/>
            <stop offset="1" stop-color="#FFA216"/>
        </radialGradient>
        <radialGradient id="paint7_radial_212_302" cx="0" cy="0" r="1" gradientUnits="userSpaceOnUse" gradientTransform="translate(38.7303 44.0503) rotate(-170.414) scale(7.62668 7.32483)">
            <stop offset="0.0139674" stop-color="#FFDE43"/>
            <stop offset="0.3975" stop-color="#FFDC41"/>
            <stop offset="0.6038" stop-color="#FFD43B"/>
            <stop offset="0.7679" stop-color="#FFC631"/>
            <stop offset="0.9089" stop-color="#FFB323"/>
            <stop offset="1" stop-color="#FFA216"/>
        </radialGradient>
        <radialGradient id="paint8_radial_212_302" cx="0" cy="0" r="1" gradientUnits="userSpaceOnUse" gradientTransform="translate(38.7303 44.0503) rotate(-170.414) scale(7.62668 7.32483)">
            <stop offset="0.0139674" stop-color="#FFDE43"/>
            <stop offset="0.3975" stop-color="#FFDC41"/>
            <stop offset="0.6038" stop-color="#FFD43B"/>
            <stop offset="0.7679" stop-color="#FFC631"/>
            <stop offset="0.9089" stop-color="#FFB323"/>
            <stop offset="1" stop-color="#FFA216"/>
        </radialGradient>
        <radialGradient id="paint9_radial_212_302" cx="0" cy="0" r="1" gradientUnits="userSpaceOnUse" gradientTransform="translate(21.2506 44.0494) rotate(-9.58585) scale(7.62668 7.32483)">
            <stop offset="0.0139674" stop-color="#FFDE43"/>
            <stop offset="0.3975" stop-color="#FFDC41"/>
            <stop offset="0.6038" stop-color="#FFD43B"/>
            <stop offset="0.7679" stop-color="#FFC631"/>
            <stop offset="0.9089" stop-color="#FFB323"/>
            <stop offset="1" stop-color="#FFA216"/>
        </radialGradient>
        <radialGradient id="paint10_radial_212_302" cx="0" cy="0" r="1" gradientUnits="userSpaceOnUse" gradientTransform="translate(21.2506 44.0494) rotate(-9.58585) scale(7.62668 7.32483)">
            <stop offset="0.0139674" stop-color="#FFDE43"/>
            <stop offset="0.3975" stop-color="#FFDC41"/>
            <stop offset="0.6038" stop-color="#FFD43B"/>
            <stop offset="0.7679" stop-color="#FFC631"/>
            <stop offset="0.9089" stop-color="#FFB323"/>
            <stop offset="1" stop-color="#FFA216"/>
        </radialGradient>
        <radialGradient id="paint11_radial_212_302" cx="0" cy="0" r="1" gradientUnits="userSpaceOnUse" gradientTransform="translate(30.0057 33.5407) scale(6.77597 5.29898)">
            <stop stop-color="#743C1C"/>
            <stop offset="1" stop-color="#401C02"/>
        </radialGradient>
        <linearGradient id="paint12_linear_212_302" x1="30.0059" y1="36.4272" x2="30.0059" y2="30.6539" gradientUnits="userSpaceOnUse">
            <stop offset="0.265625" stop-color="#FFDE43"/>
            <stop offset="1" stop-color="#F79D14"/>
        </linearGradient>
        <radialGradient id="paint13_radial_212_302" cx="0" cy="0" r="1" gradientUnits="userSpaceOnUse" gradientTransform="translate(23.6183 23.7545) scale(4.4705 2.85808)">
            <stop stop-color="#743C1C"/>
            <stop offset="1" stop-color="#401C02"/>
        </radialGradient>
        <linearGradient id="paint14_linear_212_302" x1="23.6231" y1="26.8539" x2="23.6231" y2="20.635" gradientUnits="userSpaceOnUse">
            <stop stop-color="#FFDE43"/>
            <stop offset="0.22" stop-color="#FED93F"/>
            <stop offset="0.51" stop-color="#FCC934"/>
            <stop offset="0.82" stop-color="#F9AF21"/>
            <stop offset="1" stop-color="#F79D14"/>
        </linearGradient>
        <radialGradient id="paint15_radial_212_302" cx="0" cy="0" r="1" gradientUnits="userSpaceOnUse" gradientTransform="translate(2323.84 -3315.59) scale(292.198 209.146)">
            <stop stop-color="#743C1C"/>
            <stop offset="1" stop-color="#401C02"/>
        </radialGradient>
        <radialGradient id="paint16_radial_212_302" cx="0" cy="0" r="1" gradientUnits="userSpaceOnUse" gradientTransform="translate(36.4194 23.7545) scale(4.47156 2.85808)">
            <stop stop-color="#743C1C"/>
            <stop offset="1" stop-color="#401C02"/>
        </radialGradient>
        <linearGradient id="paint17_linear_212_302" x1="36.4237" y1="26.8539" x2="36.4237" y2="20.635" gradientUnits="userSpaceOnUse">
            <stop stop-color="#FFDE43"/>
            <stop offset="0.22" stop-color="#FED93F"/>
            <stop offset="0.51" stop-color="#FCC934"/>
            <stop offset="0.82" stop-color="#F9AF21"/>
            <stop offset="1" stop-color="#F79D14"/>
        </linearGradient>
    </defs>
</svg>
