<svg width="60" height="60" viewBox="0 0 60 60" fill="none" xmlns="http://www.w3.org/2000/svg">
    <path d="M30 49C40.4934 49 49 40.4934 49 30C49 19.5066 40.4934 11 30 11C19.5066 11 11 19.5066 11 30C11 40.4934 19.5066 49 30 49Z" fill="url(#paint0_radial_212_281)"/>
    <g style="mix-blend-mode:soft-light">
        <path d="M30 49C40.4934 49 49 40.4934 49 30C49 19.5066 40.4934 11 30 11C19.5066 11 11 19.5066 11 30C11 40.4934 19.5066 49 30 49Z" fill="url(#paint1_radial_212_281)"/>
    </g>
    <g style="mix-blend-mode:soft-light">
        <path d="M30 49C40.4934 49 49 40.4934 49 30C49 19.5066 40.4934 11 30 11C19.5066 11 11 19.5066 11 30C11 40.4934 19.5066 49 30 49Z" fill="url(#paint2_radial_212_281)"/>
    </g>
    <g style="mix-blend-mode:overlay">
        <path d="M30 49C40.4934 49 49 40.4934 49 30C49 19.5066 40.4934 11 30 11C19.5066 11 11 19.5066 11 30C11 40.4934 19.5066 49 30 49Z" fill="url(#paint3_radial_212_281)" fill-opacity="0.7"/>
    </g>
    <mask id="mask0_212_281" style="mask-type:alpha" maskUnits="userSpaceOnUse" x="11" y="11" width="38" height="38">
        <path d="M30 49C40.4934 49 49 40.4934 49 30C49 19.5066 40.4934 11 30 11C19.5066 11 11 19.5066 11 30C11 40.4934 19.5066 49 30 49Z" fill="white"/>
    </mask>
    <g mask="url(#mask0_212_281)">
        <g filter="url(#filter0_f_212_281)">
            <path d="M10.8915 29.4581C10.9122 29.1881 11.001 29.1611 11.0269 29.4352C11.0557 29.7398 10.9997 30.352 11.0132 30.7214C11.0489 31.6993 11.1988 32.5496 11.3533 33.2412C11.8513 35.47 12.541 36.9062 13.1842 38.123C15.2986 42.1228 17.6148 44.1482 19.8742 45.6747C23.1862 47.9122 26.5252 48.6239 29.8668 48.7749C29.9511 48.7787 29.9651 49.3277 29.8822 49.3992C29.7327 49.5281 29.5474 49.4002 29.3944 49.3948C28.9549 49.3794 28.5153 49.3492 28.0758 49.3036C26.7725 49.1681 25.4694 48.8923 24.1688 48.4486C20.6326 47.2421 16.8199 45.1763 13.4901 39.3578C13.2806 38.9917 13.0728 38.6063 12.8679 38.1922C12.7041 37.861 12.5418 37.5139 12.3824 37.1426C11.8582 35.9214 10.6365 32.7951 10.8915 29.4581ZM29.8691 49.4051C29.7887 49.4076 29.7684 48.8958 29.845 48.7895C29.9608 48.6289 30.1345 48.7611 30.2566 48.7535C30.7638 48.7218 31.271 48.6748 31.778 48.6111C33.168 48.4366 34.5571 48.1385 35.9431 47.6795C39.3807 46.5411 43.0765 44.8056 46.3171 39.4735C46.5233 39.1341 46.7278 38.7741 46.9295 38.3871C47.5425 37.211 49.0788 34.0892 48.9012 30.2083C48.8862 29.8811 48.9858 29.6851 49.0304 29.9658C49.0872 30.3231 49.0641 31.0681 49.0485 31.4645C48.9984 32.7341 48.8035 33.8077 48.5979 34.6748C47.9464 37.4227 47.0317 39.0159 46.1941 40.3462C43.4715 44.6702 40.5145 46.4134 37.6396 47.666C35.061 48.7895 32.4629 49.325 29.8691 49.4051Z" fill="#401C02"/>
        </g>
        <g filter="url(#filter1_f_212_281)">
            <path d="M10.8915 29.4581C10.9122 29.1881 11.001 29.1611 11.0269 29.4352C11.0557 29.7398 10.9997 30.352 11.0132 30.7214C11.0489 31.6993 11.1988 32.5496 11.3533 33.2412C11.8513 35.47 12.541 36.9062 13.1842 38.123C15.2986 42.1228 17.6148 44.1482 19.8742 45.6747C23.1862 47.9122 26.5252 48.6239 29.8668 48.7749C29.9511 48.7787 29.9651 49.3277 29.8822 49.3992C29.7327 49.5281 29.5474 49.4002 29.3944 49.3948C28.9549 49.3794 28.5153 49.3492 28.0758 49.3036C26.7725 49.1681 25.4694 48.8923 24.1688 48.4486C20.6326 47.2421 16.8199 45.1763 13.4901 39.3578C13.2806 38.9917 13.0728 38.6063 12.8679 38.1922C12.7041 37.861 12.5418 37.5139 12.3824 37.1426C11.8582 35.9214 10.6365 32.7951 10.8915 29.4581ZM29.8691 49.4051C29.7887 49.4076 29.7684 48.8958 29.845 48.7895C29.9608 48.6289 30.1345 48.7611 30.2566 48.7535C30.7638 48.7218 31.271 48.6748 31.778 48.6111C33.168 48.4366 34.5571 48.1385 35.9431 47.6795C39.3807 46.5411 43.0765 44.8056 46.3171 39.4735C46.5233 39.1341 46.7278 38.7741 46.9295 38.3871C47.5425 37.211 49.0788 34.0892 48.9012 30.2083C48.8862 29.8811 48.9858 29.6851 49.0304 29.9658C49.0872 30.3231 49.0641 31.0681 49.0485 31.4645C48.9984 32.7341 48.8035 33.8077 48.5979 34.6748C47.9464 37.4227 47.0317 39.0159 46.1941 40.3462C43.4715 44.6702 40.5145 46.4134 37.6396 47.666C35.061 48.7895 32.4629 49.325 29.8691 49.4051Z" fill="#401C02"/>
        </g>
    </g>
    <path d="M40.932 34.4603C36.2612 41.6198 23.6691 41.6238 19.0093 34.4533C18.9682 34.3902 18.9505 34.3148 18.9592 34.2401C18.9679 34.1654 19.0024 34.096 19.0569 34.0441C19.1113 33.9922 19.1822 33.961 19.2573 33.9558C19.3323 33.9507 19.4068 33.972 19.4678 34.016C25.559 38.4072 34.3823 38.4151 40.4728 34.0231C40.5337 33.9786 40.6084 33.9569 40.6837 33.9618C40.7591 33.9667 40.8303 33.9979 40.885 34.0499C40.9397 34.102 40.9744 34.1716 40.983 34.2466C40.9916 34.3216 40.9735 34.3973 40.932 34.4603V34.4603Z" fill="url(#paint4_radial_212_281)"/>
    <path fill-rule="evenodd" clip-rule="evenodd" d="M19.41 34.0957C19.3677 34.0651 19.316 34.0504 19.2638 34.0539C19.2117 34.0575 19.1625 34.0792 19.1247 34.1152C19.0869 34.1513 19.0629 34.1994 19.0568 34.2513C19.0508 34.3032 19.0631 34.3556 19.0917 34.3993L19.0917 34.3994C21.399 37.9498 25.6762 39.7315 29.9664 39.7319C34.2566 39.7323 38.5367 37.9514 40.8494 34.4064L40.9319 34.4602L40.8496 34.4061C40.8784 34.3623 40.8909 34.3097 40.885 34.2577C40.879 34.2056 40.8549 34.1572 40.817 34.1211C40.779 34.0849 40.7295 34.0633 40.6772 34.0599C40.6249 34.0565 40.573 34.0715 40.5307 34.1025L40.5302 34.1028C34.4053 38.5196 25.5356 38.5117 19.4101 34.0958L19.41 34.0957ZM41.0143 34.5142C38.6562 38.1285 34.3048 39.9293 29.9664 39.9289C25.6279 39.9285 21.2792 38.1269 18.9266 34.5068C18.873 34.4245 18.8499 34.3261 18.8612 34.2286C18.8726 34.131 18.9177 34.0405 18.9888 33.9727C19.0598 33.9049 19.1524 33.8641 19.2504 33.8574C19.3484 33.8507 19.4456 33.8785 19.5253 33.936M41.0143 34.5142C41.0684 34.4318 41.0919 34.3331 41.0806 34.2352C41.0694 34.1373 41.0242 34.0464 40.9528 33.9784C40.8813 33.9105 40.7883 33.8697 40.69 33.8633C40.5917 33.8569 40.4943 33.8852 40.4148 33.9433C34.3588 38.3102 25.5821 38.3024 19.5253 33.936" fill="url(#paint5_linear_212_281)"/>
    <path d="M27.2747 27.5028C27.2775 28.1914 27.1698 28.8761 26.9556 29.5306C26.9334 29.6045 26.8883 29.6695 26.8269 29.7164C26.7655 29.7632 26.6909 29.7894 26.6137 29.7913C26.5256 29.7885 26.4413 29.7545 26.3759 29.6953C26.3106 29.6362 26.2684 29.5557 26.2568 29.4683C26.0142 28.0148 25.0704 26.9308 23.9423 26.9308C22.8142 26.9308 21.8704 28.0148 21.6277 29.4683C21.6162 29.5557 21.574 29.6362 21.5086 29.6953C21.4433 29.7545 21.359 29.7885 21.2709 29.7913V29.7913C21.1937 29.7893 21.1191 29.763 21.0578 29.7162C20.9964 29.6694 20.9513 29.6044 20.929 29.5306C20.7148 28.8761 20.607 28.1914 20.6099 27.5028C20.6099 24.8834 22.102 22.7603 23.9423 22.7603C25.7826 22.7603 27.2747 24.8834 27.2747 27.5028Z" fill="url(#paint6_radial_212_281)"/>
    <path fill-rule="evenodd" clip-rule="evenodd" d="M21.6511 24.1942C21.0584 25.0376 20.6894 26.207 20.6894 27.5024L20.6894 27.5028C20.6865 28.183 20.7929 28.8592 21.0045 29.5057L21.0048 29.5066L21.005 29.5074C21.0226 29.5655 21.058 29.6165 21.1062 29.6533C21.1538 29.6896 21.2115 29.7101 21.2713 29.7122C21.3399 29.7095 21.4055 29.6827 21.4564 29.6366C21.5079 29.59 21.5412 29.5266 21.5503 29.4577L21.5505 29.4563L21.5507 29.455C21.7964 27.9834 22.7592 26.8517 23.9429 26.8517C25.1267 26.8517 26.0895 27.9834 26.3352 29.455L26.3354 29.4563L26.3356 29.4577C26.3447 29.5266 26.3779 29.59 26.4295 29.6366C26.4804 29.6827 26.546 29.7095 26.6146 29.7122C26.6744 29.7103 26.7322 29.6897 26.7798 29.6534C26.828 29.6166 26.8634 29.5656 26.8808 29.5075L26.8811 29.5066L26.8814 29.5057C27.093 28.8592 27.1994 28.183 27.1965 27.5028L27.1965 27.5024C27.1965 26.207 26.8274 25.0376 26.2348 24.1942C25.6419 23.3506 24.8305 22.8387 23.9429 22.8387C23.0554 22.8387 22.2439 23.3506 21.6511 24.1942ZM21.2715 29.791L21.2695 29.8697C21.1758 29.8673 21.0852 29.8354 21.0106 29.7785C20.9363 29.7219 20.8817 29.6433 20.8545 29.5539C20.6378 28.8917 20.5289 28.199 20.5318 27.5023C20.5318 26.1784 20.9088 24.9766 21.5222 24.1036C22.1355 23.2309 22.9902 22.6812 23.9429 22.6812C24.8957 22.6812 25.7504 23.2309 26.3637 24.1036C26.9771 24.9766 27.354 26.1784 27.3541 27.5023C27.3541 27.5023 27.3541 27.5024 27.3541 27.5024H27.2753L27.3541 27.5021C27.3541 27.5022 27.3541 27.5022 27.3541 27.5023C27.357 28.199 27.248 28.8917 27.0314 29.5539C27.0315 29.5535 27.0316 29.5532 27.0317 29.5529L26.9562 29.5302L27.0311 29.5547C27.0312 29.5544 27.0313 29.5542 27.0314 29.5539C27.0043 29.6433 26.9497 29.722 26.8754 29.7787C26.8007 29.8356 26.7101 29.8675 26.6163 29.8697L26.6141 29.8698L26.6119 29.8697C26.5051 29.8663 26.4029 29.8251 26.3237 29.7534C26.2449 29.6821 26.1938 29.5851 26.1796 29.4797C26.1796 29.4801 26.1797 29.4805 26.1798 29.481L26.2575 29.468L26.1794 29.4783C26.1794 29.4788 26.1795 29.4792 26.1796 29.4797C25.9396 28.0451 25.0151 27.0093 23.9429 27.0093C22.8707 27.0093 21.9462 28.0451 21.7063 29.4797C21.7064 29.4792 21.7064 29.4788 21.7065 29.4783L21.6284 29.468L21.7061 29.481C21.7062 29.4805 21.7062 29.4801 21.7063 29.4797C21.6921 29.5851 21.641 29.6821 21.5621 29.7534C21.4829 29.8251 21.3808 29.8663 21.274 29.8697L21.2715 29.791Z" fill="url(#paint7_linear_212_281)"/>
    <path d="M39.4372 27.5028C39.4414 28.1912 39.335 28.8758 39.1221 29.5306C39.0999 29.6045 39.0548 29.6695 38.9934 29.7164C38.932 29.7632 38.8574 29.7894 38.7802 29.7913C38.6921 29.7885 38.6078 29.7545 38.5424 29.6953C38.4771 29.6362 38.4349 29.5557 38.4233 29.4683C38.1807 28.0148 37.2369 26.9308 36.1088 26.9308C34.9807 26.9308 34.0369 28.0148 33.7943 29.4683C33.7827 29.5557 33.7405 29.6362 33.6751 29.6953C33.6098 29.7545 33.5255 29.7885 33.4374 29.7913V29.7913C33.3602 29.7894 33.2855 29.7632 33.2241 29.7164C33.1627 29.6695 33.1177 29.6045 33.0955 29.5306C32.8813 28.8761 32.7735 28.1914 32.7764 27.5028C32.7764 24.8834 34.2685 22.7603 36.1088 22.7603C37.9491 22.7603 39.4372 24.8834 39.4372 27.5028Z" fill="url(#paint8_radial_212_281)"/>
    <path d="M39.4372 27.5028C39.4414 28.1912 39.335 28.8758 39.1221 29.5306C39.0999 29.6045 39.0548 29.6695 38.9934 29.7164C38.932 29.7632 38.8574 29.7894 38.7802 29.7913C38.6921 29.7885 38.6078 29.7545 38.5424 29.6953C38.4771 29.6362 38.4349 29.5557 38.4233 29.4683C38.1807 28.0148 37.2369 26.9308 36.1088 26.9308C34.9807 26.9308 34.0369 28.0148 33.7943 29.4683C33.7827 29.5557 33.7405 29.6362 33.6751 29.6953C33.6098 29.7545 33.5255 29.7885 33.4374 29.7913V29.7913C33.3602 29.7894 33.2855 29.7632 33.2241 29.7164C33.1627 29.6695 33.1177 29.6045 33.0955 29.5306C32.8813 28.8761 32.7735 28.1914 32.7764 27.5028C32.7764 24.8834 34.2685 22.7603 36.1088 22.7603C37.9491 22.7603 39.4372 24.8834 39.4372 27.5028Z" fill="url(#paint9_radial_212_281)"/>
    <path fill-rule="evenodd" clip-rule="evenodd" d="M33.8161 24.1942C33.2235 25.0376 32.8544 26.207 32.8544 27.5024L32.8544 27.5028C32.8515 28.183 32.9579 28.8592 33.1695 29.5057L33.1698 29.5066L33.1701 29.5075C33.1876 29.5656 33.2229 29.6167 33.2711 29.6534C33.3187 29.6897 33.3765 29.7103 33.4363 29.7122C33.5049 29.7095 33.5705 29.6827 33.6215 29.6366C33.673 29.59 33.7062 29.5266 33.7153 29.4577L33.7155 29.4563L33.7157 29.455C33.9614 27.9834 34.9243 26.8517 36.108 26.8517C37.2917 26.8517 38.2545 27.9834 38.5002 29.455L38.5004 29.4563L38.5006 29.4577C38.5097 29.5266 38.543 29.59 38.5945 29.6366C38.6455 29.6827 38.711 29.7095 38.7797 29.7122C38.8395 29.7103 38.8972 29.6897 38.9448 29.6534C38.993 29.6167 39.0284 29.5656 39.0458 29.5075L39.0461 29.5067L39.0464 29.5059C39.2566 28.8592 39.3617 28.1829 39.3576 27.5029L39.3576 27.5024C39.3576 26.2069 38.9895 25.0376 38.3978 24.1942C37.806 23.3505 36.9955 22.8387 36.108 22.8387C35.2205 22.8387 34.409 23.3506 33.8161 24.1942ZM33.4366 29.791L33.4347 29.8697C33.3409 29.8675 33.2502 29.8356 33.1756 29.7787C33.1012 29.722 33.0466 29.6433 33.0195 29.5539C32.8029 28.8917 32.6939 28.199 32.6968 27.5023C32.6969 26.1784 33.0738 24.9766 33.6872 24.1036C34.3005 23.2309 35.1552 22.6812 36.108 22.6812C37.0608 22.6812 37.9145 23.2309 38.5268 24.1037C39.1392 24.9766 39.5151 26.1784 39.5152 27.5022C39.5152 27.5023 39.5152 27.5024 39.5152 27.5024H39.4364L39.5152 27.502C39.5152 27.502 39.5152 27.5021 39.5152 27.5022C39.5194 28.1987 39.4118 28.8914 39.1965 29.5538C39.1966 29.5535 39.1966 29.5532 39.1967 29.5529L39.1213 29.5302L39.1962 29.5546C39.1963 29.5543 39.1964 29.5541 39.1965 29.5538C39.1694 29.6433 39.1148 29.722 39.0404 29.7787C38.9658 29.8356 38.8751 29.8675 38.7813 29.8697L38.7791 29.8698L38.7769 29.8697C38.6701 29.8663 38.568 29.8251 38.4888 29.7534C38.4099 29.6821 38.3589 29.5851 38.3446 29.4797C38.3447 29.4801 38.3447 29.4805 38.3448 29.481L38.4225 29.468L38.3444 29.4783C38.3445 29.4788 38.3445 29.4792 38.3446 29.4797C38.1047 28.0451 37.1802 27.0093 36.108 27.0093C35.0358 27.0093 34.1113 28.0451 33.8714 29.4797C33.8714 29.4792 33.8715 29.4788 33.8715 29.4783L33.7934 29.468L33.8711 29.481C33.8712 29.4805 33.8713 29.4801 33.8714 29.4797C33.8571 29.5851 33.806 29.6821 33.7272 29.7534C33.648 29.8251 33.5459 29.8663 33.4391 29.8697L33.4366 29.791Z" fill="url(#paint10_linear_212_281)"/>
    <defs>
        <filter id="filter0_f_212_281" x="-14.1431" y="4.24219" width="88.2095" height="70.2144" filterUnits="userSpaceOnUse" color-interpolation-filters="sRGB">
            <feFlood flood-opacity="0" result="BackgroundImageFix"/>
            <feBlend mode="normal" in="SourceGraphic" in2="BackgroundImageFix" result="shape"/>
            <feGaussianBlur stdDeviation="12.5" result="effect1_foregroundBlur_212_281"/>
        </filter>
        <filter id="filter1_f_212_281" x="-29.1431" y="-10.7578" width="118.209" height="100.214" filterUnits="userSpaceOnUse" color-interpolation-filters="sRGB">
            <feFlood flood-opacity="0" result="BackgroundImageFix"/>
            <feBlend mode="normal" in="SourceGraphic" in2="BackgroundImageFix" result="shape"/>
            <feGaussianBlur stdDeviation="20" result="effect1_foregroundBlur_212_281"/>
        </filter>
        <radialGradient id="paint0_radial_212_281" cx="0" cy="0" r="1" gradientUnits="userSpaceOnUse" gradientTransform="translate(29.9858 11) rotate(90) scale(37.9716)">
            <stop stop-color="#FFDE43"/>
            <stop offset="1" stop-color="#FFBC00"/>
        </radialGradient>
        <radialGradient id="paint1_radial_212_281" cx="0" cy="0" r="1" gradientUnits="userSpaceOnUse" gradientTransform="translate(29.9858 16.0813) rotate(90) scale(32.8904)">
            <stop stop-color="white" stop-opacity="0.5"/>
            <stop offset="0.782278"/>
        </radialGradient>
        <radialGradient id="paint2_radial_212_281" cx="0" cy="0" r="1" gradientUnits="userSpaceOnUse" gradientTransform="translate(29.9858 16.0813) rotate(90) scale(32.8904)">
            <stop stop-color="white" stop-opacity="0.5"/>
            <stop offset="0.782278"/>
        </radialGradient>
        <radialGradient id="paint3_radial_212_281" cx="0" cy="0" r="1" gradientUnits="userSpaceOnUse" gradientTransform="translate(29.9858 6.86409) rotate(90) scale(42.1076 56.9444)">
            <stop offset="0.0922635" stop-color="white"/>
            <stop offset="0.670207" stop-color="white" stop-opacity="0"/>
        </radialGradient>
        <radialGradient id="paint4_radial_212_281" cx="0" cy="0" r="1" gradientUnits="userSpaceOnUse" gradientTransform="translate(29.971 36.8809) scale(8.31364 5.93454)">
            <stop stop-color="#743C1C"/>
            <stop offset="1" stop-color="#401C02"/>
        </radialGradient>
        <linearGradient id="paint5_linear_212_281" x1="29.9709" y1="40.0997" x2="29.9709" y2="33.661" gradientUnits="userSpaceOnUse">
            <stop offset="0.265625" stop-color="#FFDE43"/>
            <stop offset="1" stop-color="#F79D14"/>
        </linearGradient>
        <radialGradient id="paint6_radial_212_281" cx="0" cy="0" r="1" gradientUnits="userSpaceOnUse" gradientTransform="translate(23.9377 26.2734) scale(4.24803 3.52163)">
            <stop stop-color="#743C1C"/>
            <stop offset="1" stop-color="#401C02"/>
        </radialGradient>
        <linearGradient id="paint7_linear_212_281" x1="23.9429" y1="30.0721" x2="23.9429" y2="22.4498" gradientUnits="userSpaceOnUse">
            <stop stop-color="#FFDE43"/>
            <stop offset="0.22" stop-color="#FED93F"/>
            <stop offset="0.51" stop-color="#FCC934"/>
            <stop offset="0.82" stop-color="#F9AF21"/>
            <stop offset="1" stop-color="#F79D14"/>
        </linearGradient>
        <radialGradient id="paint8_radial_212_281" cx="0" cy="0" r="1" gradientUnits="userSpaceOnUse" gradientTransform="translate(3877.42 5028.92) scale(277.429 319.199)">
            <stop stop-color="#743C1C"/>
            <stop offset="1" stop-color="#401C02"/>
        </radialGradient>
        <radialGradient id="paint9_radial_212_281" cx="0" cy="0" r="1" gradientUnits="userSpaceOnUse" gradientTransform="translate(36.1022 26.2734) scale(4.24555 3.52163)">
            <stop stop-color="#743C1C"/>
            <stop offset="1" stop-color="#401C02"/>
        </radialGradient>
        <linearGradient id="paint10_linear_212_281" x1="36.106" y1="30.0721" x2="36.106" y2="22.4498" gradientUnits="userSpaceOnUse">
            <stop stop-color="#FFDE43"/>
            <stop offset="0.22" stop-color="#FED93F"/>
            <stop offset="0.51" stop-color="#FCC934"/>
            <stop offset="0.82" stop-color="#F9AF21"/>
            <stop offset="1" stop-color="#F79D14"/>
        </linearGradient>
    </defs>
</svg>
