<svg width="60" height="60" viewBox="0 0 60 60" fill="none" xmlns="http://www.w3.org/2000/svg">
    <path d="M33.7826 47.3333C43.418 44.7562 49.1457 34.9065 46.5758 25.3334C44.0058 15.7603 34.1113 10.089 24.4759 12.6662C14.8404 15.2433 9.11267 25.093 11.6826 34.6661C14.2526 44.2392 24.1471 49.9105 33.7826 47.3333Z" fill="url(#paint0_radial_212_387)"/>
    <g style="mix-blend-mode:soft-light">
        <path d="M33.7826 47.3333C43.418 44.7562 49.1457 34.9065 46.5758 25.3334C44.0058 15.7603 34.1113 10.089 24.4759 12.6662C14.8404 15.2433 9.11267 25.093 11.6826 34.6661C14.2526 44.2392 24.1471 49.9105 33.7826 47.3333Z" fill="url(#paint1_radial_212_387)"/>
    </g>
    <g style="mix-blend-mode:soft-light">
        <path d="M33.7826 47.3333C43.418 44.7562 49.1457 34.9065 46.5758 25.3334C44.0058 15.7603 34.1113 10.089 24.4759 12.6662C14.8404 15.2433 9.11267 25.093 11.6826 34.6661C14.2526 44.2392 24.1471 49.9105 33.7826 47.3333Z" fill="url(#paint2_radial_212_387)"/>
    </g>
    <g style="mix-blend-mode:overlay">
        <path d="M33.7826 47.3333C43.418 44.7562 49.1457 34.9065 46.5758 25.3334C44.0058 15.7603 34.1113 10.089 24.4759 12.6662C14.8404 15.2433 9.11267 25.093 11.6826 34.6661C14.2526 44.2392 24.1471 49.9105 33.7826 47.3333Z" fill="url(#paint3_radial_212_387)" fill-opacity="0.7"/>
    </g>
    <mask id="mask0_212_387" style="mask-type:alpha" maskUnits="userSpaceOnUse" x="11" y="12" width="37" height="36">
        <path d="M33.7826 47.3333C43.418 44.7562 49.1457 34.9065 46.5758 25.3334C44.0058 15.7603 34.1113 10.089 24.4759 12.6662C14.8404 15.2433 9.11267 25.093 11.6826 34.6661C14.2526 44.2392 24.1471 49.9105 33.7826 47.3333Z" fill="white"/>
    </mask>
    <g mask="url(#mask0_212_387)">
        <g filter="url(#filter0_f_212_387)">
            <path d="M11.4663 34.2224C11.4193 33.9714 11.4943 33.9249 11.5851 34.1683C11.6859 34.4387 11.7841 35.0103 11.8868 35.3434C12.1585 36.2256 12.5039 36.9634 12.8148 37.5556C13.8166 39.4638 14.8008 40.6027 15.6887 41.5533C18.6073 44.6776 21.2288 45.9536 23.6762 46.7889C27.2638 48.0133 30.5032 47.8411 33.6081 47.1572C33.6864 47.1399 33.8335 47.6367 33.7748 47.7222C33.669 47.8764 33.4677 47.8054 33.3259 47.8381C32.9186 47.9321 32.5077 48.0127 32.093 48.0791C30.8633 48.2761 29.5995 48.3451 28.297 48.2605C24.7555 48.0306 20.7502 47.0857 16.2712 42.603C15.9895 42.321 15.7045 42.021 15.4152 41.6941C15.1838 41.4326 14.9501 41.1562 14.713 40.8571C13.9332 39.8733 12.0476 37.3254 11.4663 34.2224ZM33.7643 47.7308C33.6911 47.7528 33.5473 47.2915 33.5917 47.1758C33.6588 47.001 33.8505 47.0788 33.9608 47.0419C34.4188 46.8883 34.8729 46.7208 35.3228 46.5382C36.5564 46.0374 37.7589 45.4244 38.9192 44.6656C41.7971 42.7834 44.7662 40.2937 46.4384 34.6391C46.5449 34.2793 46.6446 33.901 46.7352 33.4988C47.0106 32.2766 47.6583 29.0547 46.5469 25.5625C46.4532 25.2681 46.4968 25.0651 46.6063 25.3099C46.7457 25.6215 46.9066 26.3059 46.9891 26.6709C47.2534 27.8399 47.3367 28.866 47.3599 29.7065C47.4332 32.3702 46.9828 34.0466 46.5388 35.4645C45.0958 40.0733 42.8068 42.3883 40.4734 44.2362C38.3806 45.8937 36.1261 47.0202 33.7643 47.7308Z" fill="#401C02"/>
        </g>
        <g filter="url(#filter1_f_212_387)">
            <path d="M11.4663 34.2224C11.4193 33.9714 11.4943 33.9249 11.5851 34.1683C11.6859 34.4387 11.7841 35.0103 11.8868 35.3434C12.1585 36.2256 12.5039 36.9634 12.8148 37.5556C13.8166 39.4638 14.8008 40.6027 15.6887 41.5533C18.6073 44.6776 21.2288 45.9536 23.6762 46.7889C27.2638 48.0133 30.5032 47.8411 33.6081 47.1572C33.6864 47.1399 33.8335 47.6367 33.7748 47.7222C33.669 47.8764 33.4677 47.8054 33.3259 47.8381C32.9186 47.9321 32.5077 48.0127 32.093 48.0791C30.8633 48.2761 29.5995 48.3451 28.297 48.2605C24.7555 48.0306 20.7502 47.0857 16.2712 42.603C15.9895 42.321 15.7045 42.021 15.4152 41.6941C15.1838 41.4326 14.9501 41.1562 14.713 40.8571C13.9332 39.8733 12.0476 37.3254 11.4663 34.2224ZM33.7643 47.7308C33.6911 47.7528 33.5473 47.2915 33.5917 47.1758C33.6588 47.001 33.8505 47.0788 33.9608 47.0419C34.4188 46.8883 34.8729 46.7208 35.3228 46.5382C36.5564 46.0374 37.7589 45.4244 38.9192 44.6656C41.7971 42.7834 44.7662 40.2937 46.4384 34.6391C46.5449 34.2793 46.6446 33.901 46.7352 33.4988C47.0106 32.2766 47.6583 29.0547 46.5469 25.5625C46.4532 25.2681 46.4968 25.0651 46.6063 25.3099C46.7457 25.6215 46.9066 26.3059 46.9891 26.6709C47.2534 27.8399 47.3367 28.866 47.3599 29.7065C47.4332 32.3702 46.9828 34.0466 46.5388 35.4645C45.0958 40.0733 42.8068 42.3883 40.4734 44.2362C38.3806 45.8937 36.1261 47.0202 33.7643 47.7308Z" fill="#401C02"/>
        </g>
    </g>
    <path d="M40.2589 31.3973C37.7251 39.0656 26.1711 42.1575 20.1401 36.7677C20.087 36.7204 20.0523 36.656 20.042 36.5858C20.0316 36.5156 20.0464 36.4439 20.0836 36.3833C20.1209 36.3226 20.1783 36.2768 20.2459 36.2537C20.3135 36.2306 20.3871 36.2318 20.4539 36.2569C27.1181 38.7635 35.2166 36.6067 39.7304 31.1116C39.7754 31.0561 39.8387 31.018 39.909 31.004C39.9793 30.9899 40.0523 31.0009 40.1153 31.0349C40.1782 31.0689 40.227 31.1238 40.2533 31.1901C40.2795 31.2563 40.2815 31.3297 40.2589 31.3973V31.3973Z" fill="url(#paint4_radial_212_387)"/>
    <path fill-rule="evenodd" clip-rule="evenodd" d="M20.4202 36.3429C20.3739 36.3255 20.3228 36.3247 20.2758 36.3407C20.2289 36.3567 20.189 36.3886 20.1632 36.4307C20.1373 36.4728 20.127 36.5226 20.1342 36.5713C20.1414 36.6201 20.1655 36.6648 20.2024 36.6976L20.2025 36.6977C23.1887 39.3665 27.5497 39.9407 31.4867 38.8888C35.4236 37.8368 38.9152 35.1645 40.1699 31.3674L40.2587 31.3962L40.17 31.3671C40.1857 31.3201 40.1843 31.2692 40.1661 31.2232C40.1479 31.1772 40.1139 31.1391 40.0702 31.1155C40.0265 31.0918 39.9759 31.0842 39.927 31.094C39.8782 31.1037 39.8343 31.1302 39.803 31.1687L39.8026 31.1692C35.2632 36.6955 27.1221 38.8638 20.4203 36.343L20.4202 36.3429ZM40.3475 31.4252C39.0683 35.2966 35.516 38.0044 31.5348 39.0682C27.5536 40.132 23.1221 39.5572 20.0772 36.836C20.0079 36.7742 19.9626 36.6902 19.9491 36.5986C19.9357 36.5069 19.9549 36.4134 20.0035 36.3342C20.0522 36.255 20.1271 36.1951 20.2154 36.165C20.3037 36.1349 20.3997 36.1363 20.4869 36.1692M40.3475 31.4252C40.377 31.3369 40.3744 31.2412 40.3401 31.1548C40.3059 31.0683 40.2421 30.9966 40.1599 30.9522C40.0778 30.9078 39.9825 30.8935 39.8906 30.9118C39.7989 30.9301 39.7164 30.9797 39.6576 31.0521C35.1693 36.5161 27.1136 38.6617 20.4869 36.1692" fill="url(#paint5_linear_212_387)"/>
    <path d="M25.9687 28.3944C26.14 29.022 26.2088 29.673 26.1724 30.3228C26.1701 30.3957 26.1446 30.4661 26.0997 30.5239C26.0548 30.5817 25.9927 30.624 25.9223 30.6446C25.8407 30.6637 25.755 30.6534 25.6805 30.6155C25.6059 30.5776 25.5475 30.5145 25.5155 30.4376C24.9367 29.1712 23.8045 28.414 22.7686 28.6911C21.7327 28.9681 21.1315 30.1889 21.2647 31.5746C21.2755 31.6571 21.2564 31.7409 21.2109 31.8109C21.1654 31.881 21.0963 31.9327 21.0161 31.9569V31.9569C20.9447 31.974 20.8698 31.9684 20.802 31.9407C20.7342 31.9131 20.6769 31.8649 20.6383 31.803C20.2813 31.2585 20.0147 30.6603 19.8486 30.0313C19.2071 27.6416 20.0572 25.3381 21.7471 24.8861C23.437 24.4341 25.3271 26.0046 25.9687 28.3944Z" fill="url(#paint6_radial_212_387)"/>
    <path fill-rule="evenodd" clip-rule="evenodd" d="M19.9922 26.7573C19.6546 27.6724 19.602 28.8299 19.9193 30.0118L19.9194 30.0121C20.0834 30.6333 20.3467 31.2242 20.6994 31.762L20.6998 31.7627L20.7003 31.7634C20.7306 31.8121 20.7756 31.8499 20.8289 31.8716C20.8815 31.8931 20.9395 31.8977 20.9949 31.8848C21.0573 31.8655 21.1109 31.825 21.1464 31.7704C21.1823 31.7152 21.1973 31.6492 21.1888 31.5841L21.1886 31.5829L21.1885 31.5816C21.0537 30.1786 21.6607 28.9097 22.7476 28.619C23.8346 28.3283 24.996 29.1242 25.582 30.4065L25.5825 30.4077L25.583 30.4088C25.6082 30.4694 25.6543 30.5191 25.713 30.549C25.7712 30.5786 25.8379 30.5869 25.9016 30.5725C25.956 30.556 26.004 30.5231 26.0389 30.4783C26.0741 30.4329 26.0941 30.3777 26.0959 30.3204L26.0959 30.3195L26.096 30.3186C26.1319 29.6768 26.064 29.0337 25.8948 28.4139L25.8947 28.4136C25.5774 27.2317 24.9521 26.2555 24.2013 25.6316C23.4503 25.0075 22.5798 24.7398 21.7648 24.9578C20.9498 25.1758 20.33 25.842 19.9922 26.7573ZM21.0144 31.9567L21.0319 32.029C20.9452 32.0498 20.8542 32.043 20.7718 32.0094C20.6897 31.976 20.6203 31.9177 20.5734 31.8428C20.2123 31.2919 19.9426 30.6867 19.7746 30.0503C19.4504 28.8425 19.5022 27.6534 19.8517 26.7064C20.2011 25.7595 20.8513 25.048 21.7262 24.814C22.6011 24.58 23.5206 24.8716 24.2975 25.5172C25.0746 26.163 25.7151 27.1669 26.0394 28.3747C26.0394 28.3747 26.0394 28.3748 26.0394 28.3749L25.9671 28.3942L26.0393 28.3746C26.0393 28.3746 26.0393 28.3746 26.0394 28.3747C26.2127 29.0096 26.2823 29.6683 26.2455 30.3257C26.2455 30.3254 26.2455 30.3251 26.2456 30.3247L26.1707 30.3226L26.2455 30.3265C26.2455 30.3263 26.2455 30.326 26.2455 30.3257C26.2425 30.414 26.2117 30.4991 26.1573 30.5691C26.1027 30.6394 26.0273 30.6907 25.9417 30.7158L25.9397 30.7164L25.9376 30.7169C25.8387 30.74 25.7349 30.7275 25.6446 30.6816C25.5547 30.6358 25.484 30.5599 25.4451 30.4672C25.4453 30.4676 25.4455 30.468 25.4456 30.4683L25.5138 30.4374L25.4446 30.466C25.4448 30.4664 25.445 30.4668 25.4451 30.4672C24.8734 29.2173 23.7708 28.4994 22.7862 28.7627C21.8017 29.0261 21.2064 30.1981 21.3375 31.5659C21.3374 31.5655 21.3373 31.565 21.3373 31.5646L21.263 31.5744L21.3376 31.5671C21.3375 31.5667 21.3375 31.5663 21.3375 31.5659C21.3502 31.6655 21.3271 31.7666 21.2721 31.851C21.2169 31.9359 21.1333 31.9986 21.036 32.0279L21.0144 31.9567Z" fill="url(#paint7_linear_212_387)"/>
    <path d="M37.1243 25.4193C37.2967 26.0463 37.3667 26.6971 37.3316 27.3467C37.3293 27.4196 37.3038 27.49 37.2589 27.5478C37.214 27.6056 37.1519 27.6479 37.0815 27.6686C36.9999 27.6877 36.9142 27.6773 36.8396 27.6394C36.7651 27.6015 36.7067 27.5384 36.6747 27.4615C36.0958 26.1951 34.9637 25.4379 33.9278 25.715C32.8918 25.9921 32.2907 27.2128 32.4239 28.5985C32.4347 28.6811 32.4156 28.7648 32.3701 28.8349C32.3246 28.9049 32.2555 28.9566 32.1753 28.9808V28.9808C32.1039 28.9981 32.029 28.9925 31.9611 28.9648C31.8933 28.9372 31.836 28.8889 31.7975 28.8269C31.4404 28.2824 31.1738 27.6842 31.0078 27.0552C30.3662 24.6655 31.2164 22.362 32.9063 21.91C34.5962 21.458 36.4827 23.0295 37.1243 25.4193Z" fill="url(#paint8_radial_212_387)"/>
    <path d="M37.1243 25.4193C37.2967 26.0463 37.3667 26.6971 37.3316 27.3467C37.3293 27.4196 37.3038 27.49 37.2589 27.5478C37.214 27.6056 37.1519 27.6479 37.0815 27.6686C36.9999 27.6877 36.9142 27.6773 36.8396 27.6394C36.7651 27.6015 36.7067 27.5384 36.6747 27.4615C36.0958 26.1951 34.9637 25.4379 33.9278 25.715C32.8918 25.9921 32.2907 27.2128 32.4239 28.5985C32.4347 28.6811 32.4156 28.7648 32.3701 28.8349C32.3246 28.9049 32.2555 28.9566 32.1753 28.9808V28.9808C32.1039 28.9981 32.029 28.9925 31.9611 28.9648C31.8933 28.9372 31.836 28.8889 31.7975 28.8269C31.4404 28.2824 31.1738 27.6842 31.0078 27.0552C30.3662 24.6655 31.2164 22.362 32.9063 21.91C34.5962 21.458 36.4827 23.0295 37.1243 25.4193Z" fill="url(#paint9_radial_212_387)"/>
    <path fill-rule="evenodd" clip-rule="evenodd" d="M31.1534 23.7813C30.8157 24.6963 30.7632 25.8538 31.0805 27.0357L31.0806 27.036C31.2446 27.6573 31.5079 28.2481 31.8605 28.7859L31.861 28.7867L31.8615 28.7875C31.8917 28.8361 31.9367 28.874 31.99 28.8957C32.0426 28.9172 32.1006 28.9217 32.156 28.9088C32.2184 28.8894 32.2721 28.849 32.3076 28.7944C32.3435 28.7392 32.3585 28.6731 32.35 28.608L32.3498 28.6068L32.3497 28.6055C32.2148 27.2025 32.8218 25.9336 33.9088 25.6429C34.9958 25.3522 36.1571 26.1481 36.7431 27.4304L36.7437 27.4316L36.7442 27.4327C36.7694 27.4933 36.8155 27.543 36.8742 27.5729C36.9323 27.6025 36.999 27.6108 37.0627 27.5964C37.1172 27.5799 37.1652 27.547 37.2 27.5022C37.2353 27.4568 37.2552 27.4016 37.257 27.3443L37.2571 27.3435L37.2571 27.3426C37.2918 26.701 37.2227 26.0582 37.0524 25.4389L37.0522 25.4384C36.7349 24.2565 36.1105 23.28 35.3606 22.6559C34.6105 22.0316 33.7409 21.7637 32.9259 21.9817C32.1109 22.1997 31.4911 22.866 31.1534 23.7813ZM32.1756 28.9806L32.1931 29.0529C32.1064 29.0739 32.0154 29.0671 31.9329 29.0335C31.8508 29 31.7814 28.9417 31.7346 28.8667C31.3734 28.3158 31.1037 27.7106 30.9358 27.0742C30.6115 25.8664 30.6633 24.6774 31.0128 23.7303C31.3622 22.7834 32.0124 22.072 32.8873 21.838C33.7622 21.6039 34.6808 21.8958 35.4569 22.5417C36.233 23.1877 36.8726 24.1917 37.1969 25.3995C37.1969 25.3996 37.1969 25.3996 37.1969 25.3997L37.1246 25.4191L37.1968 25.3993C37.1968 25.3993 37.1968 25.3994 37.1969 25.3995C37.3713 26.0339 37.4421 26.6923 37.4067 27.3495C37.4067 27.3492 37.4067 27.3489 37.4067 27.3486L37.3319 27.3465L37.4066 27.3503C37.4067 27.35 37.4067 27.3498 37.4067 27.3495C37.4037 27.4378 37.3729 27.523 37.3185 27.593C37.2639 27.6633 37.1884 27.7146 37.1028 27.7397L37.1008 27.7403L37.0988 27.7408C36.9999 27.7639 36.896 27.7514 36.8057 27.7055C36.7158 27.6597 36.6452 27.5838 36.6063 27.4911C36.6065 27.4915 36.6066 27.4919 36.6068 27.4922L36.675 27.4613L36.6058 27.4899C36.606 27.4903 36.6061 27.4907 36.6063 27.4911C36.0346 26.2412 34.932 25.5233 33.9474 25.7866C32.9628 26.05 32.3676 27.222 32.4986 28.5898C32.4986 28.5894 32.4985 28.5889 32.4984 28.5885L32.4242 28.5983L32.4987 28.591C32.4987 28.5906 32.4987 28.5902 32.4986 28.5898C32.5113 28.6895 32.4882 28.7905 32.4333 28.875C32.3781 28.9598 32.2944 29.0225 32.1972 29.0518L32.1756 28.9806Z" fill="url(#paint10_linear_212_387)"/>
    <mask id="mask1_212_387" style="mask-type:alpha" maskUnits="userSpaceOnUse" x="9" y="10" width="37" height="37">
        <path d="M31.0816 46.5157C40.896 44.793 47.4492 35.4764 45.7186 25.7064C43.9881 15.9365 34.6292 9.41295 24.8148 11.1357C15.0005 12.8584 8.4473 22.175 10.1778 31.9449C11.9084 41.7148 21.2673 48.2384 31.0816 46.5157Z" fill="url(#paint11_radial_212_387)"/>
    </mask>
    <g mask="url(#mask1_212_387)">
        <g filter="url(#filter2_f_212_387)">
            <path d="M52.9195 27.5115C52.6875 26.3199 52.0217 25.2027 51.1239 24.3611C50.443 23.7205 49.635 23.2215 48.7821 22.8566C48.3481 22.6704 47.9067 22.514 47.4503 22.3874C47.0014 22.2607 46.4926 22.2235 46.0737 22.0075C45.1983 21.5532 44.8841 20.0934 44.8242 19.2071C44.7644 18.358 44.8317 17.3153 44.091 16.8908C43.5822 16.5929 42.9014 16.7865 42.4974 17.2111C42.0934 17.6356 41.9213 18.224 41.8539 18.8049C41.7268 19.9072 41.9213 21.0542 42.4151 22.0522C42.7518 22.7374 43.9488 24.1302 43.5897 24.9495C43.3877 25.4038 42.3926 25.5974 41.9737 25.7762C41.3003 26.0666 40.6494 26.3944 40.0434 26.8114C39.2802 27.3402 38.4797 28.1372 38.2477 29.0607C38.1131 29.6044 38.2627 30.1779 38.6143 30.6024C38.9061 30.9674 39.6244 31.5483 40.0957 31.1834C39.557 31.6005 39.4448 32.457 39.8563 33.0007C40.2678 33.5444 41.1282 33.671 41.6744 33.2688C41.1282 33.6859 41.016 34.5573 41.4275 35.101C41.839 35.6447 42.7143 35.7713 43.268 35.3617C42.1831 36.166 41.1058 36.963 40.0209 37.7673C39.587 38.0876 39.1306 38.4451 38.9884 38.959C38.7864 39.6591 39.37 40.4709 40.0957 40.5156C40.6643 40.5529 41.1731 40.1954 41.637 39.8602C43.8216 38.2664 46.0063 36.6651 48.191 35.0712C49.2983 34.2594 50.4131 33.4401 51.3184 32.4123C52.2237 31.3845 52.912 30.1109 53.0093 28.7479C53.0242 28.3383 52.9943 27.9212 52.9195 27.5115Z" fill="#BF5703"/>
        </g>
    </g>
    <path d="M52.9053 27.4793C52.6734 26.2876 52.0075 25.1705 51.1097 24.3288C50.4289 23.6883 49.6208 23.1893 48.7679 22.8244C48.334 22.6382 47.8925 22.4818 47.4361 22.3551C46.9872 22.2285 46.4785 22.1913 46.0595 21.9753C45.1841 21.521 44.8699 20.0612 44.81 19.1749C44.7502 18.3258 44.8175 17.2831 44.0768 16.8586C43.5681 16.5606 42.8872 16.7543 42.4832 17.1788C42.0792 17.6034 41.9071 18.1917 41.8398 18.7727C41.7126 19.875 41.9071 21.022 42.4009 22.02C42.7376 22.7052 43.9347 24.098 43.5756 24.9172C43.3735 25.3716 42.3785 25.5652 41.9595 25.7439C41.2861 26.0344 40.6352 26.3621 40.0292 26.7792C39.2661 27.308 38.4655 28.1049 38.2336 29.0285C38.0989 29.5722 38.2485 30.1457 38.6002 30.5702C38.892 30.9352 39.6102 31.5161 40.0816 31.1511C39.5429 31.5682 39.4307 32.4247 39.8421 32.9684C40.2536 33.5121 41.1141 33.6388 41.6602 33.2366C41.1141 33.6537 41.0018 34.5251 41.4133 35.0688C41.8248 35.6125 42.7002 35.7391 43.2538 35.3294C42.169 36.1338 41.0916 36.9307 40.0067 37.7351C39.5728 38.0554 39.1164 38.4129 38.9743 38.9268C38.7723 39.6269 39.3558 40.4387 40.0816 40.4834C40.6502 40.5206 41.1589 40.1631 41.6228 39.828C43.8075 38.2341 45.9922 36.6328 48.1768 35.039C49.2841 34.2271 50.3989 33.4079 51.3042 32.3801C52.2095 31.3522 52.8978 30.0786 52.9951 28.7157C53.0101 28.306 52.9801 27.889 52.9053 27.4793Z" fill="url(#paint12_linear_212_387)"/>
    <mask id="mask2_212_387" style="mask-type:alpha" maskUnits="userSpaceOnUse" x="38" y="16" width="15" height="25">
        <path d="M52.9063 27.4793C52.6744 26.2876 52.0085 25.1705 51.1107 24.3288C50.4298 23.6883 49.6218 23.1893 48.7689 22.8244C48.3349 22.6382 47.8935 22.4818 47.4371 22.3551C46.9882 22.2285 46.4795 22.1913 46.0605 21.9753C45.1851 21.521 44.8709 20.0612 44.811 19.1749C44.7512 18.3258 44.8185 17.2831 44.0778 16.8586C43.569 16.5606 42.8882 16.7543 42.4842 17.1788C42.0802 17.6034 41.9081 18.1917 41.8408 18.7727C41.7136 19.875 41.9081 21.022 42.4019 22.02C42.7386 22.7052 43.9357 24.098 43.5765 24.9172C43.3745 25.3716 42.3794 25.5652 41.9605 25.7439C41.2871 26.0344 40.6362 26.3621 40.0302 26.7792C39.267 27.308 38.4665 28.1049 38.2345 29.0285C38.0999 29.5722 38.2495 30.1457 38.6012 30.5702C38.8929 30.9352 39.6112 31.5161 40.0825 31.1511C39.5439 31.5682 39.4316 32.4247 39.8431 32.9684C40.2546 33.5121 41.115 33.6388 41.6612 33.2366C41.115 33.6537 41.0028 34.5251 41.4143 35.0688C41.8258 35.6125 42.7012 35.7391 43.2548 35.3294C42.17 36.1338 41.0926 36.9307 40.0077 37.7351C39.5738 38.0554 39.1174 38.4129 38.9752 38.9268C38.7732 39.6269 39.3568 40.4387 40.0825 40.4834C40.6512 40.5206 41.1599 40.1631 41.6238 39.828C43.8085 38.2341 45.9931 36.6328 48.1778 35.039C49.2851 34.2271 50.3999 33.4079 51.3052 32.3801C52.2105 31.3522 52.8988 30.0786 52.9961 28.7157C53.011 28.306 52.9811 27.889 52.9063 27.4793Z" fill="white"/>
    </mask>
    <g mask="url(#mask2_212_387)">
        <g filter="url(#filter3_f_212_387)">
            <path fill-rule="evenodd" clip-rule="evenodd" d="M42.4022 17.1017C42.8307 16.6515 43.5674 16.4302 44.1342 16.762L44.0204 16.9546C43.5696 16.6906 42.9446 16.8566 42.5651 17.2554C42.1855 17.6543 42.0179 18.2143 41.9517 18.7852C41.8269 19.8665 42.0179 20.9919 42.502 21.9704L42.5022 21.9706C42.5829 22.1349 42.7167 22.3444 42.872 22.5861L42.8814 22.6008C43.0326 22.8362 43.2007 23.0979 43.3479 23.3642C43.498 23.6357 43.6295 23.9173 43.6999 24.1869C43.7701 24.4558 43.7827 24.7248 43.6788 24.9617L43.6786 24.9622C43.6158 25.1034 43.4961 25.2153 43.3593 25.3057C43.2215 25.3969 43.0567 25.4726 42.8903 25.5377C42.7236 25.6028 42.5505 25.659 42.3956 25.7092L42.3955 25.7092C42.2385 25.7602 42.1034 25.804 42.0044 25.8463C41.3349 26.1351 40.6913 26.4594 40.0935 26.8708C39.3379 27.3944 38.5649 28.1713 38.3429 29.0552C38.2174 29.5622 38.3566 30.0998 38.6872 30.4989L38.6878 30.4996L38.6884 30.5004C38.8269 30.6736 39.0681 30.8989 39.3266 31.0355C39.5889 31.174 39.831 31.2037 40.0131 31.0627L40.1509 31.2391C39.6609 31.6185 39.5574 32.4057 39.9322 32.901C40.307 33.3962 41.0977 33.5119 41.5939 33.1465L41.729 33.325C41.2323 33.7042 41.1285 34.5059 41.5034 35.0013C41.8775 35.4956 42.6825 35.6125 43.1868 35.2399C43.1869 35.2398 43.1871 35.2397 43.1872 35.2396C43.1873 35.2396 43.1873 35.2395 43.1873 35.2395L43.3213 35.4188C42.7808 35.8195 42.2422 36.2184 41.7036 36.6173L41.6977 36.6217C41.1571 37.022 40.6166 37.4223 40.0742 37.8245L40.074 37.8246C39.6348 38.1488 39.2132 38.4851 39.0829 38.9562L39.0827 38.9568L39.0826 38.9574C38.9928 39.2684 39.0762 39.6117 39.2719 39.8859C39.4677 40.1602 39.7663 40.3518 40.0889 40.3717L40.0894 40.3717C40.6105 40.4058 41.0859 40.0779 41.5573 39.7373L41.6892 39.9182C41.2328 40.2479 40.6907 40.635 40.0747 40.5946M42.5945 35.6789C42.1147 35.7126 41.615 35.5201 41.3241 35.1357C40.983 34.685 40.9715 34.0319 41.2483 33.5451C40.7099 33.6721 40.0929 33.4845 39.7529 33.0354C39.3927 32.5594 39.4002 31.8677 39.7222 31.3785C39.5497 31.375 39.3761 31.3146 39.2214 31.2328C38.9304 31.0791 38.6668 30.8319 38.5134 30.6403C38.1412 30.1905 37.9814 29.5815 38.125 29.0015L38.1251 29.0011C38.367 28.0381 39.1949 27.2213 39.9655 26.6873L39.9658 26.6871C40.58 26.2644 41.2381 25.9333 41.9153 25.6412L41.9157 25.641C42.0248 25.5945 42.169 25.5477 42.3204 25.4986L42.326 25.4968C42.4819 25.4462 42.6487 25.3921 42.8083 25.3297C42.9683 25.2672 43.1164 25.1982 43.2351 25.1196C43.3547 25.0405 43.435 24.9579 43.4733 24.872C43.5489 24.6993 43.5464 24.487 43.4827 24.2431C43.4191 23.9997 43.2977 23.7367 43.1513 23.4719C43.0076 23.2121 42.843 22.9557 42.6908 22.7188L42.6829 22.7065C42.5302 22.4688 42.3882 22.2473 42.3006 22.069C41.7972 21.0514 41.5991 19.8829 41.7287 18.7597L41.7287 18.7596C41.7972 18.1687 41.9738 17.5519 42.4022 17.1017" fill="#FF8500"/>
        </g>
    </g>
    <mask id="mask3_212_387" style="mask-type:alpha" maskUnits="userSpaceOnUse" x="38" y="16" width="15" height="25">
        <path d="M52.9063 27.4793C52.6744 26.2876 52.0085 25.1705 51.1107 24.3288C50.4298 23.6883 49.6218 23.1893 48.7689 22.8244C48.3349 22.6382 47.8935 22.4818 47.4371 22.3551C46.9882 22.2285 46.4795 22.1913 46.0605 21.9753C45.1851 21.521 44.8709 20.0612 44.811 19.1749C44.7512 18.3258 44.8185 17.2831 44.0778 16.8586C43.569 16.5606 42.8882 16.7543 42.4842 17.1788C42.0802 17.6034 41.9081 18.1917 41.8408 18.7727C41.7136 19.875 41.9081 21.022 42.4019 22.02C42.7386 22.7052 43.9357 24.098 43.5765 24.9172C43.3745 25.3716 42.3794 25.5652 41.9605 25.7439C41.2871 26.0344 40.6362 26.3621 40.0302 26.7792C39.267 27.308 38.4665 28.1049 38.2345 29.0285C38.0999 29.5722 38.2495 30.1457 38.6012 30.5702C38.8929 30.9352 39.6112 31.5161 40.0825 31.1511C39.5439 31.5682 39.4316 32.4247 39.8431 32.9684C40.2546 33.5121 41.115 33.6388 41.6612 33.2366C41.115 33.6537 41.0028 34.5251 41.4143 35.0688C41.8258 35.6125 42.7012 35.7391 43.2548 35.3294C42.17 36.1338 41.0926 36.9307 40.0077 37.7351C39.5738 38.0554 39.1174 38.4129 38.9752 38.9268C38.7732 39.6269 39.3568 40.4387 40.0825 40.4834C40.6512 40.5206 41.1599 40.1631 41.6238 39.828C43.8085 38.2341 45.9931 36.6328 48.1778 35.039C49.2851 34.2271 50.3999 33.4079 51.3052 32.3801C52.2105 31.3522 52.8988 30.0786 52.9961 28.7157C53.011 28.306 52.9811 27.889 52.9063 27.4793Z" fill="white"/>
    </mask>
    <g mask="url(#mask3_212_387)">
        <g filter="url(#filter4_f_212_387)">
            <path d="M44.0765 16.8566C43.9793 16.8045 43.882 16.7747 43.7772 16.7523C43.6725 16.73 43.5678 16.73 43.463 16.7374C43.2535 16.7598 43.0515 16.8268 42.872 16.9311C42.5053 17.1396 42.2659 17.4971 42.1238 17.8844C41.9816 18.2717 41.9293 18.6888 41.9143 19.1059C41.8993 19.523 41.9293 19.9401 42.0041 20.3497C42.0789 20.7593 42.1986 21.1615 42.3557 21.5414C42.3931 21.6382 42.438 21.735 42.4829 21.8244C42.5053 21.8691 42.5278 21.9212 42.5502 21.9659C42.5727 22.0106 42.5951 22.0553 42.6251 22.1C42.7298 22.2787 42.8495 22.45 42.9692 22.6288C43.2012 22.9863 43.4406 23.3512 43.6276 23.7534C43.7174 23.9545 43.7997 24.1779 43.8296 24.4163C43.8446 24.5354 43.8521 24.662 43.8221 24.7961C43.8072 24.8631 43.7922 24.9227 43.7698 24.9898C43.7623 25.0195 43.7398 25.0568 43.7174 25.0866C43.7024 25.1238 43.68 25.1462 43.6575 25.176C43.6126 25.2355 43.5603 25.2728 43.5154 25.3175C43.463 25.3547 43.4181 25.3994 43.3658 25.4292C43.261 25.4962 43.1563 25.5409 43.0515 25.593C42.842 25.6824 42.6325 25.7569 42.4305 25.8239C42.3333 25.8612 42.2285 25.891 42.1387 25.9282C42.0564 25.958 41.9517 26.0101 41.8619 26.0474C41.6674 26.1367 41.4803 26.2261 41.2933 26.3229C40.5526 26.7028 39.8493 27.1571 39.2882 27.7455C39.146 27.8944 39.0188 28.0434 38.9066 28.2073C38.7944 28.3711 38.6896 28.5424 38.6148 28.7137C38.5924 28.7584 38.5774 28.8031 38.5625 28.8478C38.5475 28.8925 38.525 28.9372 38.5176 28.9818C38.5026 29.0265 38.4876 29.0712 38.4802 29.1159L38.4652 29.1829L38.4502 29.25C38.4278 29.4287 38.4353 29.6075 38.4802 29.7862C38.525 29.965 38.5999 30.1288 38.7046 30.2852C38.757 30.3597 38.8094 30.4342 38.8767 30.5012C38.9365 30.5683 39.0114 30.6353 39.0862 30.6949C39.2283 30.814 39.3929 30.9183 39.55 30.9779C39.6249 31.0002 39.6997 31.0151 39.7595 31.0151C39.8194 31.0077 39.8643 30.9928 39.9167 30.9555L40.2309 31.3577C40.0214 31.5141 39.8867 31.7748 39.8493 32.0504C39.8119 32.326 39.8718 32.609 40.0289 32.8175C40.186 33.0261 40.4479 33.1676 40.7247 33.2123C41.0015 33.257 41.2933 33.1974 41.5103 33.0484L41.8021 33.4357C41.5851 33.5996 41.4429 33.8602 41.4055 34.1433C41.3681 34.4263 41.428 34.7242 41.5926 34.9402C41.7572 35.1636 42.0265 35.3051 42.3108 35.3498C42.5951 35.3945 42.9019 35.3424 43.1263 35.1785L43.3732 35.5062L41.4429 36.899L40.4703 37.5768C40.1486 37.8076 39.8119 38.0236 39.5351 38.2843C39.3929 38.4109 39.2732 38.5524 39.1834 38.7088C39.1385 38.7908 39.1011 38.8727 39.0712 38.9546C39.0637 38.9993 39.0488 39.044 39.0413 39.0812C39.0413 39.1259 39.0263 39.1706 39.0338 39.2153C39.0263 39.5803 39.2134 39.9452 39.5052 40.1761C39.6548 40.2953 39.8269 40.3772 40.0139 40.407C40.201 40.4368 40.3955 40.4219 40.5825 40.3697C40.9566 40.2655 41.2933 40.042 41.6225 39.8186C41.3083 40.0644 40.9865 40.3027 40.605 40.4442C40.4105 40.5112 40.2084 40.541 39.999 40.5187C39.7895 40.4964 39.5875 40.4144 39.4229 40.2878C39.0862 40.042 38.8542 39.6473 38.8393 39.2079C38.8318 39.1557 38.8468 39.1036 38.8468 39.044C38.8542 38.9919 38.8692 38.9397 38.8767 38.8801C38.9066 38.7759 38.944 38.6791 38.9889 38.5822C39.0862 38.396 39.2208 38.2247 39.363 38.0832C39.5126 37.9343 39.6698 37.8076 39.8269 37.681L40.2982 37.3161L41.2409 36.5936L43.1338 35.1487L43.3807 35.4764C43.059 35.7222 42.64 35.8042 42.2584 35.752C41.8694 35.6999 41.4953 35.5137 41.2409 35.186C40.994 34.8583 40.9042 34.4412 40.9566 34.0539C41.009 33.6666 41.196 33.2793 41.5252 33.0261L41.817 33.4134C41.4878 33.6591 41.0614 33.7411 40.6723 33.6815C40.2833 33.6219 39.9017 33.4283 39.6473 33.1006C39.3929 32.7728 39.3106 32.3483 39.363 31.961C39.4154 31.5737 39.6024 31.1864 39.9316 30.9332L40.2459 31.3354C40.1187 31.4322 39.9615 31.4918 39.8119 31.4992C39.6548 31.5067 39.5201 31.4769 39.3929 31.4397C39.146 31.3503 38.944 31.2162 38.7645 31.0673C38.6747 30.9928 38.5924 30.9109 38.5101 30.8215C38.4278 30.7321 38.353 30.6353 38.2856 30.5385C38.151 30.3374 38.0537 30.1139 37.9938 29.8756C37.934 29.6373 37.919 29.3915 37.9564 29.1457L37.9714 29.0563L37.9938 28.9669C38.0088 28.9074 38.0238 28.8552 38.0462 28.7956C38.0612 28.7361 38.0836 28.6839 38.1061 28.6318C38.1285 28.5797 38.151 28.5275 38.1734 28.4679C38.3679 28.0434 38.6448 27.6785 38.9515 27.3582C39.2583 27.0379 39.6024 26.7549 39.969 26.5091C40.3356 26.2633 40.7172 26.0548 41.1063 25.8612C41.3008 25.7643 41.4953 25.675 41.6973 25.5856C41.7946 25.5409 41.8918 25.4962 42.0041 25.459C42.1088 25.4217 42.2136 25.3919 42.3183 25.3547C42.5203 25.2877 42.7148 25.2281 42.9019 25.1536C42.9917 25.1164 43.0814 25.0717 43.1563 25.027C43.2012 25.0046 43.2311 24.9749 43.2685 24.9525C43.2984 24.9227 43.3283 24.9004 43.3508 24.8706C43.3658 24.8557 43.3732 24.8408 43.3807 24.8333C43.3882 24.8185 43.3957 24.811 43.4032 24.7887C43.4181 24.7514 43.4331 24.7142 43.4406 24.6769C43.4555 24.6025 43.4555 24.5131 43.4481 24.4237C43.4331 24.245 43.3658 24.0513 43.2909 23.8726C43.1338 23.5002 42.9168 23.1427 42.6924 22.7852C42.5802 22.6064 42.4679 22.4277 42.3557 22.234C42.3258 22.1819 42.3033 22.1372 42.2809 22.0851C42.2584 22.0329 42.236 21.9882 42.2136 21.9361C42.1687 21.8393 42.1313 21.735 42.0864 21.6307C41.9367 21.2211 41.8245 20.7966 41.7647 20.3646C41.7048 19.9326 41.6898 19.5006 41.7272 19.0686C41.7647 18.6367 41.8395 18.2047 42.0041 17.8025C42.049 17.6982 42.0938 17.6014 42.1537 17.512C42.2061 17.4152 42.2734 17.3258 42.3407 17.2439C42.4829 17.0726 42.655 16.9311 42.8495 16.8343C43.044 16.7374 43.261 16.6779 43.478 16.6704C43.5902 16.6704 43.6949 16.6779 43.7997 16.7076C43.8895 16.7598 43.9867 16.8045 44.0765 16.8566Z" fill="#FF4200"/>
        </g>
    </g>
    <mask id="mask4_212_387" style="mask-type:alpha" maskUnits="userSpaceOnUse" x="38" y="16" width="15" height="25">
        <path d="M52.9063 27.4793C52.6744 26.2876 52.0085 25.1705 51.1107 24.3288C50.4298 23.6883 49.6218 23.1893 48.7689 22.8244C48.3349 22.6382 47.8935 22.4818 47.4371 22.3551C46.9882 22.2285 46.4795 22.1913 46.0605 21.9753C45.1851 21.521 44.8709 20.0612 44.811 19.1749C44.7512 18.3258 44.8185 17.2831 44.0778 16.8586C43.569 16.5606 42.8882 16.7543 42.4842 17.1788C42.0802 17.6034 41.9081 18.1917 41.8408 18.7727C41.7136 19.875 41.9081 21.022 42.4019 22.02C42.7386 22.7052 43.9357 24.098 43.5765 24.9172C43.3745 25.3716 42.3794 25.5652 41.9605 25.7439C41.2871 26.0344 40.6362 26.3621 40.0302 26.7792C39.267 27.308 38.4665 28.1049 38.2345 29.0285C38.0999 29.5722 38.2495 30.1457 38.6012 30.5702C38.8929 30.9352 39.6112 31.5161 40.0825 31.1511C39.5439 31.5682 39.4316 32.4247 39.8431 32.9684C40.2546 33.5121 41.115 33.6388 41.6612 33.2366C41.115 33.6537 41.0028 34.5251 41.4143 35.0688C41.8258 35.6125 42.7012 35.7391 43.2548 35.3294C42.17 36.1338 41.0926 36.9307 40.0077 37.7351C39.5738 38.0554 39.1174 38.4129 38.9752 38.9268C38.7732 39.6269 39.3568 40.4387 40.0825 40.4834C40.6512 40.5206 41.1599 40.1631 41.6238 39.828C43.8085 38.2341 45.9931 36.6328 48.1778 35.039C49.2851 34.2271 50.3999 33.4079 51.3052 32.3801C52.2105 31.3522 52.8988 30.0786 52.9961 28.7157C53.011 28.306 52.9811 27.889 52.9063 27.4793Z" fill="white"/>
    </mask>
    <g mask="url(#mask4_212_387)">
        <g filter="url(#filter5_f_212_387)">
            <path d="M38.2334 29.0342C38.166 29.3098 38.181 29.5928 38.2558 29.8609C38.3306 30.129 38.4653 30.3823 38.6449 30.5908C38.8319 30.7993 39.0489 30.9781 39.2958 31.1047C39.4155 31.1643 39.5502 31.2164 39.6848 31.2239C39.8195 31.2388 39.9542 31.2015 40.0514 31.1196L40.1038 31.1866C39.8494 31.3877 39.6923 31.7005 39.6549 32.0208C39.6175 32.3411 39.6923 32.6837 39.8868 32.9369C40.0814 33.1901 40.3881 33.3465 40.7098 33.3987C41.0315 33.4434 41.3682 33.3763 41.6226 33.1901L41.7049 33.2944C41.4505 33.488 41.2934 33.8009 41.2485 34.1211C41.2036 34.4414 41.2784 34.7765 41.473 35.0298C41.6675 35.283 41.9742 35.4469 42.296 35.4915C42.6177 35.5362 42.9544 35.4692 43.2087 35.283L43.2985 35.4022L41.3832 36.8098L40.4255 37.5174C40.1113 37.7557 39.7746 37.9717 39.4903 38.2398C39.3481 38.3739 39.221 38.5228 39.1312 38.6867C39.0863 38.7686 39.0489 38.858 39.0189 38.9474C39.0115 38.9921 38.9965 39.0368 38.989 39.0889C38.989 39.1336 38.9741 39.1857 38.9815 39.2304C38.9815 39.6102 39.1835 39.9826 39.4828 40.221C39.6325 40.3401 39.8195 40.4221 40.0065 40.4519C40.2011 40.4817 40.3956 40.4593 40.5826 40.4072C40.9642 40.2955 41.2934 40.0646 41.6151 39.8411C41.3009 40.0795 40.9717 40.3178 40.5901 40.4444C40.4031 40.504 40.1936 40.5338 39.9916 40.5114C39.7896 40.4891 39.595 40.4072 39.4304 40.2806C39.1087 40.0348 38.8918 39.6475 38.8768 39.2378C38.8693 39.1857 38.8843 39.1336 38.8843 39.0814C38.8918 39.0293 38.9067 38.9772 38.9142 38.9325C38.9441 38.8357 38.9815 38.7388 39.0264 38.6495C39.1237 38.4707 39.2509 38.3143 39.4005 38.1728C39.5427 38.0313 39.6998 37.9047 39.8569 37.7855L40.3357 37.428L41.2934 36.6981L43.2013 35.2755L43.291 35.3947C42.9992 35.6107 42.6177 35.6852 42.266 35.633C41.9144 35.5809 41.5702 35.4022 41.3533 35.1117C41.1363 34.8212 41.054 34.4488 41.1064 34.0988C41.1513 33.7487 41.3308 33.4061 41.6151 33.1901L41.6974 33.2944C41.4056 33.5029 41.0315 33.5774 40.6874 33.5253C40.3432 33.4731 40.0065 33.2944 39.7896 33.0114C39.5726 32.7284 39.5053 32.356 39.5502 32.0134C39.595 31.6707 39.7671 31.3356 40.0514 31.127L40.1038 31.1941C39.9841 31.2909 39.827 31.3281 39.6773 31.3132C39.5277 31.2984 39.393 31.2462 39.2658 31.1792C39.0115 31.0377 38.7945 30.8515 38.6149 30.6355C38.4354 30.412 38.3007 30.1588 38.2334 29.8832C38.1585 29.5928 38.1585 29.3023 38.2334 29.0342Z" fill="#FFF761"/>
        </g>
    </g>
    <mask id="mask5_212_387" style="mask-type:alpha" maskUnits="userSpaceOnUse" x="38" y="16" width="15" height="25">
        <path d="M52.9063 27.4793C52.6744 26.2876 52.0085 25.1705 51.1107 24.3288C50.4298 23.6883 49.6218 23.1893 48.7689 22.8244C48.3349 22.6382 47.8935 22.4818 47.4371 22.3551C46.9882 22.2285 46.4795 22.1913 46.0605 21.9753C45.1851 21.521 44.8709 20.0612 44.811 19.1749C44.7512 18.3258 44.8185 17.2831 44.0778 16.8586C43.569 16.5606 42.8882 16.7543 42.4842 17.1788C42.0802 17.6034 41.9081 18.1917 41.8408 18.7727C41.7136 19.875 41.9081 21.022 42.4019 22.02C42.7386 22.7052 43.9357 24.098 43.5765 24.9172C43.3745 25.3716 42.3794 25.5652 41.9605 25.7439C41.2871 26.0344 40.6362 26.3621 40.0302 26.7792C39.267 27.308 38.4665 28.1049 38.2345 29.0285C38.0999 29.5722 38.2495 30.1457 38.6012 30.5702C38.8929 30.9352 39.6112 31.5161 40.0825 31.1511C39.5439 31.5682 39.4316 32.4247 39.8431 32.9684C40.2546 33.5121 41.115 33.6388 41.6612 33.2366C41.115 33.6537 41.0028 34.5251 41.4143 35.0688C41.8258 35.6125 42.7012 35.7391 43.2548 35.3294C42.17 36.1338 41.0926 36.9307 40.0077 37.7351C39.5738 38.0554 39.1174 38.4129 38.9752 38.9268C38.7732 39.6269 39.3568 40.4387 40.0825 40.4834C40.6512 40.5206 41.1599 40.1631 41.6238 39.828C43.8085 38.2341 45.9931 36.6328 48.1778 35.039C49.2851 34.2271 50.3999 33.4079 51.3052 32.3801C52.2105 31.3522 52.8988 30.0786 52.9961 28.7157C53.011 28.306 52.9811 27.889 52.9063 27.4793Z" fill="white"/>
    </mask>
    <g mask="url(#mask5_212_387)">
        <g filter="url(#filter6_f_212_387)">
            <path d="M51.1093 24.328C50.1516 23.5385 49.0293 22.9874 47.8622 22.6373C47.7125 22.5926 47.5704 22.5554 47.4208 22.5107C47.2786 22.4735 47.129 22.4437 46.9793 22.4139C46.6801 22.3543 46.3583 22.3022 46.0441 22.1606L45.9843 22.1309L45.9244 22.1011L45.8122 22.034C45.7748 22.0117 45.7448 21.9819 45.7074 21.9521C45.6775 21.9223 45.6401 21.9 45.6102 21.8702C45.5503 21.8106 45.483 21.751 45.4381 21.684L45.3633 21.5797L45.2959 21.4754C45.1164 21.1999 44.9892 20.8945 44.8844 20.5891C44.7872 20.2838 44.7273 19.971 44.6824 19.6581C44.66 19.5017 44.645 19.3453 44.6301 19.1815C44.6226 19.0251 44.6151 18.8687 44.6076 18.7123C44.5926 18.4069 44.5852 18.1015 44.5253 17.8185C44.4954 17.677 44.4505 17.5429 44.3906 17.4163C44.3607 17.3493 44.3233 17.2971 44.2934 17.2376C44.2485 17.1854 44.2111 17.1333 44.1587 17.0886C43.9642 16.9024 43.6874 16.8205 43.403 16.8428C43.1187 16.8652 42.8419 16.9843 42.6175 17.1705C42.393 17.3567 42.2209 17.6174 42.1012 17.893C41.974 18.1686 41.8992 18.4665 41.8394 18.7718C41.8543 18.4665 41.8992 18.1537 42.004 17.8557C42.1012 17.5578 42.2658 17.2674 42.4978 17.0365C42.7372 16.8056 43.0439 16.6492 43.3806 16.6045C43.5452 16.5821 43.7248 16.5896 43.8968 16.6343C43.9791 16.6566 44.0614 16.6864 44.1437 16.7311C44.1812 16.7534 44.2186 16.7758 44.256 16.7981C44.2634 16.813 44.2859 16.8205 44.3009 16.8354L44.3532 16.8801C44.4206 16.9322 44.4804 16.9992 44.5328 17.0663C44.5852 17.1407 44.6375 17.2078 44.6749 17.2822C44.7572 17.4312 44.8096 17.5951 44.847 17.7515C44.9218 18.0717 44.9443 18.392 44.9667 18.6974L44.9967 19.1591C45.0116 19.3081 45.0266 19.457 45.049 19.606C45.0939 19.9039 45.1613 20.1944 45.251 20.4774C45.3408 20.7604 45.4531 21.036 45.6102 21.2743C45.7673 21.5127 45.9618 21.7212 46.2087 21.8329C46.4631 21.9595 46.7549 22.0191 47.0616 22.0862C47.2113 22.1234 47.3684 22.1532 47.5255 22.2053C47.6751 22.25 47.8248 22.3022 47.9744 22.3543C48.5655 22.5628 49.1416 22.831 49.6803 23.1512C50.189 23.4864 50.6828 23.8737 51.1093 24.328Z" fill="#FFFCBD"/>
        </g>
    </g>
    <mask id="mask6_212_387" style="mask-type:alpha" maskUnits="userSpaceOnUse" x="38" y="16" width="15" height="25">
        <path d="M52.9063 27.4793C52.6744 26.2876 52.0085 25.1705 51.1107 24.3288C50.4298 23.6883 49.6218 23.1893 48.7689 22.8244C48.3349 22.6382 47.8935 22.4818 47.4371 22.3551C46.9882 22.2285 46.4795 22.1913 46.0605 21.9753C45.1851 21.521 44.8709 20.0612 44.811 19.1749C44.7512 18.3258 44.8185 17.2831 44.0778 16.8586C43.569 16.5606 42.8882 16.7543 42.4842 17.1788C42.0802 17.6034 41.9081 18.1917 41.8408 18.7727C41.7136 19.875 41.9081 21.022 42.4019 22.02C42.7386 22.7052 43.9357 24.098 43.5765 24.9172C43.3745 25.3716 42.3794 25.5652 41.9605 25.7439C41.2871 26.0344 40.6362 26.3621 40.0302 26.7792C39.267 27.308 38.4665 28.1049 38.2345 29.0285C38.0999 29.5722 38.2495 30.1457 38.6012 30.5702C38.8929 30.9352 39.6112 31.5161 40.0825 31.1511C39.5439 31.5682 39.4316 32.4247 39.8431 32.9684C40.2546 33.5121 41.115 33.6388 41.6612 33.2366C41.115 33.6537 41.0028 34.5251 41.4143 35.0688C41.8258 35.6125 42.7012 35.7391 43.2548 35.3294C42.17 36.1338 41.0926 36.9307 40.0077 37.7351C39.5738 38.0554 39.1174 38.4129 38.9752 38.9268C38.7732 39.6269 39.3568 40.4387 40.0825 40.4834C40.6512 40.5206 41.1599 40.1631 41.6238 39.828C43.8085 38.2341 45.9931 36.6328 48.1778 35.039C49.2851 34.2271 50.3999 33.4079 51.3052 32.3801C52.2105 31.3522 52.8988 30.0786 52.9961 28.7157C53.011 28.306 52.9811 27.889 52.9063 27.4793Z" fill="white"/>
    </mask>
    <g mask="url(#mask6_212_387)">
        <mask id="mask7_212_387" style="mask-type:alpha" maskUnits="userSpaceOnUse" x="38" y="16" width="15" height="25">
            <path d="M52.9053 27.4793C52.6734 26.2876 52.0075 25.1705 51.1097 24.3288C50.4289 23.6883 49.6208 23.1893 48.7679 22.8244C48.334 22.6382 47.8925 22.4818 47.4361 22.3551C46.9872 22.2285 46.4785 22.1913 46.0595 21.9753C45.1841 21.521 44.8699 20.0612 44.81 19.1749C44.7502 18.3258 44.8175 17.2831 44.0768 16.8586C43.5681 16.5606 42.8872 16.7543 42.4832 17.1788C42.0792 17.6034 41.9071 18.1917 41.8398 18.7727C41.7126 19.875 41.9071 21.022 42.4009 22.02C42.7376 22.7052 43.9347 24.098 43.5756 24.9172C43.3735 25.3716 42.3785 25.5652 41.9595 25.7439C41.2861 26.0344 40.6352 26.3621 40.0292 26.7792C39.2661 27.308 38.4655 28.1049 38.2336 29.0285C38.0989 29.5722 38.2485 30.1457 38.6002 30.5702C38.892 30.9352 39.6102 31.5161 40.0816 31.1511C39.5429 31.5682 39.4307 32.4247 39.8421 32.9684C40.2536 33.5121 41.1141 33.6388 41.6602 33.2366C41.1141 33.6537 41.0018 34.5251 41.4133 35.0688C41.8248 35.6125 42.7002 35.7391 43.2538 35.3294C42.169 36.1338 41.0916 36.9307 40.0067 37.7351C39.5728 38.0554 39.1164 38.4129 38.9743 38.9268C38.7723 39.6269 39.3558 40.4387 40.0816 40.4834C40.6502 40.5206 41.1589 40.1631 41.6228 39.828C43.8075 38.2341 45.9922 36.6328 48.1768 35.039C49.2841 34.2271 50.3989 33.4079 51.3042 32.3801C52.2095 31.3522 52.8978 30.0786 52.9951 28.7157C53.0101 28.306 52.9801 27.889 52.9053 27.4793Z" fill="#ED5700"/>
        </mask>
        <g mask="url(#mask7_212_387)">
            <g filter="url(#filter7_f_212_387)">
                <path d="M43.5748 24.9165C43.5598 24.9612 43.5523 25.0059 43.5224 25.0506C43.5074 25.0729 43.5 25.0953 43.485 25.1102L43.4401 25.1697C43.4102 25.207 43.3728 25.2368 43.3428 25.274C43.3054 25.3038 43.268 25.3336 43.2306 25.3708C43.081 25.49 42.9089 25.5794 42.7443 25.6687C42.5797 25.7507 42.4076 25.8252 42.2505 25.8996C42.2131 25.9145 42.1757 25.9369 42.1383 25.9518C42.1009 25.9741 42.0709 25.989 42.0335 26.0114L41.8016 26.138C41.1806 26.4806 40.5821 26.8306 40.0359 27.2403C39.9012 27.3445 39.7665 27.4488 39.6394 27.5605C39.5122 27.6722 39.3925 27.784 39.2728 27.9031C39.0408 28.1415 38.8313 28.4021 38.6667 28.6777C38.5844 28.8192 38.5171 28.9682 38.4572 29.1171C38.4049 29.2586 38.3675 29.4151 38.3675 29.5789C38.345 29.9066 38.4273 30.2492 38.5919 30.5769C38.3076 30.346 38.0906 30.0034 38.0009 29.6161C37.956 29.4225 37.9485 29.214 37.9784 29.0054C37.9859 28.9533 37.9934 28.9086 38.0083 28.8565C38.0158 28.8043 38.0308 28.7596 38.0457 28.715C38.0607 28.6703 38.0682 28.6181 38.0906 28.5734L38.143 28.4319C38.2852 28.067 38.5021 27.7318 38.749 27.4339C38.9959 27.136 39.2802 26.8828 39.5795 26.6519C40.1855 26.1901 40.8664 25.8624 41.5547 25.6092C41.637 25.5794 41.7268 25.5496 41.8166 25.5198C41.854 25.5049 41.9138 25.49 41.9587 25.4751C42.0036 25.4602 42.056 25.4528 42.1009 25.4379C42.2804 25.3932 42.46 25.3634 42.6321 25.3261C42.8041 25.2889 42.9762 25.2517 43.1408 25.1921C43.1782 25.1772 43.2231 25.1623 43.2605 25.1474C43.2979 25.125 43.3428 25.1101 43.3728 25.0878C43.4476 25.0431 43.5149 24.991 43.5748 24.9165Z" fill="#FFFB69"/>
            </g>
        </g>
        <path d="M52.9053 27.4793C52.6734 26.2876 52.0075 25.1705 51.1097 24.3288C50.4289 23.6883 49.6208 23.1893 48.7679 22.8244C48.334 22.6382 47.8925 22.4818 47.4361 22.3551C46.9872 22.2285 46.4785 22.1913 46.0595 21.9753C45.1841 21.521 44.8699 20.0612 44.81 19.1749C44.7502 18.3258 44.8175 17.2831 44.0768 16.8586C43.5681 16.5606 42.8872 16.7543 42.4832 17.1788C42.0792 17.6034 41.9071 18.1917 41.8398 18.7727C41.7126 19.875 41.9071 21.022 42.4009 22.02C42.7376 22.7052 43.9347 24.098 43.5756 24.9172C43.3735 25.3716 42.3785 25.5652 41.9595 25.7439C41.2861 26.0344 40.6352 26.3621 40.0292 26.7792C39.2661 27.308 38.4655 28.1049 38.2336 29.0285C38.0989 29.5722 38.2485 30.1457 38.6002 30.5702C38.892 30.9352 39.6102 31.5161 40.0816 31.1511C39.5429 31.5682 39.4307 32.4247 39.8421 32.9684C40.2536 33.5121 41.1141 33.6388 41.6602 33.2366C41.1141 33.6537 41.0018 34.5251 41.4133 35.0688C41.8248 35.6125 42.7002 35.7391 43.2538 35.3294C42.169 36.1338 41.0916 36.9307 40.0067 37.7351C39.5728 38.0554 39.1164 38.4129 38.9743 38.9268C38.7723 39.6269 39.3558 40.4387 40.0816 40.4834C40.6502 40.5206 41.1589 40.1631 41.6228 39.828C43.8075 38.2341 45.9922 36.6328 48.1768 35.039C49.2841 34.2271 50.3989 33.4079 51.3042 32.3801C52.2095 31.3522 52.8978 30.0786 52.9951 28.7157C53.0101 28.306 52.9801 27.889 52.9053 27.4793Z" fill="url(#paint13_linear_212_387)"/>
    </g>
    <mask id="mask8_212_387" style="mask-type:alpha" maskUnits="userSpaceOnUse" x="38" y="16" width="15" height="25">
        <path d="M52.9063 27.4793C52.6744 26.2876 52.0085 25.1705 51.1107 24.3288C50.4298 23.6883 49.6218 23.1893 48.7689 22.8244C48.3349 22.6382 47.8935 22.4818 47.4371 22.3551C46.9882 22.2285 46.4795 22.1913 46.0605 21.9753C45.1851 21.521 44.8709 20.0612 44.811 19.1749C44.7512 18.3258 44.8185 17.2831 44.0778 16.8586C43.569 16.5606 42.8882 16.7543 42.4842 17.1788C42.0802 17.6034 41.9081 18.1917 41.8408 18.7727C41.7136 19.875 41.9081 21.022 42.4019 22.02C42.7386 22.7052 43.9357 24.098 43.5765 24.9172C43.3745 25.3716 42.3794 25.5652 41.9605 25.7439C41.2871 26.0344 40.6362 26.3621 40.0302 26.7792C39.267 27.308 38.4665 28.1049 38.2345 29.0285C38.0999 29.5722 38.2495 30.1457 38.6012 30.5702C38.8929 30.9352 39.6112 31.5161 40.0825 31.1511C39.5439 31.5682 39.4316 32.4247 39.8431 32.9684C40.2546 33.5121 41.115 33.6388 41.6612 33.2366C41.115 33.6537 41.0028 34.5251 41.4143 35.0688C41.8258 35.6125 42.7012 35.7391 43.2548 35.3294C42.17 36.1338 41.0926 36.9307 40.0077 37.7351C39.5738 38.0554 39.1174 38.4129 38.9752 38.9268C38.7732 39.6269 39.3568 40.4387 40.0825 40.4834C40.6512 40.5206 41.1599 40.1631 41.6238 39.828C43.8085 38.2341 45.9931 36.6328 48.1778 35.039C49.2851 34.2271 50.3999 33.4079 51.3052 32.3801C52.2105 31.3522 52.8988 30.0786 52.9961 28.7157C53.011 28.306 52.9811 27.889 52.9063 27.4793Z" fill="white"/>
    </mask>
    <g mask="url(#mask8_212_387)">
        <g filter="url(#filter8_f_212_387)">
            <path d="M38.9668 38.9333C38.9219 39.1493 38.9444 39.3802 39.0267 39.5813C39.109 39.7824 39.2362 39.9611 39.3933 40.1026C39.5504 40.2442 39.7449 40.3335 39.9469 40.3708C40.149 40.4006 40.3584 40.3708 40.553 40.3037C40.9495 40.1622 41.2862 39.8866 41.6453 39.6111C41.9969 39.3355 42.3561 39.0674 42.7077 38.7918C43.4185 38.2481 44.1367 37.7119 44.8475 37.1756L47.0023 35.5817C47.728 35.0529 48.4537 34.539 49.1645 34.0028C49.5161 33.7347 49.8678 33.4591 50.197 33.1761C50.3616 33.0345 50.5262 32.8856 50.6833 32.7292C50.8404 32.5802 50.9975 32.4238 51.1472 32.26C51.4389 31.9397 51.7158 31.5971 51.9552 31.2322C52.1946 30.8672 52.4041 30.4874 52.5687 30.0777C52.9054 29.2733 53.0251 28.3721 52.9054 27.4858C53.1373 28.3498 53.0924 29.2957 52.8081 30.1596C52.666 30.5916 52.4714 31.0087 52.247 31.4035C52.0225 31.7982 51.7457 32.1706 51.4539 32.5206C50.8703 33.2207 50.1745 33.824 49.4712 34.3826C49.1196 34.6656 48.753 34.9263 48.3939 35.1945L47.3165 35.9914L45.1393 37.5629C44.4061 38.0768 43.6803 38.6056 42.9471 39.1121C42.5805 39.3653 42.2139 39.626 41.8473 39.8792C41.6603 40.0058 41.4732 40.1324 41.2787 40.2516C41.0767 40.3708 40.8672 40.475 40.6353 40.5421C40.4033 40.6017 40.1564 40.624 39.9095 40.5644C39.6701 40.5048 39.4606 40.3708 39.296 40.1995C39.1389 40.0282 39.0192 39.8196 38.9519 39.5962C38.892 39.3802 38.892 39.1419 38.9668 38.9333Z" fill="#FF4324"/>
        </g>
    </g>
    <defs>
        <filter id="filter0_f_212_387" x="-13.5483" y="0.200684" width="85.916" height="73.0952" filterUnits="userSpaceOnUse" color-interpolation-filters="sRGB">
            <feFlood flood-opacity="0" result="BackgroundImageFix"/>
            <feBlend mode="normal" in="SourceGraphic" in2="BackgroundImageFix" result="shape"/>
            <feGaussianBlur stdDeviation="12.5" result="effect1_foregroundBlur_212_387"/>
        </filter>
        <filter id="filter1_f_212_387" x="-28.5483" y="-14.7993" width="115.916" height="103.095" filterUnits="userSpaceOnUse" color-interpolation-filters="sRGB">
            <feFlood flood-opacity="0" result="BackgroundImageFix"/>
            <feBlend mode="normal" in="SourceGraphic" in2="BackgroundImageFix" result="shape"/>
            <feGaussianBlur stdDeviation="20" result="effect1_foregroundBlur_212_387"/>
        </filter>
        <filter id="filter2_f_212_387" x="-1.80127" y="-23.2529" width="94.8145" height="103.771" filterUnits="userSpaceOnUse" color-interpolation-filters="sRGB">
            <feFlood flood-opacity="0" result="BackgroundImageFix"/>
            <feBlend mode="normal" in="SourceGraphic" in2="BackgroundImageFix" result="shape"/>
            <feGaussianBlur stdDeviation="20" result="effect1_foregroundBlur_212_387"/>
        </filter>
        <filter id="filter3_f_212_387" x="26.0728" y="4.60254" width="30.0615" height="47.9951" filterUnits="userSpaceOnUse" color-interpolation-filters="sRGB">
            <feFlood flood-opacity="0" result="BackgroundImageFix"/>
            <feBlend mode="normal" in="SourceGraphic" in2="BackgroundImageFix" result="shape"/>
            <feGaussianBlur stdDeviation="6" result="effect1_foregroundBlur_212_387"/>
        </filter>
        <filter id="filter4_f_212_387" x="17.936" y="-3.32959" width="46.1406" height="63.8555" filterUnits="userSpaceOnUse" color-interpolation-filters="sRGB">
            <feFlood flood-opacity="0" result="BackgroundImageFix"/>
            <feBlend mode="normal" in="SourceGraphic" in2="BackgroundImageFix" result="shape"/>
            <feGaussianBlur stdDeviation="10" result="effect1_foregroundBlur_212_387"/>
        </filter>
        <filter id="filter5_f_212_387" x="28.1772" y="19.0342" width="25.1211" height="31.4849" filterUnits="userSpaceOnUse" color-interpolation-filters="sRGB">
            <feFlood flood-opacity="0" result="BackgroundImageFix"/>
            <feBlend mode="normal" in="SourceGraphic" in2="BackgroundImageFix" result="shape"/>
            <feGaussianBlur stdDeviation="5" result="effect1_foregroundBlur_212_387"/>
        </filter>
        <filter id="filter6_f_212_387" x="35.8394" y="10.5923" width="21.27" height="19.7358" filterUnits="userSpaceOnUse" color-interpolation-filters="sRGB">
            <feFlood flood-opacity="0" result="BackgroundImageFix"/>
            <feBlend mode="normal" in="SourceGraphic" in2="BackgroundImageFix" result="shape"/>
            <feGaussianBlur stdDeviation="3" result="effect1_foregroundBlur_212_387"/>
        </filter>
        <filter id="filter7_f_212_387" x="25.9604" y="12.9165" width="29.6143" height="29.6606" filterUnits="userSpaceOnUse" color-interpolation-filters="sRGB">
            <feFlood flood-opacity="0" result="BackgroundImageFix"/>
            <feBlend mode="normal" in="SourceGraphic" in2="BackgroundImageFix" result="shape"/>
            <feGaussianBlur stdDeviation="6" result="effect1_foregroundBlur_212_387"/>
        </filter>
        <filter id="filter8_f_212_387" x="18.9087" y="7.48584" width="54.1455" height="53.1138" filterUnits="userSpaceOnUse" color-interpolation-filters="sRGB">
            <feFlood flood-opacity="0" result="BackgroundImageFix"/>
            <feBlend mode="normal" in="SourceGraphic" in2="BackgroundImageFix" result="shape"/>
            <feGaussianBlur stdDeviation="10" result="effect1_foregroundBlur_212_387"/>
        </filter>
        <radialGradient id="paint0_radial_212_387" cx="0" cy="0" r="1" gradientUnits="userSpaceOnUse" gradientTransform="translate(24.4628 12.6696) rotate(74.9728) scale(35.8679 36.0927)">
            <stop stop-color="#FFDE43"/>
            <stop offset="1" stop-color="#FFBC00"/>
        </radialGradient>
        <radialGradient id="paint1_radial_212_387" cx="0" cy="0" r="1" gradientUnits="userSpaceOnUse" gradientTransform="translate(25.7073 17.3053) rotate(74.9728) scale(31.0681 31.2629)">
            <stop stop-color="white" stop-opacity="0.5"/>
            <stop offset="0.782278"/>
        </radialGradient>
        <radialGradient id="paint2_radial_212_387" cx="0" cy="0" r="1" gradientUnits="userSpaceOnUse" gradientTransform="translate(25.7073 17.3053) rotate(74.9728) scale(31.0681 31.2629)">
            <stop stop-color="white" stop-opacity="0.5"/>
            <stop offset="0.782278"/>
        </radialGradient>
        <radialGradient id="paint3_radial_212_387" cx="0" cy="0" r="1" gradientUnits="userSpaceOnUse" gradientTransform="translate(23.4499 8.89647) rotate(74.9728) scale(39.7747 54.1266)">
            <stop offset="0.0922635" stop-color="white"/>
            <stop offset="0.670207" stop-color="white" stop-opacity="0"/>
        </radialGradient>
        <radialGradient id="paint4_radial_212_387" cx="0" cy="0" r="1" gradientUnits="userSpaceOnUse" gradientTransform="translate(30.7931 36.2909) rotate(-14.9642) scale(7.89666 5.5984)">
            <stop stop-color="#743C1C"/>
            <stop offset="1" stop-color="#401C02"/>
        </radialGradient>
        <linearGradient id="paint5_linear_212_387" x1="31.5808" y1="39.2228" x2="30.0123" y2="33.3546" gradientUnits="userSpaceOnUse">
            <stop offset="0.265625" stop-color="#FFDE43"/>
            <stop offset="1" stop-color="#F79D14"/>
        </linearGradient>
        <radialGradient id="paint6_radial_212_387" cx="0" cy="0" r="1" gradientUnits="userSpaceOnUse" gradientTransform="translate(22.6033 28.0924) rotate(-14.9743) scale(4.03799 3.32665)">
            <stop stop-color="#743C1C"/>
            <stop offset="1" stop-color="#401C02"/>
        </radialGradient>
        <linearGradient id="paint7_linear_212_387" x1="23.5364" y1="31.557" x2="21.676" y2="24.6013" gradientUnits="userSpaceOnUse">
            <stop stop-color="#FFDE43"/>
            <stop offset="0.22" stop-color="#FED93F"/>
            <stop offset="0.51" stop-color="#FCC934"/>
            <stop offset="0.82" stop-color="#F9AF21"/>
            <stop offset="1" stop-color="#F79D14"/>
        </linearGradient>
        <radialGradient id="paint8_radial_212_387" cx="0" cy="0" r="1" gradientUnits="userSpaceOnUse" gradientTransform="translate(4786.44 3645.72) rotate(-14.9744) scale(263.712 301.527)">
            <stop stop-color="#743C1C"/>
            <stop offset="1" stop-color="#401C02"/>
        </radialGradient>
        <radialGradient id="paint9_radial_212_387" cx="0" cy="0" r="1" gradientUnits="userSpaceOnUse" gradientTransform="translate(33.7607 25.1168) rotate(-14.9744) scale(4.03564 3.32666)">
            <stop stop-color="#743C1C"/>
            <stop offset="1" stop-color="#401C02"/>
        </radialGradient>
        <linearGradient id="paint10_linear_212_387" x1="34.6958" y1="28.5814" x2="32.8353" y2="21.6257" gradientUnits="userSpaceOnUse">
            <stop stop-color="#FFDE43"/>
            <stop offset="0.22" stop-color="#FED93F"/>
            <stop offset="0.51" stop-color="#FCC934"/>
            <stop offset="0.82" stop-color="#F9AF21"/>
            <stop offset="1" stop-color="#F79D14"/>
        </linearGradient>
        <radialGradient id="paint11_radial_212_387" cx="0" cy="0" r="1" gradientUnits="userSpaceOnUse" gradientTransform="translate(24.8016 11.138) rotate(79.9555) scale(35.904 36.0572)">
            <stop stop-color="#FFDE43"/>
            <stop offset="1" stop-color="#FFBC00"/>
        </radialGradient>
        <linearGradient id="paint12_linear_212_387" x1="35.4044" y1="36.2332" x2="49.4355" y2="22.1384" gradientUnits="userSpaceOnUse">
            <stop offset="0.0825904" stop-color="#E88B00"/>
            <stop offset="0.1269" stop-color="#EA9206"/>
            <stop offset="0.3512" stop-color="#F3B320"/>
            <stop offset="0.5663" stop-color="#FACB34"/>
            <stop offset="0.7664" stop-color="#FED93F"/>
            <stop offset="0.9366" stop-color="#FFDE43"/>
        </linearGradient>
        <linearGradient id="paint13_linear_212_387" x1="54.8448" y1="28.6036" x2="34.4427" y2="28.6036" gradientUnits="userSpaceOnUse">
            <stop stop-color="#ED5700"/>
            <stop offset="0.0354845" stop-color="#EE5F03" stop-opacity="0.9573"/>
            <stop offset="0.2673" stop-color="#F58F15" stop-opacity="0.6785"/>
            <stop offset="0.4717" stop-color="#FBB223" stop-opacity="0.4326"/>
            <stop offset="0.6389" stop-color="#FEC72B" stop-opacity="0.2314"/>
            <stop offset="0.7481" stop-color="#FFCF2E" stop-opacity="0.1"/>
        </linearGradient>
    </defs>
</svg>
