<svg width="60" height="60" viewBox="0 0 60 60" fill="none" xmlns="http://www.w3.org/2000/svg">
<path d="M19.1645 47.5669C19.1252 47.5669 19.0823 47.5598 19.0395 47.5492C14.7377 46.2493 10.0787 41.5884 9.06754 37.5755C9.01033 37.3488 9.14967 37.1222 9.37474 37.0654C9.60342 37.0088 9.8321 37.1469 9.88932 37.3701C10.8218 41.0712 15.3022 45.5374 19.2859 46.7452C19.5111 46.8125 19.6361 47.0462 19.5682 47.2693C19.5146 47.45 19.3467 47.5669 19.1645 47.5669Z" fill="#975500"/>
<path d="M21.215 52.8547C21.1828 52.8547 21.1507 52.8512 21.1185 52.844C17.5599 52.0223 13.4225 49.3873 9.77102 45.6117C6.35532 42.0841 4.14371 38.3297 4.0008 35.8151C3.98651 35.5848 4.16515 35.383 4.40096 35.3724C4.6332 35.3582 4.83685 35.5353 4.84757 35.769C4.9762 38.0571 7.14849 41.6909 10.382 45.0308C13.9227 48.6931 17.9065 51.2396 21.3114 52.0259C21.5401 52.079 21.6831 52.3057 21.6295 52.5323C21.583 52.7236 21.4079 52.8547 21.215 52.8547Z" fill="#975500"/>
<path d="M39.4544 16.0521C39.2651 16.0521 39.0935 15.9282 39.0435 15.7404C38.4468 13.495 35.735 10.2719 33.2662 9.64149C33.0411 9.58477 32.9017 9.35459 32.9625 9.1279C33.0233 8.90121 33.2519 8.76666 33.4805 8.82686C36.2603 9.53878 39.1971 13.0132 39.8653 15.528C39.926 15.7511 39.7903 15.9813 39.5616 16.0415C39.5259 16.0486 39.4902 16.0521 39.4544 16.0521Z" fill="#975500"/>
<path d="M44.8034 16.7992C44.614 16.7992 44.4425 16.6717 44.3925 16.4839C42.8025 10.2787 36.8573 5.43708 33.463 4.83497C33.2308 4.79247 33.0807 4.57642 33.12 4.34621C33.1629 4.11598 33.3808 3.96723 33.613 4.00619C37.311 4.66496 43.5136 9.65534 45.2143 16.2749C45.2714 16.5016 45.1357 16.7283 44.907 16.785C44.8712 16.7956 44.8391 16.7992 44.8034 16.7992Z" fill="#975500"/>
<path d="M34.2448 27.8246C34.9273 28.5719 35.5418 29.553 35.2809 29.8115C35.0201 30.0701 34.2198 29.6026 33.6089 28.9934C32.9979 28.3877 31.5366 34.8338 31.3937 35.1596C31.2865 35.4041 29.5858 37.3378 28.6962 39.176C28.3996 39.7888 28.4425 41.6376 28.3317 41.7474C27.8851 42.1901 27.317 42.1441 26.0915 41.0709C24.866 39.9977 24.23 46.3907 25.6914 47.4001C28.1888 49.1285 33.1837 55.9961 39.7828 55.9961C47.418 55.9961 54.4889 48.1014 54.4889 42.307C54.4889 36.5126 52.7738 34.3167 52.8882 29.4609C52.9811 25.3489 56.0001 23.3867 56.0001 21.3325C56.0001 19.6041 53.4098 19.1826 52.5595 19.1826C51.0517 19.1826 47.1858 21.0988 47.1858 26.1423C47.1858 28.1044 46.6214 29.8788 44.5955 29.8788C42.5697 29.8788 40.3081 27.1234 38.9396 24.9735" fill="url(#paint0_linear_54_11751)"/>
<path d="M55.9969 21.3331C55.9969 20.3945 55.2288 19.842 54.3927 19.5303C55.3966 22.8277 50.3053 22.9694 50.3053 34.204C50.3053 45.4385 43.7062 48.7076 40.9729 49.2707C38.2396 49.8304 33.4234 49.9933 29.7576 45.5342C28.6322 44.1635 27.1066 42.6759 25.4094 41.2699C24.6913 42.4564 24.5377 46.6038 25.6917 47.4007C28.1892 49.1291 33.184 55.9966 39.7832 55.9966C47.4184 55.9966 54.4891 48.1019 54.4891 42.3076C54.4891 36.5132 52.7742 34.3173 52.8885 29.4615C52.9814 25.3495 55.9969 23.3873 55.9969 21.3331Z" fill="url(#paint1_linear_54_11751)"/>
<path d="M26.0922 41.0714C24.8667 39.9982 21.9691 36.9381 20.0827 35.4399C18.1962 33.9453 16.549 33.963 15.4164 35.6135C14.2838 37.264 17.5852 40.1612 18.339 40.9084C19.4931 42.0524 24.2307 46.3912 25.692 47.4041" fill="url(#paint2_linear_54_11751)"/>
<path d="M31.3948 35.1597C31.2518 35.4856 30.2907 35.7122 28.3792 33.6509C26.918 32.0748 23.0056 27.5448 20.6975 25.4905C18.3894 23.4364 16.5959 22.5934 15.088 23.6701C13.5803 24.7468 14.4378 26.9852 16.1242 28.8553C18.2108 31.168 20.6118 33.5269 22.9092 35.7937C24.7063 37.5645 28.7758 41.3082 28.3292 41.751" fill="url(#paint3_linear_54_11751)"/>
<path d="M22.9119 35.7906C24.609 37.4623 28.3249 40.8872 28.3641 41.6416C28.9001 40.8129 27.9211 38.3478 26.8849 37.4836C20.8968 32.4861 15.1123 24.4285 14.3763 24.6693C14.0619 25.8417 14.8586 27.4497 16.1234 28.8557C18.21 31.165 20.611 33.5274 22.9119 35.7906Z" fill="url(#paint4_linear_54_11751)"/>
<path d="M38.9366 24.9773C37.5682 22.8274 31.9587 15.9139 30.5938 13.9517C29.2254 11.9895 27.3889 11.9895 26.117 12.8786C24.8451 13.7675 24.4663 15.542 27.3318 19.314C29.1397 21.6941 30.6403 23.8829 34.2489 27.8284L38.4435 27.538L38.9366 24.9773Z" fill="url(#paint5_linear_54_11751)"/>
<path d="M33.6093 28.994C32.9983 28.3883 27.5782 22.0202 26.3527 20.6531C24.0554 18.0958 21.1435 12.6167 17.6706 15.057C15.8449 16.3391 16.8346 18.1985 17.3526 18.9459C17.8707 19.6932 24.6092 27.4037 25.2701 28.0554C25.9312 28.7106 31.537 34.8309 31.3977 35.1567" fill="url(#paint6_linear_54_11751)"/>
<path d="M34.2453 27.8248C34.9028 28.5438 35.4923 29.4753 35.3065 29.7764C37.4931 28.0338 32.8698 22.9124 30.2509 19.8381C28.2251 17.458 27.6712 14.4298 26.2206 12.8076C26.1849 12.8289 26.1528 12.8537 26.117 12.8749C24.8451 13.7639 24.4663 15.5384 27.3318 19.3104C29.1361 21.6905 30.6403 23.8829 34.2453 27.8248Z" fill="url(#paint7_linear_54_11751)"/>
<path d="M25.2666 28.0583C25.9276 28.7135 31.5334 34.8338 31.3941 35.1596C33.1269 32.8469 26.4099 26.0501 23.1586 22.6146C20.3396 19.6359 19.8572 17.0292 17.1061 15.5664C16.0842 16.7919 16.8953 18.2936 17.349 18.9488C17.8671 19.6962 24.6092 27.4066 25.2666 28.0583Z" fill="url(#paint8_linear_54_11751)"/>
<path d="M31.2694 35.2985C31.0729 35.4189 30.6692 35.4294 30.0439 35.0718C30.5084 35.4437 30.9371 35.5853 31.2694 35.2985Z" fill="url(#paint9_linear_54_11751)"/>
<path d="M52.9558 19.8839C54.3957 19.6288 54.6494 19.7918 54.3921 19.5297C53.6918 19.2712 52.9415 19.1826 52.5557 19.1826C51.0479 19.1826 47.182 21.0988 47.182 26.1423C47.182 28.1044 46.6175 29.8788 44.5881 29.8788C43.7878 29.8788 42.9553 29.4503 42.1514 28.7986C45.71 32.7052 48.5004 29.0253 48.9256 26.5035C49.3508 23.9818 48.7326 20.6347 52.9558 19.8839Z" fill="url(#paint10_radial_54_11751)"/>
<path d="M25.6805 13.2573C24.8016 14.2455 24.8302 16.0164 27.3277 19.3103C29.1356 21.6904 30.6362 23.8792 34.2448 27.8247C34.9272 28.5721 35.5417 29.5532 35.2809 29.8117C35.8848 25.7245 30.0145 21.7045 28.1066 18.6231C26.5953 16.1794 26.2951 14.7378 25.6805 13.2573Z" fill="url(#paint11_linear_54_11751)"/>
<path d="M25.2668 28.0587C25.9278 28.7139 31.5336 34.8341 31.3943 35.1599C32.6305 34.2851 31.7873 32.9215 29.8758 31.0267C25.9564 27.1413 20.5006 21.9207 18.3068 17.621C18.0996 17.2137 17.7137 16.9126 17.26 16.8559C16.0773 16.7037 16.9563 18.3789 17.3528 18.9491C17.8673 19.6965 24.6094 27.4069 25.2668 28.0587Z" fill="url(#paint12_linear_54_11751)"/>
<path d="M16.1237 28.8552C18.2102 31.1681 20.6112 33.5269 22.9086 35.7937C24.7057 37.5645 28.7753 41.3082 28.3286 41.7509C30.8511 39.6471 19.1356 32.0429 14.373 24.6724C14.0621 25.8377 14.8589 27.4492 16.1237 28.8552Z" fill="url(#paint13_linear_54_11751)"/>
<path d="M27.8141 42.1691C28.0534 42.0771 28.1785 41.9673 28.2178 41.8469C27.7855 42.1763 27.2174 42.0594 26.092 41.0712C24.8664 39.998 21.9688 36.938 20.0823 35.4398C19.2534 34.7846 18.471 34.4197 17.7563 34.356C18.7782 34.99 18.303 35.2166 20.5754 36.945C21.7974 37.873 26.2563 42.7748 27.8141 42.1691Z" fill="url(#paint14_linear_54_11751)"/>
<path d="M24.8452 30.956C26.4994 32.9535 29.7293 36.251 31.1799 35.3407C30.7797 35.4753 29.8686 35.2557 28.3823 33.6513C26.921 32.0752 23.0087 27.5452 20.7006 25.491C18.832 23.8264 17.2992 22.9586 15.9844 23.2597C19.811 24.5064 23.2767 29.0682 24.8452 30.956Z" fill="url(#paint15_linear_54_11751)"/>
<path d="M26.6348 22.3602C29.2751 25.2078 33.1947 30.857 35.1812 29.8688C34.856 29.968 34.1557 29.5394 33.6091 28.994C32.9981 28.3884 27.5781 22.0202 26.3525 20.6531C24.7591 18.8822 22.8761 15.7087 20.7109 14.7383C22.894 16.4454 24.4947 20.0545 26.6348 22.3602Z" fill="url(#paint16_linear_54_11751)"/>
<path d="M42.152 28.8021C42.1556 28.8021 42.1556 28.8021 42.152 28.8021C40.9193 27.8033 39.7617 26.2768 38.9328 24.9769C37.568 22.827 31.9586 15.9135 30.5937 13.9513C30.1757 13.3528 29.7183 12.9384 29.2432 12.6763C29.8791 13.5829 30.2399 14.8757 31.6798 16.4766C33.9879 19.0444 37.007 23.67 38.0432 25.2603C39.0757 26.8434 40.7478 30.194 42.152 28.8021Z" fill="url(#paint17_linear_54_11751)"/>
<path d="M49.7117 51.6047C48.8541 49.5363 47.6001 48.2755 45.7887 49.4584C40.8473 52.685 35.1629 51.5942 28.035 45.8847C21.6788 40.7881 18.3917 37.1472 15.2976 35.8296C14.5545 37.5048 17.6129 40.1931 18.3346 40.9085C19.4886 42.0525 24.2263 46.3912 25.6876 47.4042C28.185 49.1326 33.1799 56.0001 39.7791 56.0001C43.4698 55.9966 47.0213 54.1584 49.7117 51.6047Z" fill="url(#paint18_linear_54_11751)"/>
<path d="M52.8849 29.4615C52.9778 25.3494 55.997 23.3873 55.997 21.333C55.997 20.7274 55.6789 20.2847 55.2287 19.9624C55.7789 21.5633 54.4677 22.9836 52.5098 25.3991C50.3875 28.0164 49.9195 32.0789 51.3772 36.1448C52.8385 40.2108 50.9984 45.8175 48.0294 47.592C45.0603 49.3664 41.1158 57.1689 29.8219 48.3534C29.8184 48.3499 29.8184 48.3499 29.8148 48.3463C29.1252 47.7124 28.4428 47.1492 27.7532 46.7242C22.9835 43.7951 20.2645 41.1601 18.21 38.9465C17.8063 38.5108 16.7202 36.8426 15.4268 37.3916C16.0735 38.8437 17.8135 40.3915 18.3351 40.9086C19.4892 42.0526 24.2268 46.3912 25.6881 47.4042C25.8775 47.5353 26.0847 47.6982 26.3026 47.8859C26.3598 47.9355 26.4169 47.9851 26.4742 48.0346C26.4884 48.0488 26.5063 48.063 26.5205 48.0736C26.5563 48.1055 26.5956 48.1409 26.6314 48.1728C26.6385 48.1799 26.6492 48.187 26.6564 48.1976C28.1391 49.5328 30.1792 51.7429 32.6802 53.4678C32.6802 53.4678 32.6838 53.4678 32.6838 53.4713C32.9018 53.6236 33.1269 53.7724 33.3519 53.914C33.3555 53.9176 33.3591 53.9176 33.3627 53.9211C33.5878 54.0628 33.8164 54.2009 34.0451 54.332C34.0486 54.332 34.0486 54.3355 34.0522 54.3355C35.7815 55.3202 37.7001 56.0001 39.7724 56.0001C47.4077 56.0001 54.4784 48.1055 54.4784 42.3111C54.4784 36.5167 52.7742 34.3208 52.8849 29.4615Z" fill="url(#paint19_radial_54_11751)"/>
<defs>
<linearGradient id="paint0_linear_54_11751" x1="50.7769" y1="57.4949" x2="44.5778" y2="42.8436" gradientUnits="userSpaceOnUse">
<stop offset="0.00132565" stop-color="#FFCB4B"/>
<stop offset="1" stop-color="#FFD748"/>
</linearGradient>
<linearGradient id="paint1_linear_54_11751" x1="52.0295" y1="47.3327" x2="38.9685" y2="31.616" gradientUnits="userSpaceOnUse">
<stop offset="0.00132565" stop-color="#FFCB4B"/>
<stop offset="1" stop-color="#FFD748"/>
</linearGradient>
<linearGradient id="paint2_linear_54_11751" x1="16.7574" y1="36.9437" x2="24.4859" y2="42.6846" gradientUnits="userSpaceOnUse">
<stop offset="0.00132565" stop-color="#FFCB4B"/>
<stop offset="1" stop-color="#FFD748"/>
</linearGradient>
<linearGradient id="paint3_linear_54_11751" x1="13.9263" y1="21.919" x2="27.4457" y2="36.193" gradientUnits="userSpaceOnUse">
<stop offset="0.00132565" stop-color="#FFCB4B"/>
<stop offset="1" stop-color="#FFD748"/>
</linearGradient>
<linearGradient id="paint4_linear_54_11751" x1="24.3996" y1="30.3256" x2="19.9265" y2="34.5765" gradientUnits="userSpaceOnUse">
<stop stop-color="#FFBC47" stop-opacity="0"/>
<stop offset="1" stop-color="#FFA754"/>
</linearGradient>
<linearGradient id="paint5_linear_54_11751" x1="28.6627" y1="15.2405" x2="36.4823" y2="27.6364" gradientUnits="userSpaceOnUse">
<stop offset="0.00132565" stop-color="#FFCB4B"/>
<stop offset="1" stop-color="#FFD748"/>
</linearGradient>
<linearGradient id="paint6_linear_54_11751" x1="20.4895" y1="17.2897" x2="31.114" y2="31.7681" gradientUnits="userSpaceOnUse">
<stop offset="0.00132565" stop-color="#FFCB4B"/>
<stop offset="1" stop-color="#FFD748"/>
</linearGradient>
<linearGradient id="paint7_linear_54_11751" x1="33.2692" y1="19.0258" x2="26.5359" y2="25.1578" gradientUnits="userSpaceOnUse">
<stop stop-color="#FFBC47" stop-opacity="0"/>
<stop offset="1" stop-color="#FFA754"/>
</linearGradient>
<linearGradient id="paint8_linear_54_11751" x1="27.0265" y1="23.3525" x2="17.7518" y2="30.1924" gradientUnits="userSpaceOnUse">
<stop stop-color="#FFBC47" stop-opacity="0"/>
<stop offset="1" stop-color="#FFA754"/>
</linearGradient>
<linearGradient id="paint9_linear_54_11751" x1="33.9783" y1="32.7792" x2="24.7036" y2="39.619" gradientUnits="userSpaceOnUse">
<stop stop-color="#FFBC47" stop-opacity="0"/>
<stop offset="1" stop-color="#FFA754"/>
</linearGradient>
<radialGradient id="paint10_radial_54_11751" cx="0" cy="0" r="1" gradientUnits="userSpaceOnUse" gradientTransform="translate(46.2219 21.7995) scale(11.203 11.1055)">
<stop stop-color="#FFBC47" stop-opacity="0"/>
<stop offset="1" stop-color="#FFA754"/>
</radialGradient>
<linearGradient id="paint11_linear_54_11751" x1="34.5106" y1="17.8329" x2="28.7606" y2="23.209" gradientUnits="userSpaceOnUse">
<stop offset="0.3118" stop-color="#FFBC47" stop-opacity="0"/>
<stop offset="1" stop-color="#FF8900"/>
</linearGradient>
<linearGradient id="paint12_linear_54_11751" x1="30.0723" y1="20.7197" x2="22.4972" y2="27.6066" gradientUnits="userSpaceOnUse">
<stop offset="0.3118" stop-color="#FFBC47" stop-opacity="0"/>
<stop offset="1" stop-color="#FF8900"/>
</linearGradient>
<linearGradient id="paint13_linear_54_11751" x1="27.4919" y1="28.0972" x2="18.1342" y2="36.0266" gradientUnits="userSpaceOnUse">
<stop offset="0.3118" stop-color="#FFBC47" stop-opacity="0"/>
<stop offset="1" stop-color="#FF8900"/>
</linearGradient>
<linearGradient id="paint14_linear_54_11751" x1="17.2067" y1="33.7992" x2="28.088" y2="42.7223" gradientUnits="userSpaceOnUse">
<stop stop-color="#FFBC47" stop-opacity="0"/>
<stop offset="1" stop-color="#FFBC47"/>
</linearGradient>
<linearGradient id="paint15_linear_54_11751" x1="19.3042" y1="22.8545" x2="27.7542" y2="35.8168" gradientUnits="userSpaceOnUse">
<stop stop-color="#FFBC47" stop-opacity="0"/>
<stop offset="1" stop-color="#FFBC47"/>
</linearGradient>
<linearGradient id="paint16_linear_54_11751" x1="26.0042" y1="23.7757" x2="28.3923" y2="21.9335" gradientUnits="userSpaceOnUse">
<stop stop-color="#FFBC47" stop-opacity="0"/>
<stop offset="1" stop-color="#FFA754"/>
</linearGradient>
<linearGradient id="paint17_linear_54_11751" x1="37.8654" y1="30.9737" x2="34.7137" y2="15.8255" gradientUnits="userSpaceOnUse">
<stop stop-color="#FFBC47" stop-opacity="0"/>
<stop offset="1" stop-color="#FFBC47"/>
</linearGradient>
<linearGradient id="paint18_linear_54_11751" x1="30.5489" y1="45.502" x2="25.7802" y2="49.9235" gradientUnits="userSpaceOnUse">
<stop offset="0.3118" stop-color="#FFBC47" stop-opacity="0"/>
<stop offset="1" stop-color="#FF8900"/>
</linearGradient>
<radialGradient id="paint19_radial_54_11751" cx="0" cy="0" r="1" gradientUnits="userSpaceOnUse" gradientTransform="translate(33.7334 31.0267) rotate(47.8911) scale(32.316 29.3597)">
<stop offset="0.6134" stop-color="#FFBC47" stop-opacity="0"/>
<stop offset="1" stop-color="#FF8900"/>
</radialGradient>
</defs>
</svg>
